<?xml version="1.0" encoding="UTF-8" standalone="no"?>
<!-- Created with Inkscape (http://www.inkscape.org/) -->

<svg
   xmlns:dc="http://purl.org/dc/elements/1.1/"
   xmlns:cc="http://creativecommons.org/ns#"
   xmlns:rdf="http://www.w3.org/1999/02/22-rdf-syntax-ns#"
   xmlns:svg="http://www.w3.org/2000/svg"
   xmlns="http://www.w3.org/2000/svg"
   xmlns:sodipodi="http://sodipodi.sourceforge.net/DTD/sodipodi-0.dtd"
   xmlns:inkscape="http://www.inkscape.org/namespaces/inkscape"
   width="744.09003"
   height="180"
   id="svg9025"
   version="1.1"
   inkscape:version="0.48.4 r9939"
   sodipodi:docname="medor.svg">
  <defs
     id="defs9027" />
  <sodipodi:namedview
     id="base"
     pagecolor="#ffffff"
     bordercolor="#666666"
     borderopacity="1.0"
     inkscape:pageopacity="0.0"
     inkscape:pageshadow="2"
     inkscape:zoom="0.35"
     inkscape:cx="375"
     inkscape:cy="520"
     inkscape:document-units="px"
     inkscape:current-layer="layer1"
     showgrid="false"
     borderlayer="true"
     inkscape:showpageshadow="false"
     inkscape:window-width="1920"
     inkscape:window-height="1025"
     inkscape:window-x="0"
     inkscape:window-y="27"
     inkscape:window-maximized="1" />
  <metadata
     id="metadata9030">
    <rdf:RDF>
      <cc:Work
         rdf:about="">
        <dc:format>image/svg+xml</dc:format>
        <dc:type
           rdf:resource="http://purl.org/dc/dcmitype/StillImage" />
        <dc:title></dc:title>
      </cc:Work>
    </rdf:RDF>
  </metadata>
  <g
     inkscape:label="Layer 1"
     inkscape:groupmode="layer"
     id="layer1"
     transform="translate(0,-872.36218)">
    <g
       style="fill:#b14542;fill-opacity:1;display:inline"
       id="g3344"
       transform="matrix(0.21292472,0,0,-0.21292472,444.79556,967.3979)">
      <path
         inkscape:connector-curvature="0"
         style="fill:#b14542;fill-opacity:1;fill-rule:evenodd;stroke:none"
         d="m 2248.9375,471.03125 c -4.2117,-0.0324 -7.6863,0.38774 -7.7187,0.9375 -0.034,0.54841 -3.5071,1.02603 -7.7188,1.0625 l -3.9375,0.0312 c -4.2117,0.0365 -8.8525,0.61397 -10.3437,1.28125 -1.4899,0.66593 -5.7638,2.80219 -9.5,4.75 l -0.031,0.0312 c -3.7322,1.94781 -10.2011,3.99923 -14.375,4.5625 l -10.0625,1.34375 c -4.1739,0.56327 -10.7755,2.36557 -14.6562,4 l -24.3126,10.25 c -3.8807,1.63443 -7.1241,2.58156 -7.2187,2.125 -0.096,-0.45656 -3.5104,0.0332 -7.5937,1.0625 l -37.0938,9.34375 c -4.0847,1.02929 -10.8834,1.8696 -15.0938,1.875 l -18.7187,0.0312 c -4.2131,0.005 -10.7148,1.52328 -14.4375,3.40625 -3.7227,1.88567 -9.4213,4.50072 -12.6875,5.78125 -3.2662,1.28053 -9.3888,2.12778 -13.5937,1.90625 l -1.1876,-0.0625 c -4.2049,-0.22153 -11.1048,-0.25449 -15.3124,-0.0937 l -22,0.84375 c -4.209,0.16209 -10.4262,1.3705 -13.8126,2.6875 -3.3863,1.31565 -8.6031,4.81496 -11.5937,7.78125 l -5.7187,5.6875 c -2.9907,2.96494 -6.8922,8.52107 -8.6563,12.34375 l -3.875,8.375 c -1.7668,3.82268 -2.1145,10.22317 -0.7813,14.21875 l 2.5,7.46875 c 1.3333,3.99558 2.7605,7.94629 3.1563,8.75 0.3944,0.80371 3.4628,3.48892 6.8437,6 l 8.4688,6.3125 c 3.381,2.51108 9.6049,4.4202 13.8125,4.25 l 13.6563,-0.5625 c 4.2089,-0.17155 11.0994,-0.27548 15.3124,-0.21875 l 4.4063,0.0625 c 4.2117,0.0567 11.0312,-0.44286 15.1875,-1.125 l 8.5312,-1.40625 c 4.1564,-0.68214 10.9456,-0.64107 15.0938,0.0937 l 7.625,1.34375 c 4.1482,0.73482 10.9744,1.36419 15.1875,1.375 l 11.7813,0.0312 c 4.2103,0.0108 11.1021,-0.0139 15.3124,-0.0625 l 21.8126,-0.25 c 4.2103,-0.0486 11.0898,-0.42771 15.2812,-0.84375 l 14.75,-1.46875 c 4.1914,-0.41469 8.349,-0.67615 9.25,-0.59375 0.901,0.0838 5.0572,-0.21437 9.25,-0.625 l 30.2188,-2.9375 c 4.1914,-0.41063 11.0709,-0.76369 15.2812,-0.78125 l 16.25,-0.0625 c 4.2103,-0.0162 7.6111,0.61893 7.5625,1.4375 -0.049,0.82127 3.3549,1.66968 7.5625,1.875 l 10.6875,0.53125 c 4.2049,0.20532 11.1116,0.64051 15.3125,0.96875 l 14.2812,1.09375 c 4.1996,0.32824 11.0627,0.23781 15.25,-0.21875 l 7.5313,-0.8125 c 4.186,-0.45656 10.5632,-2.61615 14.1563,-4.8125 l 1.1562,-0.71875 c 3.593,-2.1977 7.2032,-7.36935 8.0312,-11.5 l 1.7813,-8.875 c 0.828,-4.13065 1.5615,-10.94455 1.625,-15.15625 l 0.2813,-20.09375 c 0.062,-4.2117 0.01,-8.62364 -0.125,-9.78125 -0.1324,-1.15761 -0.2761,-5.5383 -0.3126,-9.75 l -0.125,-13.84375 c -0.036,-4.2117 -0.4142,-11.09251 -0.8437,-15.28125 l -0.1875,-1.9375 c -0.4282,-4.19009 -2.6136,-9.50692 -4.8438,-11.84375 -2.2314,-2.33683 -7.2675,-5.52667 -11.1874,-7.0625 l -3.125,-1.21875 c -3.9227,-1.53718 -10.5696,-2.82772 -14.7813,-2.875 l -10.2187,-0.125 c -4.2131,-0.0473 -11.1008,-0.0912 -15.3126,-0.125 l -21.0937,-0.1875 z m -365.1875,207.625 c -0.2472,0.002 -0.4369,0.033 -0.5938,0.0625 -1.2548,0.23638 -5.5944,1.32176 -9.6562,2.4375 l -9.2812,2.5625 c -4.0618,1.11574 -10.7868,1.59894 -14.9688,1.09375 l -6.5625,-0.78125 c -4.182,-0.50519 -10.9,-1.52058 -14.9375,-2.25 -4.0375,-0.73077 -10.7746,-1.00727 -14.9688,-0.625 l -21.2812,1.9375 c -4.1941,0.38227 -7.636,0.51223 -7.6562,0.28125 -0.024,-0.23098 -3.0721,-0.40742 -6.7813,-0.375 -3.7106,0.0351 -10.1342,0.79734 -14.25,1.6875 l -2.9687,0.65625 c -4.1158,0.88881 -9.3106,4.08018 -11.5313,7.09375 -2.2207,3.01357 -4.4871,8.88997 -5.0625,13.0625 l -3.3125,24 c -0.5741,4.17253 -1.1857,11.04235 -1.3437,15.25 l -0.4376,11.78125 c -0.158,4.20765 -0.4399,11.10485 -0.625,15.3125 l -0.1562,3.53125 c -0.1864,4.20765 -0.061,10.77107 0.2812,14.59375 0.3418,3.82133 0.5088,10.38475 0.375,14.59375 l -0.4687,14.78125 c -0.1337,4.209 0.7845,10.94481 2.0313,14.96875 l 1.1874,3.8125 c 1.2468,4.02259 4.8857,9.5228 8.0938,12.25 l 3.875,3.28125 c 3.2094,2.72856 8.4823,5.36558 11.7188,5.84375 3.235,0.47682 9.2306,0.13052 13.3437,-0.78125 l 3.4063,-0.75 c 4.113,-0.91312 9.223,-1.5234 11.3437,-1.34375 2.1194,0.1783 7.0679,1.40869 11,2.75 3.9321,1.33996 10.5994,2.462 14.8125,2.46875 l 4.0938,0 c 4.2144,0.007 9.8405,-0.0206 12.5312,-0.0625 2.6921,-0.0432 7.8595,1.70161 11.4688,3.875 l 8.4062,5.0625 c 3.6066,2.17339 7.4342,7.30108 8.5,11.375 l 1.9688,7.4375 c 1.0657,4.07527 1.8198,10.85215 1.6874,15.0625 l -0.094,3.09375 c -0.1324,4.21035 -0.5034,11.08441 -0.8437,15.28125 l -0.5626,6.84375 c -0.3403,4.19819 -0.4005,11.04775 -0.125,15.25 l 0.9688,14.875 c 0.2756,4.20225 0.1331,11.06531 -0.3438,15.25 l -1.0624,9.125 c -0.4769,4.18333 -0.6452,9.19475 -0.375,11.125 0.2661,1.9316 0.3767,6.9473 0.2187,11.1563 l -0.5,12.9687 c -0.1567,4.2076 -0.1102,11.1049 0.094,15.3125 l 0.5626,11.5 c 0.2039,4.2063 0.066,10.6232 -0.3126,14.25 -0.3795,3.6268 -0.942,10.0179 -1.25,14.2188 l -0.3124,4.1562 c -0.308,4.2009 -0.3929,11.075 -0.1876,15.2812 l 0.2813,5.8438 c 0.2053,4.2063 0.4421,11.1022 0.5313,15.3125 l 0.5624,26.1875 c 0.089,4.2103 0.1029,11.0994 0.031,15.3125 l -0.6875,39.5937 c -0.073,4.2118 -0.8203,11.0039 -1.6875,15.125 l -1.4687,6.9063 c -0.8672,4.1225 -1.728,10.9473 -1.9063,15.1563 l -1.1875,28.375 c -0.1797,4.2089 -0.3864,7.7794 -0.4688,7.9374 -0.08,0.1608 -3.1574,1.9644 -6.8437,4 l -21.5937,11.9063 c -3.6877,2.0356 -10.1335,3.6586 -14.3438,3.5937 l -2.3438,-0.031 c -4.2103,-0.063 -8.5758,-0.1306 -9.6874,-0.1562 -1.1104,-0.023 -5.4446,0.025 -9.6563,0.094 l -3.6875,0.031 c -4.2117,0.067 -10.9105,0.2534 -14.875,0.375 -3.9686,0.1202 -9.7669,0.1531 -12.875,0.094 -3.1081,-0.059 -9.0489,0.3758 -13.2188,0.9687 l -0.4374,0.063 c -4.1699,0.5943 -10.1639,3.3574 -13.3126,6.1562 l -1.875,1.6562 c -3.1486,2.7988 -5.4574,8.5492 -5.1562,12.75 l 0.75,10.6876 c 0.3012,4.2008 1.1113,11.061 1.7812,15.2187 l 2.0626,12.9063 c 0.6686,4.1576 1.0037,10.9852 0.7187,15.1874 l -0.062,0.6563 c -0.2837,4.2022 -0.3918,11.0723 -0.25,15.2813 l 0.6562,19.5312 c 0.1419,4.209 0.033,11.1089 -0.2187,15.3125 l -0.1563,2.6875 c -0.2512,4.2036 -0.1048,11.0586 0.3126,15.25 l 1.0312,10.5312 c 0.4174,4.1915 1.1399,8.8635 1.5938,10.375 0.4538,1.5129 4.0501,4.02 7.9687,5.5626 l 13.4687,5.3124 c 3.9173,1.544 10.5411,2.6716 14.75,2.5 l 13.6563,-0.5624 c 4.2076,-0.1716 11.0763,-0.511 15.2813,-0.75 l 6.6874,-0.375 c 4.2063,-0.2378 11.0981,-0.4443 15.3126,-0.4376 l 34.8437,0.063 c 4.2131,0.01 10.6698,0.4787 14.375,1.0312 3.7052,0.5525 10.1932,0.9742 14.4063,0.9688 l 30.5,-0.031 c 4.2103,-0.01 11.1048,-0.1545 15.3124,-0.3125 l 3.0938,-0.094 c 4.209,-0.1566 11.1022,-0.2359 15.3125,-0.1562 l 14.3437,0.2812 c 4.2104,0.08 11.1022,0.05 15.3126,-0.062 l 9.0937,-0.25 c 4.2103,-0.1122 11.0613,-0.5487 15.25,-0.9688 l 4.9063,-0.5 c 4.1927,-0.4214 10.6767,-0.9729 14.4062,-1.2188 3.7335,-0.2444 10.2353,-0.6619 14.4375,-0.9374 l 5.5,-0.3438 c 4.2036,-0.2756 11.0599,-0.1768 15.25,0.25 l 9.75,1 c 4.1901,0.4255 10.6851,0.2886 14.4375,-0.3125 3.7538,-0.6011 10.0982,-1.3974 14.0938,-1.75 3.9955,-0.3512 9.597,-0.3375 12.4687,0.031 2.8731,0.3674 8.5372,1.0282 12.5625,1.4374 4.0293,0.408 10.6051,0.9226 14.625,1.1563 4.0199,0.2323 10.7353,0.1544 14.9375,-0.1563 l 4.5313,-0.3124 c 4.2008,-0.3094 11.0722,-0.4694 15.2812,-0.3438 l 12.2812,0.375 c 4.2104,0.127 10.7725,0.5388 14.5938,0.9062 3.8213,0.3661 10.3888,0.8601 14.5938,1.0938 l 0.5624,0.031 c 4.205,0.2351 10.726,0.1038 14.5,-0.2812 3.7741,-0.3836 10.0857,-0.8612 14.0313,-1.0625 3.9456,-0.204 10.4392,0.3762 14.4375,1.2813 3.9996,0.905 10.6971,1.2102 14.875,0.6874 l 25.5938,-3.2187 c 4.1792,-0.5241 11.0178,-0.7102 15.2187,-0.4063 l 18.625,1.375 c 4.1995,0.3026 11.0844,0.8336 15.2813,1.1876 l 7.4374,0.625 c 4.1955,0.3552 11.071,0.7123 15.2813,0.7812 l 18.3125,0.3125 c 4.2103,0.07 10.5029,0.158 14,0.2187 3.4971,0.061 9.791,0.012 14,-0.125 l 8.0312,-0.25 c 4.209,-0.1364 11.0872,-0.5579 15.2813,-0.9374 l 24.1563,-2.2188 c 4.1941,-0.3809 8.5885,-1.3348 9.7812,-2.125 1.1927,-0.7902 3.2428,-4.7178 4.5625,-8.7188 L 2483,1435.7188 c 1.317,-4.001 2.1791,-10.7353 1.9062,-14.9376 l -0.4062,-6.0624 c -0.2715,-4.2023 -0.7327,-11.0492 -1.0312,-15.25 L 2482,1378.7812 c -0.2999,-4.2008 -0.5351,-11.0695 -0.5,-15.2812 l 0.062,-6.3438 c 0.031,-4.2117 -0.01,-11.1007 -0.062,-15.3124 l -0.031,-2.375 c -0.057,-4.2118 -0.4906,-11.0966 -0.9688,-15.2813 l -2.1562,-19.0313 c -0.4782,-4.1846 -0.3481,-10.674 0.3124,-14.4062 0.6606,-3.7308 1.3557,-10.2299 1.5313,-14.4375 L 2481.0312,1256 c 0.1757,-4.2076 0.5507,-11.0804 0.8438,-15.2812 l 0.75,-10.6876 c 0.2931,-4.2008 0.9076,-11.0626 1.375,-15.25 l 1.625,-14.3437 c 0.466,-4.1874 0.3183,-11.0231 -0.3125,-15.1875 l -1.1563,-7.625 c -0.6335,-4.1644 -3.3829,-10.209 -6.125,-13.4062 l -2.25,-2.5626 c -2.742,-3.1972 -8.3926,-6.3092 -12.5624,-6.9062 l -18.4063,-2.6562 c -4.1685,-0.5984 -11.007,-1.1077 -15.2187,-1.1563 l -34.5,-0.4063 c -4.2118,-0.047 -8.9675,0.025 -10.5938,0.1563 -1.6263,0.131 -6.4119,0.2569 -10.625,0.2813 l -25.6562,0.1562 c -4.2104,0.024 -11.1117,0.2898 -15.3126,0.5938 l -8.8437,0.6562 c -4.2009,0.3053 -10.3372,2.3663 -13.625,4.5938 -3.2878,2.2287 -7.6206,7.0637 -9.6563,10.75 l -2.2187,3.9687 c -2.0356,3.6863 -3.7396,10.1647 -3.8125,14.375 l -0.1875,10.2187 c -0.072,4.2104 -0.1661,11.0995 -0.2187,15.3126 l -0.2813,21.0937 c -0.053,4.2117 -0.6865,11.0447 -1.4375,15.1875 l -4.3438,23.875 c -0.7523,4.1428 -4.3421,9.2256 -8,11.3125 l -11.0312,6.2813 c -3.6592,2.0869 -10.0925,3.4444 -14.2812,3 l -7.9376,-0.8438 c -4.1873,-0.4444 -11.041,-0.9083 -15.25,-1.0312 l -24.9374,-0.75 c -4.2104,-0.1216 -11.1022,-0.2229 -15.3126,-0.2188 l -32.125,0.031 c -4.213,0 -11.0749,0.2216 -15.2812,0.4688 L 2120,1291.406 c -4.2049,0.2472 -10.9681,-0.4494 -15.0312,-1.5624 l -3.4688,-0.9376 c -4.0618,-1.1103 -8.5246,-5.2814 -9.9375,-9.25 l -4.875,-13.6874 c -1.4116,-3.9673 -2.5679,-10.6633 -2.5625,-14.875 l 0,-2.3438 c 0.01,-4.2117 -0.2383,-11.0885 -0.5625,-15.2812 -0.3215,-4.1928 -0.2694,-11.0573 0.125,-15.25 l 2.7187,-29.0938 c 0.3945,-4.1941 3.7008,-9.3548 7.3438,-11.4688 l 11.0938,-6.4062 c 3.643,-2.1126 10.0681,-3.8588 14.2812,-3.875 l 8.8125,-0.031 c 4.2144,-0.016 9.2792,-0.1927 11.25,-0.375 1.9708,-0.1811 6.9781,-0.9174 11.125,-1.6563 l 14.6875,-2.625 c 4.1469,-0.7375 10.1299,-0.9675 13.2812,-0.5313 3.1514,0.4363 9.1647,0.8688 13.375,0.9688 l 8.6563,0.1875 c 4.2117,0.1 10.2181,0.094 13.3437,-0.031 3.123,-0.1242 6.8632,0.3972 8.3126,1.1563 1.448,0.7578 5.9448,0.3392 9.9687,-0.9063 l 1.2813,-0.375 c 4.0239,-1.244 9.0818,-3.9987 11.2187,-6.0937 2.1369,-2.0937 5.4447,-6.8508 7.375,-10.5937 l 5.5313,-10.7188 c 1.9302,-3.743 3.3835,-10.2584 3.2187,-14.4688 l -0.094,-1.9687 c -0.1662,-4.209 -0.1965,-10.4685 -0.094,-13.9063 0.104,-3.4377 0.062,-9.6986 -0.094,-13.9062 l -0.25,-6.9062 c -0.1539,-4.2077 -0.3508,-9.1549 -0.4062,-11 -0.057,-1.8466 0.2797,-6.7801 0.7188,-10.9688 l 0.8124,-7.9688 c 0.4391,-4.1887 1.4271,-10.9135 2.1876,-14.9374 0.7564,-4.024 0.6769,-10.69 -0.1876,-14.8126 l -1.875,-8.875 c -0.8631,-4.1225 -4.2324,-9.6541 -7.5,-12.3124 l -3.125,-2.5626 c -3.2675,-2.65827 -9.3806,-4.83965 -13.5937,-4.8437 l -20.625,-0.0312 c -4.2131,-0.005 -11.1062,-0.17797 -15.3125,-0.40625 l -1.9375,-0.125 c -4.2063,-0.22693 -9.8021,-0.472 -12.4375,-0.5625 -2.6354,-0.0932 -8.2258,-0.13833 -12.4375,-0.0937 l -13.7813,0.125 c -4.2117,0.0446 -11.0884,-0.24967 -15.2812,-0.65625 l -0.094,0 c -4.1927,-0.40793 -8.7784,-1.05677 -10.1562,-1.46875 -1.3791,-0.41063 -5.9077,-1.11404 -10.0938,-1.5625 l -12.5312,-1.34375 c -4.186,-0.44846 -9.6122,-2.06315 -12.0625,-3.5625 -2.4503,-1.49935 -5.5705,-5.98533 -6.9375,-9.96875 l -3.9688,-11.5 c -1.3683,-3.98342 -2.7518,-8.70735 -3.0624,-10.46875 -0.3121,-1.7614 -0.6173,-6.63205 -0.6876,-10.84375 l -0.4374,-26.625 c -0.07,-4.2117 0.3431,-11.08017 0.9374,-15.25 l 1.8126,-12.59375 c 0.5929,-4.16983 2.7745,-10.56627 4.875,-14.21875 l 0.5937,-1 c 2.1018,-3.65113 6.2062,-8.06731 9.1563,-9.8125 2.95,-1.74384 8.7991,-3.39438 13,-3.6875 l 0.6874,-0.0312 c 4.2023,-0.29312 11.0737,-0.393 15.2813,-0.21875 l 6.7187,0.25 c 4.2077,0.17425 11.1022,0.40815 15.3126,0.5 l 2.3124,0.0625 c 4.2104,0.0932 11.1076,0.34926 15.3126,0.59375 l 9.2187,0.5625 c 4.2036,0.24449 11.0761,0.5744 15.25,0.75 4.1739,0.1756 10.9824,-0.12558 15.1563,-0.6875 l 10.3437,-1.40625 c 4.1752,-0.56192 11.0341,-1.42673 15.2187,-1.90625 l 1.25,-0.125 c 4.1847,-0.48087 11.0519,-0.5931 15.25,-0.25 l 3.3126,0.25 c 4.1995,0.3431 10.8121,1.52682 14.6874,2.625 3.8795,1.09818 9.6082,4.2882 12.75,7.09375 l 5.5626,4.96875 c 3.1418,2.80555 5.7283,8.5383 5.75,12.75 l 0.031,8.40625 c 0.023,4.21305 0.3159,11.08306 0.6562,15.28125 l 1.25,15.25 c 0.3404,4.19684 0.6497,11.06955 0.6876,15.28125 l 0.125,14.53125 c 0.038,4.21305 1.1708,10.90932 2.5,14.90625 l 6.0624,18.3125 c 1.3292,3.99693 5.2321,9.26575 8.6563,11.7187 l 2.9687,2.125 c 3.4256,2.4516 9.0681,3.9952 12.5626,3.4063 3.4957,-0.5916 9.7977,-1.3018 14,-1.5625 l 0.5,-0.031 c 4.2022,-0.2594 11.1007,-0.4922 15.3124,-0.5313 l 4.5626,-0.062 c 4.2117,-0.039 11.0749,-0.2392 15.2812,-0.4688 l 8.6562,-0.4688 c 4.205,-0.2296 11.0708,0.01 15.25,0.5313 l 22.8126,2.8437 c 4.1806,0.5214 11.0205,0.6543 15.2187,0.3126 l 16.5313,-1.3438 c 4.1968,-0.3417 9.0659,-1.3448 10.8124,-2.2188 1.7452,-0.8752 4.4767,-4.78513 6.0626,-8.6875 l 2.5937,-6.375 c 1.5858,-3.90237 2.9762,-10.53965 3.0937,-14.75 l 1.2188,-43.15625 c 0.1189,-4.2117 0.039,-11.1062 -0.1875,-15.3125 l -0.3437,-6.0625 c -0.2243,-4.20495 -0.4186,-11.06955 -0.4376,-15.28125 l -0.031,-5.75 c -0.019,-4.2117 -0.048,-10.72712 -0.094,-14.46875 -0.046,-3.74163 0.3498,-10.20112 0.9063,-14.375 l 0.6875,-5.0625 c 0.5552,-4.17523 1.0177,-11.03695 1.0312,-15.25 l 0.095,-30.0324 c 0.014,-4.2117 0,-7.81494 0,-8 0,-0.18506 0.031,-3.75705 0.031,-7.96875 l 0,-34.875 c 0,-4.2117 -0.018,-11.1008 -0.031,-15.3125 l -0.062,-25.3125 c -0.014,-4.2117 -2.2043,-10.34263 -4.8437,-13.625 l -3.4688,-4.34375 c -2.6394,-3.28237 -8.2557,-5.89913 -12.4688,-5.84375 l -12.9687,0.15625 c -4.2103,0.0554 -11.068,-0.31001 -15.25,-0.8125 l -6.7187,-0.8125 c -4.1807,-0.50249 -11.0042,-1.31947 -15.1876,-1.8125 L 2408.375,689 c -4.1847,-0.49168 -11.0397,-0.85419 -15.25,-0.78125 l -20.0938,0.34375 c -4.2103,0.0729 -11.0776,0.36295 -15.2812,0.625 l -0.5938,0.0312 c -4.2035,0.2607 -11.079,0.6986 -15.2812,0.96875 l -1.9375,0.125 c -4.2036,0.27015 -9.9321,0.61222 -12.7187,0.75 -2.788,0.13778 -8.5057,0.26369 -12.7188,0.28125 l -8.5312,0.0312 c -4.2104,0.0176 -11.1008,0.0517 -15.3126,0.0625 l -8.2812,0 c -4.2117,0.0108 -10.8654,0.48959 -14.7812,1.03125 -3.9159,0.54436 -10.4369,0.0804 -14.5,-1.03125 l -11.75,-3.21875 c -4.0632,-1.11168 -10.6333,-1.82743 -14.5938,-1.59375 -3.9618,0.23368 -10.5391,1.13839 -14.6562,2.03125 l -1.375,0.3125 c -4.1172,0.89286 -10.9487,1.46631 -15.1563,1.28125 l -6.1875,-0.28125 c -4.2076,-0.18641 -9,-0.49434 -10.625,-0.6875 -1.6236,-0.19316 -5.3514,-0.4122 -8.2812,-0.5 -2.9312,-0.0878 -8.7625,-0.36412 -12.9688,-0.59375 l -14.25,-0.78125 c -4.2049,-0.22963 -11.0817,-0.13533 -15.2812,0.1875 l -6,0.46875 c -4.1996,0.32283 -9.7694,1.08794 -12.375,1.71875 -2.6057,0.62946 -8.1987,0.98792 -12.4063,0.78125 l -36.8437,-1.8125 c -4.2077,-0.20532 -11.0723,-0.54603 -15.2813,-0.75 l -20.25,-0.96875 c -4.2063,-0.20397 -11.0709,-0.43246 -15.2813,-0.5 L 1976.3125,686 c -4.2103,-0.0689 -11.0804,0.12952 -15.2813,0.4375 l -17.9374,1.3125 c -4.2009,0.30933 -10.3839,0.54206 -13.75,0.53125 -3.3662,-0.0135 -9.4614,-0.89219 -13.5313,-1.96875 l -22.9687,-6.0625 c -3.5647,-0.94199 -7.3636,-1.60579 -9.0938,-1.59375 z m 1899.8438,1.4375 c -3.8226,0.0619 -8.3251,0.6999 -11.2813,1.65625 -3.9429,1.27513 -10.4899,3.20198 -14.5625,4.28125 l -1.0312,0.28125 c -4.0713,1.07927 -10.8329,2.4479 -15,3.0625 l -18.2188,2.6875 c -4.1658,0.6146 -10.8962,2.01854 -14.9688,3.09375 l -6.625,1.75 c -4.0712,1.07521 -10.6768,3.05701 -14.6562,4.4375 l -35.9688,12.5 c -3.9793,1.38184 -10.2759,4.13108 -14,6.09375 l -7.3124,3.84375 c -3.7282,1.96267 -9.6387,5.51115 -13.125,7.875 L 3601.25,742.25 c -3.485,2.36385 -9.2463,6.14524 -12.7812,8.4375 l -12.0626,7.84375 c -3.5349,2.29091 -8.248,5.46724 -10.4687,7.0625 -2.2193,1.59391 -5.9716,4.64028 -8.3125,6.78125 -2.3422,2.13962 -5.9715,5.79357 -8.0625,8.125 -2.091,2.33143 -5.5766,7.20594 -7.75,10.8125 l -0.9063,1.53125 c -2.1733,3.60656 -4.4081,7.60816 -4.9687,8.90625 -0.5592,1.29944 -2.6818,5.3776 -4.7187,9.0625 l -1.75,3.15625 c -2.037,3.6849 -5.3763,9.70226 -7.4376,13.375 l -4.8124,8.5625 c -2.0613,3.67139 -4.6862,10.01289 -5.8438,14.0625 l -8.0312,28.0625 c -1.1577,4.04961 -3.12,10.65815 -4.3438,14.6875 l -0.875,2.96875 c -1.2238,4.02935 -2.7319,10.73912 -3.3438,14.90625 l -4.6874,32 c -0.6106,4.16713 -1.4756,11.00146 -1.9376,15.1875 l -5,45.46875 c -0.4619,4.186 -0.6603,8.639 -0.4374,9.875 0.2242,1.236 0.2544,5.2005 0.094,8.8125 -0.1594,3.6093 -0.6603,9.3407 -1.125,12.75 -0.4633,3.408 -1.0175,9.6361 -1.2187,13.8437 l -0.25,5.4063 c -0.2013,4.2076 -0.8583,11.0516 -1.4688,15.2187 l -2,13.5938 c -0.6105,4.1671 -0.8789,10.8482 -0.625,14.8438 0.2553,3.9969 0.6193,10.6999 0.8125,14.9062 l 0.3125,6.9375 c 0.1918,4.2063 10e-5,11.0912 -0.4375,15.2813 l -0.3125,2.9062 c -0.4376,4.1901 -1.1206,11.0273 -1.5312,15.2188 l -0.2188,2.0624 c -0.412,4.1928 -0.7076,11.0682 -0.6562,15.2813 l 0.031,2.25 c 0.051,4.2117 0.1553,10.8447 0.2188,14.7187 0.062,3.8754 0.3222,10.4853 0.5937,14.6876 L 3476.375,1224 c 0.2729,4.2022 1.0146,9.709 1.6562,12.2188 0.6376,2.5124 1.9868,7.9044 2.9688,12 l 0.2812,1.1874 c 0.9848,4.0956 1.6417,8.4448 1.4688,9.6876 -0.1715,1.2413 0.3034,5.6384 1.0625,9.7812 l 1.1563,6.375 c 0.7591,4.1415 2.211,10.8786 3.2187,14.9688 l 4.0625,16.4374 c 1.0077,4.0888 2.8537,10.7248 4.0938,14.75 l 8,26.0313 c 1.2386,4.0253 3.9948,10.1097 6.125,13.5313 2.1261,3.4242 5.9744,8.9597 8.5624,12.2812 l 0.8438,1.0312 c 2.5881,3.3216 6.2393,7.4489 8.125,9.1563 1.8857,1.706 5.5176,5.8322 8.0625,9.1875 l 1.1875,1.5625 c 2.5449,3.3567 6.4356,9.0482 8.6562,12.625 l 9.25,14.875 c 2.2207,3.5782 7.1201,8.0285 10.9063,9.875 l 8.2813,4.0625 c 3.7848,1.8479 7.18,3.4353 7.5312,3.5312 0.3512,0.096 3.7067,1.7629 7.4375,3.7188 l 27.875,14.625 c 3.7295,1.9559 9.8454,5.1118 13.5937,7.0312 l 12.4063,6.375 c 3.7497,1.9195 10.1022,4.5949 14.0937,5.9376 l 2.125,0.6874 c 3.9916,1.3427 10.4524,3.7183 14.375,5.25 l 2.1563,0.8438 c 3.9226,1.5331 10.4697,3.5942 14.5625,4.5938 l 30.4688,7.4374 c 4.0928,0.9983 9.0303,2.1162 10.9687,2.4688 1.9397,0.3539 6.9744,0.6427 11.1875,0.6562 l 14.5312,0.031 c 4.2104,0.014 11.1036,0.1886 15.3126,0.375 l 2.5624,0.125 c 4.2077,0.1864 10.1319,0.4328 13.1563,0.5625 3.0244,0.1283 7.8675,0.513 10.75,0.875 2.8866,0.3607 8.6959,0.5863 12.9063,0.4688 l 14.75,-0.4063 c 4.2089,-0.1175 11.0817,-0.4665 15.2812,-0.7813 l 9.5625,-0.7187 c 4.1995,-0.3161 9.9637,-0.2873 12.8125,0.062 2.8488,0.3498 8.6307,0.6331 12.8438,0.625 l 2.4687,-0.031 c 4.2131,-0.01 11.1049,-0.1655 15.3125,-0.3438 l 1.6562,-0.062 c 4.2077,-0.1783 10.6562,-0.4371 14.3438,-0.5937 3.689,-0.1567 9.7445,-0.8738 13.4375,-1.5938 3.693,-0.72 7.8973,-1.3029 9.375,-1.2812 1.4777,0.019 5.9348,-1.199 9.875,-2.6876 l 9.5,-3.5937 c 3.9402,-1.4872 10.3912,-3.9588 14.3125,-5.5 l 33.5625,-13.1875 c 3.9213,-1.5399 9.8947,-4.8926 13.25,-7.4375 L 4028.7812,1453 c 3.3567,-2.5435 6.7889,-5.1614 7.625,-5.8125 0.8362,-0.6511 4.2217,-3.3565 7.5,-6 l 17.5313,-14.1563 c 3.2797,-2.6434 6.4313,-5.1589 7,-5.625 0.5687,-0.466 3.1399,-3.6134 5.6875,-6.9687 l 18.0938,-23.8125 c 2.5475,-3.3553 6.0181,-8.6911 7.7187,-11.8438 1.7006,-3.1526 4.387,-8.4597 5.9687,-11.7812 1.5818,-3.3215 4.8486,-8.8449 7.2813,-12.2812 l 5.2813,-7.4688 c 2.4327,-3.4377 5.8061,-7.5051 7.5,-9.0625 1.6938,-1.5588 4.0832,-6.1582 5.3124,-10.1875 l 5.0626,-16.5 c 1.2305,-4.0293 2.7509,-10.7418 3.375,-14.9062 l 0.75,-5.0626 c 0.624,-4.1644 1.6244,-10.9864 2.2187,-15.1562 l 3.1563,-22.0625 c 0.5956,-4.1698 1.369,-9.0117 1.75,-10.7813 0.3795,-1.7668 0.9406,-5.2933 1.25,-7.8124 0.3079,-2.5192 0.3557,-8.0152 0.094,-12.2188 l -0.062,-1.2812 c -0.2607,-4.2036 0.016,-11.0517 0.625,-15.2188 l 4,-27.375 c 0.6092,-4.1671 1.5658,-11.0123 2.125,-15.1875 l 1.125,-8.4063 c 0.5592,-4.1752 0.7085,-11.0232 0.3438,-15.2187 l -1.375,-15.7187 c -0.3661,-4.1955 -0.5838,-8.3626 -0.5,-9.25 0.085,-0.8875 -0.1668,-5.0559 -0.5626,-9.25 l -0.4687,-4.7813 c -0.3958,-4.1941 -1.2826,-9.8831 -1.9687,-12.6563 -0.6862,-2.7717 -1.2419,-8.4757 -1.25,-12.6874 l -0.125,-69.2188 c -0.01,-4.2131 -0.2312,-9.42712 -0.5,-11.59375 -0.2702,-2.16663 -1.0434,-7.34368 -1.7188,-11.5 l -1.7812,-11 c -0.6754,-4.15632 -1.3979,-11.0111 -1.5938,-15.21875 l -0.7188,-15.5625 c -0.1958,-4.2063 -0.3641,-11.1008 -0.375,-15.3125 l 0,-3.03125 c -0.011,-4.2117 -1.0742,-10.93112 -2.375,-14.9375 l -2.75,-8.46875 c -1.3007,-4.00638 -3.6559,-9.39418 -5.2187,-11.96875 -1.5642,-2.57187 -3.799,-7.98434 -4.9687,-12.03125 l -3.875,-13.46875 c -1.1698,-4.04691 -3.4468,-10.56773 -5.0313,-14.46875 l -9,-22.21875 c -1.5858,-3.90102 -5.0466,-9.78842 -7.6563,-13.09375 l -1.3124,-1.6875 c -2.6111,-3.30533 -7.1615,-8.4469 -10.125,-11.4375 l -1.9688,-1.96875 c -2.9636,-2.98925 -7.8368,-7.89385 -10.8125,-10.875 l -8.4375,-8.46875 c -2.9771,-2.98115 -7.8229,-7.87917 -10.75,-10.90625 l -26.6875,-27.59375 c -2.9285,-3.02708 -6.38,-6.31005 -7.6875,-7.28125 -1.3075,-0.9712 -5.4815,-3.24571 -9.2812,-5.0625 l -11,-5.28125 c -3.7984,-1.81679 -9.1752,-3.89577 -11.9376,-4.65625 -2.7623,-0.75778 -8.1159,-2.88576 -11.9062,-4.71875 l -2.6562,-1.28125 c -3.7917,-1.83435 -10.1551,-4.50415 -14.125,-5.90625 l -6.625,-2.34375 c -3.9713,-1.4021 -10.6263,-3.09641 -14.7813,-3.78125 l -4.7187,-0.78125 c -4.155,-0.68484 -10.8908,-2.10535 -14.9688,-3.15625 l -28.875,-7.4375 c -4.0793,-1.0509 -10.8194,-2.33721 -15,-2.84375 l -17.0625,-2.0625 c -4.182,-0.50654 -10.9835,-1.00478 -15.125,-1.125 -4.1388,-0.11887 -10.9621,0.0892 -15.1563,0.46875 l -1.9062,0.15625 c -4.1955,0.38092 -11.0314,0.32346 -15.2188,-0.125 L 3787.0938,680.25 c -1.0472,-0.11178 -2.2259,-0.17687 -3.5,-0.15625 z m -2375.3126,0.5625 c -4.2117,-0.0405 -11.0626,0.28939 -15.25,0.75 L 1387.6875,682 c -4.1874,0.46061 -9.0293,0.82042 -10.7813,0.78125 -1.7532,-0.0405 -6.632,-0.0513 -10.8437,0 l -1.3125,0.0312 c -4.2103,0.0513 -10.6616,1.46644 -14.3438,3.15625 -3.6808,1.68846 -8.5033,2.63406 -10.6874,2.09375 -2.1829,-0.54166 -7.3846,-1.43249 -11.5626,-1.96875 l -3,-0.375 c -4.1779,-0.5349 -8.7132,-0.71828 -10.0937,-0.40625 -1.3805,0.31473 -2.1537,0.54052 -1.7187,0.5 0.4335,-0.0405 0.9592,-0.0363 1.1874,0.0312 0.2283,0.0675 1.7952,0.7723 3.4688,1.5625 1.6736,0.79155 0.8402,0.83262 -1.8438,0.0937 -2.5149,-0.69143 -4.3474,-1.32804 -4.2812,-1.46875 0.2237,-0.0658 -2.8168,0.17884 -6.9375,0.5625 l -3.5625,0.3125 c -4.1928,0.38902 -9.6244,2.48538 -12.0625,4.625 -2.4395,2.13962 -7.882,3.875 -12.0937,3.875 l -3.875,0 c -4.2118,0 -11.0845,-0.29019 -15.2813,-0.65625 L 1215.3438,691 c -4.1955,-0.36606 -10.5085,1.22143 -14.0313,3.53125 L 1180.7812,708 c -3.5228,2.30982 -8.1003,7.19956 -10.1562,10.875 l -5.2188,9.3125 c -2.0558,3.67544 -5.5278,9.623 -7.7187,13.21875 L 1131.2812,784.75 c -2.1922,3.59575 -5.0593,9.81152 -6.375,13.8125 l -0.375,1.09375 c -1.3142,4.00098 -3.3849,9.46281 -4.625,12.15625 -1.24,2.69344 -3.8716,7.96613 -5.8437,11.6875 l -3.5313,6.65625 c -1.9734,3.72137 -5.2207,9.80583 -7.1874,13.53125 l -10.375,19.6875 c -1.9668,3.72542 -4.7037,10.04513 -6.0626,14.03125 l -6.3437,18.65625 c -1.3589,3.98612 -4.0069,10.10201 -5.875,13.59375 -1.8681,3.49309 -4.9486,9.42696 -6.8437,13.1875 l -16.0313,31.84375 c -1.8965,3.76054 -4.9126,9.96127 -6.6875,13.78125 l -0.2188,0.46875 c -1.7749,3.81998 -6.5059,7.94884 -10.5312,9.1875 -4.0253,1.23866 -9.6292,0.34088 -12.4375,-2 -2.8096,-2.33953 -5.7972,-5.44318 -6.6563,-6.875 -0.8577,-1.42911 -2.8925,-5.76333 -4.5,-9.65625 L 1004.5,944.375 c -1.6061,-3.89292 -4.4936,-10.15381 -6.40625,-13.90625 l -8.5,-16.6875 c -1.91404,-3.75244 -4.38138,-9.04981 -5.46875,-11.75 -1.08737,-2.70154 -3.33585,-8.0689 -5,-11.9375 l -4.84375,-11.25 c -1.6628,-3.8686 -4.08655,-10.31287 -5.40625,-14.3125 l -6.84375,-20.6875 C 960.7102,839.84412 958.92969,833.60791 958.0625,830 c -0.86719,-3.60926 -2.64211,-9.83602 -3.9375,-13.84375 L 949.46875,801.75 c -1.29539,-4.00773 -3.59304,-9.2997 -5.09375,-11.75 -1.50071,-2.4476 -4.63057,-7.3113 -6.96875,-10.8125 l -0.1875,-0.3125 c -2.33953,-3.50255 -5.35294,-9.63077 -6.6875,-13.625 L 922,739.75 c -1.33456,-3.99423 -2.48145,-7.58783 -2.5625,-7.96875 -0.0811,-0.38362 -2.27882,-3.40261 -4.875,-6.71875 L 900.15625,706.625 c -2.59483,-3.31614 -8.1633,-6.13789 -12.375,-6.25 L 845,699.25 c -4.21035,-0.11211 -11.03793,-0.80724 -15.1875,-1.53125 l -25.03125,-4.375 c -4.14957,-0.72536 -10.95382,-0.82948 -15.125,-0.25 l -0.84375,0.0937 c -4.17253,0.58083 -10.43766,0.5793 -13.9375,-0.0312 -3.49984,-0.61055 -9.76632,-0.64198 -13.9375,-0.0625 l -4.125,0.5625 c -4.17118,0.58083 -7.5679,0.63136 -7.5625,0.0937 0.004,-0.53896 -3.4459,-0.903 -7.65625,-0.8125 L 719.125,693.4062 c -4.21035,0.0919 -9.41478,0.11653 -11.5625,0.0625 -2.14637,-0.0554 -7.35215,-0.18688 -11.5625,-0.3125 l -23.71875,-0.71875 c -4.21035,-0.12562 -11.1008,-0.17074 -15.3125,-0.0937 l -19.65625,0.375 c -4.21035,0.077 -8.41982,0.13175 -9.34375,0.125 -0.92258,-0.004 -5.13205,0.0177 -9.34375,0.0312 l -27.53125,0.0937 c -4.21305,0.0122 -9.76648,-0.0193 -12.34375,-0.0625 -2.57592,-0.0405 -8.1388,0.11817 -12.34375,0.34375 l -9.53125,0.5 c -4.2063,0.22558 -11.08171,0.69761 -15.28125,1.03125 L 540.25,694.875 c -4.19819,0.33364 -11.04892,0.11613 -15.21875,-0.46875 L 511.75,692.5625 c -4.17118,-0.58623 -11.041,-1.16238 -15.25,-1.28125 l -0.1875,-0.0312 c -4.21035,-0.12022 -11.08576,0.0973 -15.28125,0.46875 l -10.15625,0.875 c -4.19549,0.37011 -10.7219,2.20114 -14.5,4.0625 l -12.3125,6.0625 c -3.7781,1.86136 -7.5196,6.77154 -8.3125,10.90625 l -2.0625,10.78125 c -0.79425,4.13471 -1.63321,10.9513 -1.875,15.15625 l -0.71875,12.09375 c -0.24314,4.2063 -0.49496,11.09945 -0.5625,15.3125 l -0.0625,3.78125 c -0.0675,4.2117 -0.35098,11.11296 -0.65625,15.3125 l -1.40625,19.09375 c -0.30527,4.19954 -0.52702,10.2142 -0.5,13.375 0.0284,3.1608 1.18066,9.01928 2.5625,13 l 4.90625,14.125 c 1.38049,3.97937 4.90853,8.90054 7.84375,10.9375 2.93657,2.03696 5.46984,3.68885 5.65625,3.6875 0.18506,-10e-4 3.7883,0.0218 8,0.0312 l 28.75,0.0625 c 4.2117,0.009 8.70848,0.10123 9.96875,0.21875 1.26027,0.11752 5.72445,0.2201 9.9375,0.21875 l 4.625,-0.0312 c 4.2117,-10e-4 10.67119,1.65171 14.375,3.65625 l 8.875,4.78125 c 3.70516,2.00319 7.82439,6.91067 9.15625,10.90625 l 3.03125,9.09375 c 1.33051,3.99558 2.4747,9.87045 2.5625,13.03125 0.0865,3.1608 0.16841,9.1633 0.15625,13.375 l -0.0312,1 c -0.0108,4.21305 0.22985,11.1089 0.5,15.3125 l 0.25,4 c 0.27015,4.2036 0.29483,11.07495 0.0625,15.28125 l -0.40625,7.40625 c -0.23368,4.20495 -0.56341,8.69903 -0.71875,9.96875 -0.15534,1.27107 -0.50569,5.73525 -0.78125,9.9375 l -1.09375,16.8125 c -0.27691,4.20225 -0.70787,11.0764 -0.9375,15.2812 l -0.1875,3.4688 c -0.22963,4.2049 -0.35824,9.2875 -0.28125,11.2812 0.0756,1.9964 0.44779,7.0545 0.8125,11.25 l 0.5625,6.5625 c 0.36336,4.1956 0.66435,11.1008 0.65625,15.3125 l 0,9.8439 c -0.008,4.2117 -0.12014,11.1021 -0.21875,15.3124 l -0.25,10.8438 c -0.0986,4.2103 -0.65296,11.0802 -1.25,15.25 l -3.46875,24.0938 c -0.59704,4.1698 -1.11014,11.0382 -1.125,15.25 l -0.21875,63.4374 c -0.0149,4.2118 -0.24219,7.6468 -0.53125,7.6563 -0.28771,0.01 -0.72966,3.45 -0.96875,7.6563 l -0.65625,11.4374 c -0.23909,4.205 -1.8046,10.8176 -3.46875,14.6876 l -8.28125,19.3124 c -1.66415,3.87 -3.73178,7.5992 -4.5625,8.2813 -0.82937,0.6821 -4.9513,1.4457 -9.15625,1.6875 l -13.46875,0.7812 c -4.20495,0.2418 -10.05956,0.4827 -13.03125,0.5313 -2.97169,0.047 -8.53053,-0.3058 -12.34375,-0.7813 -3.81187,-0.4754 -10.38205,-0.8832 -14.59375,-0.9062 l -0.9375,0 c -4.2117,-0.023 -10.65056,1.6671 -14.3125,3.75 l -7.34375,4.1562 c -3.66059,2.0829 -8.26148,6.2664 -10.21875,9.2813 -1.95591,3.0136 -3.78424,6.9384 -4.0625,8.7187 -0.27826,1.779 -0.58484,6.6647 -0.6875,10.875 l -0.5,20.7188 c -0.10266,4.2117 -0.10401,11.1022 0,15.3125 l 0.1875,8.3437 c 0.10401,4.2104 0.28855,11.1022 0.375,15.3126 l 0.0312,2.2187 c 0.0878,4.2103 -0.37207,10.8218 -1.03125,14.7187 -0.65918,3.8984 -1.93738,8.5114 -2.84375,10.2188 -0.90502,1.706 -1.13063,6.4972 -0.46875,10.6562 l 1.84375,11.5626 c 0.66188,4.159 3.5972,10.0396 6.5,13.0937 l 6.6875,7.0625 c 2.90145,3.0527 8.71616,5.9088 12.90625,6.3438 l 0.34375,0.031 c 4.18874,0.4363 11.0709,0.7496 15.28125,0.6875 l 4.34375,-0.062 c 4.2117,-0.061 10.94481,-0.047 14.96875,0.031 4.02529,0.077 10.7611,-0.01 14.96875,-0.1874 l 5.15625,-0.2188 c 4.20765,-0.1797 11.07765,-0.545 15.28125,-0.8125 l 17.71875,-1.1563 c 4.2036,-0.2688 8.16413,-0.7149 8.8125,-1 0.64837,-0.2851 4.60485,-0.3494 8.8125,-0.1562 l 12.875,0.5938 c 4.2063,0.1931 11.1008,0.3848 15.3125,0.4374 l 7.8125,0.094 c 4.2117,0.053 10.03334,-0.5318 12.9375,-1.3125 2.90416,-0.7794 8.72156,-1.0434 12.90625,-0.5625 l 1.1875,0.1562 c 4.18333,0.4809 11.04082,0.4154 15.21875,-0.125 l 0.75,-0.094 c 4.17793,-0.5403 11.00957,-1.4026 15.1875,-1.9375 l 7.0625,-0.9062 c 4.17793,-0.5363 10.8343,-0.7607 14.78125,-0.5 3.94695,0.2579 10.60485,0.5892 14.8125,0.75 l 15.96875,0.625 c 4.209,0.1607 10.20321,-0.013 13.34375,-0.375 3.13919,-0.3621 9.1633,-0.5865 13.375,-0.5 l 1.75,0.031 c 4.2117,0.085 9.76801,1.1319 12.375,2.3125 2.60699,1.1806 8.06999,3.0515 12.125,4.1875 l 7.375,2.0625 c 4.05636,1.136 10.43371,1.5506 14.1875,0.9063 3.75514,-0.6471 10.16239,-2.0896 14.21875,-3.2188 l 14.5,-4.0625 c 4.05771,-1.1292 10.8236,-2.194 15.03125,-2.375 l 6.0625,-0.25 c 4.20765,-0.181 9.0837,-0.664 10.84375,-1.0625 1.76005,-0.4012 5.56595,-3.1928 8.46875,-6.1875 2.90416,-2.9933 5.46732,-8.8576 5.6875,-13.0625 l 0.625,-12.125 c 0.21882,-4.2049 0.55531,-11.1035 0.71875,-15.3125 l 0.78125,-20.3125 c 0.16209,-4.209 0.32367,-8.1065 0.375,-8.6562 0.0513,-0.5512 1.14481,-4.2722 2.4375,-8.2813 l 3,-9.2187 c 1.29269,-4.0091 2.38887,-9.991 2.4375,-13.3126 0.0473,-3.3215 -0.87769,-9.3566 -2.03125,-13.4062 l -2.28125,-8.0312 c -1.15356,-4.0497 -4.35997,-9.9494 -7.125,-13.125 L 835.875,1294.5312 c -2.76638,-3.177 -8.45806,-6.0386 -12.65625,-6.375 L 804.125,1286.625 c -4.19819,-0.3363 -10.98471,-0.7235 -15.09375,-0.8438 -4.10904,-0.1202 -10.89132,-0.6936 -15.0625,-1.2812 l -0.4375,-0.062 c -4.16983,-0.5862 -10.58248,-2.8141 -14.21875,-4.9375 l -4.5,-2.6562 c -3.63627,-2.1248 -7.00138,-4.8195 -7.46875,-6 -0.46737,-1.1806 -1.17888,-5.5872 -1.5625,-9.7813 l -2.5625,-27.9375 c -0.38362,-4.1928 -0.93104,-11.0777 -1.21875,-15.2812 l -0.125,-1.9688 c -0.28771,-4.2022 0.24466,-10.8164 1.1875,-14.7188 0.94284,-3.901 1.74343,-10.5382 1.78125,-14.75 l 2,-223.18745 c 0.0378,-4.2117 0.74276,-8.8851 1.59375,-10.375 0.85099,-1.4899 4.0628,-2.71875 7.125,-2.71875 3.0622,0 6.57501,2.37691 7.78125,5.25 1.20759,2.87174 3.31107,7.95314 4.6875,11.3125 1.37508,3.35936 3.3087,8.75392 4.28125,11.96875 0.97255,3.21618 2.34948,8.46726 3.09375,11.6875 0.74562,3.21753 2.62448,9.07601 4.15625,13.00005 l 4.46875,11.4687 c 1.53177,3.924 3.89248,8.8779 5.25,11 1.35752,2.1207 3.93708,6.9653 5.71875,10.7813 l 2.1875,4.6874 c 1.78167,3.816 3.86587,8.1215 4.625,9.5938 0.75913,1.4723 2.76948,5.8324 4.46875,9.6875 l 1,2.2813 c 1.69927,3.8537 3.68107,8.4411 4.4375,10.2187 0.75778,1.7749 2.23287,6.1774 3.25,9.7813 1.01578,3.6038 2.89211,9.836 4.1875,13.8437 l 1.15625,3.5625 c 1.29539,4.0077 3.91872,10.0318 5.8125,13.375 1.89243,3.3432 4.48451,9.336 5.78125,13.3438 l 7.5,23.1874 c 1.29674,4.0078 2.579,7.1938 2.84375,7.0938 0.2661,-0.1 1.81252,2.9888 3.4375,6.875 l 3.1875,7.625 c 1.62498,3.8862 4.06107,10.18 5.4375,14 1.37508,3.8213 3.63167,10.2041 5,14.1875 l 11.125,32.4375 c 1.36833,3.9821 4.3775,10.1444 6.65625,13.6875 l 7.40625,11.562 c 2.27875,3.5431 4.61054,9.8547 5.15625,14.0312 l 1.375,10.5626 c 0.54571,4.1779 2.34125,10.7849 4,14.6562 l 15.6875,36.5625 c 1.6601,3.8713 4.10699,10.3156 5.4375,14.3125 l 13.25,39.7188 c 1.33051,3.9955 3.22747,10.6326 4.25,14.7187 l 7.15625,28.5625 c 1.02253,4.0861 3.0699,9.8599 4.5625,12.8438 1.4926,2.9838 6.13322,5.8495 10.3125,6.375 l 7.25,0.9062 c 4.17928,0.5254 10.99705,1.6598 15.125,2.5 l 32.5625,6.625 c 4.128,0.8402 7.7038,1.1863 7.9375,0.75 0.2337,-0.4363 0.6155,-0.7469 0.8437,-0.6875 0.2297,0.059 2.7724,-1.2788 5.6563,-2.9375 2.8839,-1.6614 7.4944,-3.6404 10.25,-4.4062 2.7542,-0.7632 7.0676,-1.4832 9.5625,-1.625 2.4949,-0.1392 7.1451,-2.508 10.3438,-5.25 l 1.0312,-0.875 c 3.1973,-2.7408 6.8308,-8.2954 8.0938,-12.3126 l 15.3124,-48.6874 c 1.263,-4.0186 3.0133,-10.69 3.875,-14.8126 l 2.0313,-9.6562 c 0.8631,-4.1225 1.8157,-7.7395 2.125,-8.0312 0.3093,-0.2905 1.7258,-3.7896 3.1563,-7.75 L 1103.75,1308 c 1.4305,-3.9605 3.3286,-7.5529 4.2188,-8 0.8888,-0.4458 2.3723,-4.1749 3.3124,-8.2812 l 1.375,-5.9063 c 0.9402,-4.1063 1.5697,-9.4052 1.4063,-11.7813 -0.1621,-2.3733 1.591,-7.2013 3.9063,-10.7187 l 1.875,-2.8437 c 2.3152,-3.5188 4.4993,-6.9032 4.8437,-7.5313 0.3444,-0.6281 1.5679,-4.449 2.7187,-8.5 l 1.6876,-6 c 1.1508,-4.051 3.4498,-10.5295 5.0937,-14.4063 l 0.1563,-0.375 c 1.6452,-3.8767 3.9484,-9.8803 5.125,-13.3437 1.1765,-3.4634 3.7396,-9.3589 5.6874,-13.0937 l 2.6876,-5.125 c 1.9464,-3.7349 4.4907,-9.4731 5.6874,-12.75 1.1968,-3.277 3.1619,-8.1215 4.3438,-10.75 1.1819,-2.6313 3.5343,-7.8097 5.2188,-11.5 1.6857,-3.6917 4.2203,-9.211 5.6562,-12.2813 1.4359,-3.0689 3.9223,-7.7643 5.5,-10.4375 1.5763,-2.6732 4.2546,-6.9087 5.9688,-9.4062 1.7127,-2.4976 4.6208,-7.6527 6.4687,-11.4376 l 4.5625,-9.3437 c 1.8465,-3.7862 3.8813,-8.7799 4.5,-11.0937 0.6187,-2.3139 2.4306,-7.4156 4.0312,-11.3126 l 1.4688,-3.5937 c 1.6007,-3.897 3.37,-8.2831 3.9062,-9.75 0.535,-1.4669 2.3469,-5.8256 4.0313,-9.6875 l 0.5313,-1.2188 c 1.6844,-3.8605 3.6646,-8.3873 4.4062,-10.0312 0.7416,-1.6452 2.8462,-5.3746 4.6562,-8.3125 1.8101,-2.9379 4.9606,-8.3313 7.0313,-12 l 1.1563,-2.0313 c 2.0693,-3.6686 4.6614,-9.5121 5.7812,-12.9687 1.1198,-3.4593 3.7445,-9.3001 5.8125,-12.96875 l 10.5,-18.625 c 2.068,-3.66869 3.568,-6.79297 3.3437,-6.9375 -0.2242,-0.14588 0.5284,-2.26305 1.6563,-4.71875 1.1279,-2.45705 3.5829,-5.74831 5.4375,-7.3125 1.8546,-1.56284 6.7773,-2.48259 10.9688,-2.0625 l 0.9687,0.0937 c 4.1914,0.42009 7.7521,4.19455 7.875,8.40625 l 0.25,9.09375 c 0.1243,4.21035 0.064,10.00209 -0.125,12.90625 -0.1891,2.90686 -0.7161,7.63232 -1.1875,10.50005 -0.4714,2.8663 -0.923,8.6647 -1,12.875 l -0.9375,52.0625 c -0.076,4.2103 0.1556,11.0831 0.5,15.2812 l 2.3125,28.5 c 0.3444,4.1969 0.07,11.0272 -0.5938,15.1876 l -0.3437,2.25 c -0.6632,4.159 -1.4953,10.9893 -1.8437,15.1874 l -0.2188,2.875 c -0.3485,4.1982 -0.588,9.4123 -0.5312,11.5938 0.057,2.1828 -0.054,7.416 -0.2188,11.625 l -0.094,2.6562 c -0.1647,4.209 -0.5411,11.0804 -0.8437,15.2813 l -0.3125,4.2187 c -0.3026,4.1996 -0.4464,10.6016 -0.3438,14.25 0.1027,3.6471 0.4613,10.0831 0.8126,14.2813 l 0.125,1.7187 c 0.3498,4.1969 0.013,11.0202 -0.7813,15.1563 l -4.8125,25.0937 c -0.7943,4.1348 -2.7485,9.7142 -4.3438,12.4063 -1.5966,2.6921 -6.2864,5.6247 -10.4062,6.5 l -20.3125,4.3125 c -4.1198,0.8766 -9.9675,1.3284 -13,1.0312 -3.0338,-0.2985 -8.4847,-0.9828 -12.125,-1.5312 -3.6403,-0.5484 -10.0518,-0.6936 -14.25,-0.3438 l -0.5,0.031 c -4.1968,0.3512 -10.7726,2.0181 -14.625,3.7187 l -2.25,1 c -3.8524,1.7007 -9.0225,5.9155 -11.4687,9.3438 l -5.5,7.7188 c -2.4463,3.4282 -4.4115,9.6632 -4.375,13.875 l 0.125,14.5 c 0.038,4.213 0.1132,11.1021 0.1874,15.3124 l 0.5626,30.5313 c 0.074,4.2103 -0.2173,11.0912 -0.6563,15.2813 l -0.4063,3.8437 c -0.439,4.1901 -0.9096,8.9553 -1.0312,10.5937 -0.1229,1.6372 -0.2378,6.4446 -0.25,10.6563 l -0.031,11.8125 c -0.011,4.2117 1.9721,10.4685 4.4062,13.9062 l 5.875,8.2813 c 2.4341,3.4377 7.1227,6.6933 10.4375,7.2187 3.3148,0.5282 9.4744,0.969 13.6875,1 l 11.9062,0.094 c 4.2131,0.031 11.1049,-0.058 15.3126,-0.2188 l 5.7812,-0.2187 c 4.209,-0.1607 11.0844,-0.036 15.2812,0.3125 l 30.7188,2.5625 c 4.1982,0.3471 11.0572,0.3047 15.25,-0.094 l 9.1875,-0.875 c 4.1928,-0.3985 11.0709,-0.6461 15.2813,-0.5313 l 25.0937,0.6875 c 4.2103,0.1148 11.1076,0.024 15.3125,-0.2188 l 5.375,-0.3124 c 4.2049,-0.2432 11.0695,-0.443 15.2812,-0.4376 l 31.9688,0.031 c 4.2131,0 11.0939,0.3966 15.2812,0.8437 l 7.8126,0.8126 c 4.1887,0.4471 11.0518,1.1065 15.25,1.4374 l 15.1562,1.1876 c 4.1982,0.3308 11.0709,0.6949 15.2812,0.8124 l 4.4376,0.125 c 4.2089,0.1176 10.2975,0.3393 13.5312,0.5 3.2351,0.1608 9.2962,-0.1746 13.4688,-0.75 l 9.7187,-1.3437 c 4.1725,-0.5754 10.9687,-1.6045 15.125,-2.2813 l 19.4687,-3.1562 c 4.1564,-0.6767 10.9305,-0.793 15.0626,-0.25 4.132,0.5444 10.9771,1.0727 15.1874,1.1875 l 11.2813,0.3125 c 4.2103,0.1135 10.1552,-0.2519 13.2187,-0.8125 3.0636,-0.5619 9.0015,-1.4049 13.1876,-1.875 l 15.75,-1.75 c 4.1846,-0.4701 8.8499,-4.0733 10.375,-8 l 12.8124,-33.0313 c 1.5251,-3.9281 2.1244,-10.5228 1.3126,-14.6562 l -2.875,-14.6875 c -0.8119,-4.1334 -1.2648,-10.9513 -1,-15.1563 l 0.125,-2 c 0.2647,-4.2036 0.5028,-10.5359 0.5312,-14.0937 0.028,-3.5579 -0.6695,-9.8448 -1.5312,-13.9687 l -2.0313,-9.8126 c -0.8604,-4.1225 -2.5328,-10.8035 -3.7187,-14.8437 l -1.5938,-5.375 c -1.186,-4.0402 -2.8063,-9.0381 -3.5938,-11.125 -0.7861,-2.0869 -4.5592,-5.1894 -8.4062,-6.9063 l -8.0938,-3.625 c -3.8469,-1.7181 -10.4445,-3.1988 -14.6562,-3.2812 l -2.25,-0.031 c -4.2117,-0.084 -11.0994,-0.1426 -15.3125,-0.125 l -5.0625,0.031 c -4.2117,0.018 -11.079,0.2557 -15.2812,0.5312 l -2,0.125 c -4.2023,0.2756 -11.0627,0.1142 -15.25,-0.3437 l -7.1563,-0.7813 c -4.186,-0.4579 -10.2267,-3.054 -13.4375,-5.7812 l -17.5938,-14.9375 c -3.2107,-2.7272 -5.7122,-8.4174 -5.5312,-12.625 l 0.875,-19.7813 c 0.1824,-4.2076 1.5741,-10.8545 3.0938,-14.7812 l 0.031,-0.094 c 1.5196,-3.9266 3.2563,-10.5516 3.875,-14.7187 l 0.2188,-1.3437 c 0.6186,-4.1672 1.7846,-10.9604 2.5937,-15.0938 l 1,-5.1875 c 0.8091,-4.132 1.5686,-9.8059 1.6875,-12.625 0.1175,-2.8204 -0.508,-8.107 -1.4062,-11.75 -0.897,-3.643 -2.6553,-9.1812 -3.875,-12.2813 -1.2211,-3.1013 -3.0454,-7.7529 -4.0626,-10.3437 -1.0171,-2.5921 -2.0421,-8.1388 -2.2812,-12.3437 l -0.4688,-8.2188 c -0.2377,-4.2063 -0.3048,-9.3986 -0.1562,-11.5625 0.1472,-2.1639 0.3894,-6.3433 0.5312,-9.2813 0.1432,-2.9379 0.3567,-8.7896 0.4688,-13 l 0,-0.2812 c 0.1121,-4.2103 0.4255,-9.8787 0.6875,-12.5938 0.262,-2.7163 0.2744,-8.3562 0.031,-12.5624 L 1510,1047.0312 c -0.2431,-4.2062 -1.0833,-11.0433 -1.8438,-15.1874 l -0.062,-0.4376 c -0.7605,-4.1428 -1.7513,-10.9661 -2.1876,-15.1562 l -1.6874,-16.28125 c -0.4363,-4.19009 -1.241,-11.01092 -1.7813,-15.1875 l -1.2813,-9.90625 c -0.5403,-4.17523 -1.5462,-9.83548 -2.25,-12.59375 -0.7051,-2.75827 -0.9432,-8.46481 -0.5312,-12.65625 l 1.875,-19.03125 c 0.4133,-4.19144 1.11,-11.06126 1.5625,-15.25 l 1.7187,-15.75 c 0.4539,-4.18739 0.7154,-10.47971 0.5938,-13.96875 -0.1216,-3.48904 1.5945,-9.13154 3.8125,-12.5625 2.218,-3.4296 7.4662,-5.89154 11.6563,-5.46875 l 9.9374,1 c 4.1901,0.42279 11.0723,0.62679 15.2813,0.46875 l 3,-0.125 c 4.2076,-0.15939 11.0366,-0.87649 15.1875,-1.59375 l 9.4375,-1.625 c 4.1496,-0.71726 10.966,-0.73518 15.125,-0.0625 l 1,0.15625 c 4.1577,0.67268 10.6582,-0.10053 14.4687,-1.71875 3.8119,-1.61957 9.2927,-4.69584 12.1563,-6.8125 2.8623,-2.11666 6.5916,-6.96686 8.3125,-10.8125 l 3.9062,-8.75 c 1.7209,-3.84429 2.698,-10.38592 2.1563,-14.5625 l -2.5313,-19.46875 c -0.5416,-4.17523 -1.3765,-11.03677 -1.875,-15.21875 l -2.3437,-19.625 c -0.4984,-4.18198 -0.8719,-11.0383 -0.8125,-15.25 l 0.6562,-46.1875 c 0.061,-4.2117 -1.8662,-10.478 -4.3124,-13.90625 l -2.6563,-3.6875 c -2.4462,-3.4296 -6.9814,-6.64142 -10.0625,-7.125 -3.0798,-0.48222 -8.1432,-0.44944 -11.25,0.0625 -3.1081,0.51329 -9.0736,0.76241 -13.2812,0.5625 l -21.375,-1 c -4.2077,-0.20126 -10.0197,0.0124 -12.9063,0.5 -2.8866,0.48493 -6.8061,0.88446 -8.7187,0.875 -1.9114,-0.008 -6.7834,-0.32549 -10.8438,-0.6875 -4.0591,-0.36066 -10.8358,-0.94914 -15.0312,-1.3125 l -9,-0.78125 c -4.1955,-0.36336 -11.0231,-0.13216 -15.1876,0.5 l -7.2187,1.09375 c -4.1644,0.63216 -9.6617,0.95784 -12.2187,0.71875 -2.5557,-0.24179 -8.0764,-0.63186 -12.2813,-0.875 l -17.625,-1.03125 c -4.2049,-0.24179 -11.1008,-0.49073 -15.3125,-0.53125 l -15.0938,-0.125 z M 2665.1562,699 c -0.362,-0.0594 -4.0749,0.091 -8.2812,0.3125 l -16.9688,0.875 c -4.2076,0.22153 -9.3108,3.43605 -11.3437,7.125 l -15.2187,27.625 c -2.033,3.6876 -3.2921,10.12646 -2.8126,14.3125 l 2.4063,21.21875 c 0.4782,4.18469 1.0954,10.58788 1.375,14.21875 0.281,3.62817 0.4751,9.30886 0.4063,12.625 -0.065,3.31479 -0.3823,9.45536 -0.6876,13.65625 l -2.375,32.53125 c -0.3066,4.19954 2.0322,9.89681 5.1876,12.6875 l 9.125,8.0625 c 3.1526,2.79069 8.0875,4.84751 10.9687,4.5625 2.8812,-0.28501 8.6483,-0.82009 12.8437,-1.1875 l 7.375,-0.65625 c 4.1969,-0.36876 9.8706,-0.82188 12.5938,-1.03125 2.7218,-0.21072 8.3547,0.0467 12.5312,0.59375 l 3.8126,0.5 c 4.1765,0.54841 8.2053,1.04782 8.9374,1.09375 0.7322,0.0459 4.7297,-0.35919 8.9063,-0.90625 l 6.4063,-0.84375 c 4.1765,-0.54571 10.5838,0.0933 14.2187,1.40625 3.6349,1.31295 7.887,5.56502 9.4687,9.46875 l 2.1563,5.3125 c 1.5831,3.90237 3.2213,10.37672 3.6563,14.375 0.4322,3.99828 0.6086,10.7013 0.375,14.90625 l -0.4376,8.0625 c -0.2336,4.20495 -0.1638,10.76837 0.1563,14.59375 0.3188,3.82538 0.5721,9.56759 0.5937,12.75 0.02,3.18376 0.063,9.2258 0.063,13.4375 l 0,1 c 0,4.2117 -0.057,10.69452 -0.094,14.4375 -0.035,3.74433 -0.3691,9.63695 -0.75,13.0625 -0.3809,3.4242 -1.1993,8.92846 -1.8125,12.25 -0.6119,3.3215 -1.1977,9.4772 -1.3125,13.6875 l -0.3438,13.1562 c -0.1134,4.2104 0.1563,9.7557 0.625,12.3438 0.4701,2.5881 1.016,8.166 1.1876,12.375 l 0.2187,5.8438 c 0.1715,4.2089 0.4506,9.0711 0.5937,10.7812 0.1419,1.7128 0.2981,6.5397 0.375,10.75 l 0.063,3.0625 c 0.077,4.2117 0.1454,9.2889 0.1562,11.2813 0.011,1.9937 -0.3712,6.7573 -0.875,10.5624 -0.5011,3.8038 -1.2454,10.3372 -1.625,14.5313 l -0.375,4.2187 c -0.3796,4.1955 -0.2743,10.8779 0.2188,14.8438 0.4916,3.9645 0.567,10.6496 0.1874,14.8438 L 2734.75,1179 c -0.3796,4.1941 -0.4343,7.6578 -0.125,7.6875 0.3107,0.03 0.5394,3.507 0.5312,7.7187 l 0,9 c -0.01,4.2131 -0.2051,11.049 -0.4374,15.2188 -0.231,4.1685 -0.6703,11.0179 -0.9688,15.2188 l -2.5312,35.5937 c -0.2999,4.2009 -2.7193,10.3318 -5.3438,13.625 l -6.3125,7.9375 c -2.6259,3.2945 -6.5562,5.9605 -8.7187,5.9375 -2.1613,-0.022 -7.1058,-0.2665 -11,-0.5313 -3.8957,-0.2661 -10.5206,-0.1718 -14.7188,0.1876 l -33.8125,2.875 c -4.1968,0.3593 -11.0572,0.4318 -15.25,0.1562 -4.1914,-0.2742 -10.9861,0.045 -15.0937,0.7188 -4.1077,0.674 -9.768,3.7805 -12.5938,6.9062 l -4.4062,4.9062 c -2.8232,3.1257 -4.895,9.1117 -4.5938,13.3126 l 3.0938,43.4062 c 0.3012,4.2009 0.167,11.0667 -0.3126,15.25 l -2.125,18.3438 c -0.4795,4.1846 -1.302,11.0122 -1.8437,15.1874 l -2.375,18.2188 c -0.5403,4.1752 1.0156,10.4292 3.4375,13.875 l 5.9375,8.4375 c 2.4219,3.4472 7.5211,7.7318 11.3437,9.5 l 0.4376,0.1875 c 3.8226,1.7682 10.3161,4.0521 14.4062,5.0625 l 4,0.9687 c 4.0888,1.0104 10.8165,1.2894 14.9688,0.5938 l 6.4062,-1.0938 c 4.1523,-0.6969 10.9839,-1.0172 15.1875,-0.7187 l 17.8125,1.2813 c 4.2009,0.2998 11.0831,0.2329 15.2812,-0.125 l 5.9376,-0.5 c 4.1981,-0.3594 10.722,-0.7631 14.5312,-0.9063 3.8078,-0.1432 9.7976,0.022 13.2812,0.375 3.4837,0.3539 9.7666,0.4305 13.9688,0.1563 l 8.75,-0.5626 c 4.2036,-0.2742 11.1049,-0.3808 15.3125,-0.2187 l 14.8125,0.5625 c 4.209,0.1621 11.1022,0.3441 15.3125,0.4062 l 20.5625,0.3126 c 4.2103,0.062 11.075,-0.091 15.2812,-0.3126 l 23.7813,-1.25 c 4.2063,-0.2215 11.0736,-0.5404 15.2813,-0.7187 l 12.875,-0.5313 c 4.2089,-0.1783 11.1021,-0.2178 15.3124,-0.062 l 5.7188,0.2187 c 4.2076,0.154 11.046,-0.3483 15.1875,-1.125 l 1.6875,-0.3125 c 4.1401,-0.778 10.9689,-1.053 15.1562,-0.5938 l 5.8438,0.6563 c 4.1874,0.4566 11.0397,0.8302 15.25,0.8437 l 33.4062,0.094 c 4.2118,0.015 11.1022,0.1392 15.3126,0.25 l 6.3124,0.1562 c 4.2104,0.1108 11.0995,0.1916 15.3126,0.1876 l 12.0937,0 c 4.2131,0 11.1089,-0.2299 15.3125,-0.5 l 7.2188,-0.4688 c 4.2035,-0.2702 10.3412,-1.1776 13.625,-2.0312 3.285,-0.8537 9.033,-1.6925 12.8124,-1.8438 3.7782,-0.1513 10.2785,0.2756 14.4376,0.9375 l 6.375,1 c 4.1603,0.6605 9.9054,0.8589 12.7812,0.4375 2.8785,-0.4241 8.6467,-1.2741 12.8125,-1.9062 l 29.2187,-4.4376 c 4.1658,-0.6321 11.0179,-1.393 15.2188,-1.6874 l 2.625,-0.1876 c 4.2009,-0.2944 10.236,-0.9895 13.4062,-1.5312 3.1717,-0.543 8.7771,-2.6274 12.4688,-4.6562 l 5.1562,-2.8438 c 3.6917,-2.0289 7.6385,-4.3867 8.7813,-5.2188 1.1441,-0.8307 5.1417,-3.0491 8.9063,-4.9374 l 4.5937,-2.3126 c 3.7632,-1.8897 10.0089,-4.8553 13.8437,-6.5937 l 2.2813,-1.0313 c 3.8362,-1.7384 9.5306,-5.0065 12.6563,-7.2812 3.1256,-2.2747 7.6172,-6.376 10,-9.0938 2.3827,-2.7177 7.0191,-7.1161 10.2812,-9.7812 l 3.2188,-2.625 c 3.2607,-2.6651 8.8375,-6.668 12.4062,-8.9062 l 1.8125,-1.1563 c 3.5687,-2.2382 7.2732,-5.3324 8.2187,-6.875 0.9442,-1.5439 3.4582,-5.7767 5.5938,-9.4063 l 12.6875,-21.5624 c 2.1342,-3.6296 5.3229,-9.7412 7.0937,-13.5626 L 3351.75,1331 c 1.7709,-3.8213 4.1672,-10.237 5.3438,-14.2812 l 10.625,-36.4376 c 1.1765,-4.0442 2.9119,-10.7129 3.875,-14.8124 l 2.6562,-11.25 c 0.9644,-4.0996 2.2907,-10.8424 2.9688,-15 l 6.375,-39 c 0.678,-4.1577 1.2706,-11.0071 1.3124,-15.2188 l 0.031,-4.9375 c 0.043,-4.2131 0.3579,-11.0804 0.6875,-15.2813 l 2.7812,-35.2187 c 0.3296,-4.1995 1.0072,-11.0408 1.5313,-15.2187 l 0.6563,-5.1563 c 0.524,-4.1793 1.33,-11.03 1.7812,-15.2187 l 1,-9.1563 c 0.4539,-4.1887 0.6359,-11.0451 0.4062,-15.25 l -0.25,-4.6875 c -0.2296,-4.2063 -0.2801,-11.1035 -0.094,-15.3125 l 0.4375,-10.0937 c 0.1878,-4.209 0.1862,-11.0737 -0.031,-15.2813 l -1.875,-36.125 c -0.2175,-4.2063 -0.8565,-11.07342 -1.4063,-15.25 l -0.25,-1.90625 c -0.5498,-4.17658 -1.3723,-11.00146 -1.8437,-15.1875 L 3385.7812,932 c -0.4714,-4.18469 -0.8915,-9.58888 -0.9374,-12 -0.046,-2.40977 -0.562,-7.76767 -1.1563,-11.9375 l -4.0625,-28.71875 c -0.593,-4.16983 -2.0681,-10.89465 -3.25,-14.9375 L 3365.7812,828.125 c -1.1792,-4.04285 -3.7821,-10.38454 -5.7812,-14.09375 l -17.6875,-32.84375 c -1.9991,-3.70786 -6.2564,-8.98768 -9.4375,-11.75 l -22.8438,-19.84375 c -3.1797,-2.76232 -6.8583,-5.76222 -8.1874,-6.6875 -1.3279,-0.92393 -5.3416,-3.53762 -8.9063,-5.78125 l -10.7813,-6.78125 c -3.566,-2.24363 -7.1883,-4.33458 -8.0312,-4.625 -0.8429,-0.29177 -4.8104,-1.50846 -8.8438,-2.71875 l -31.3124,-9.375 c -4.0348,-1.21164 -10.7311,-2.66493 -14.9063,-3.21875 l -2.5313,-0.34375 c -4.1752,-0.55382 -10.9958,-1.53238 -15.1562,-2.1875 l -12.9375,-2.03125 c -4.1604,-0.65647 -10.9826,-1.39825 -15.1875,-1.65625 l -1.4688,-0.0937 c -4.2022,-0.258 -11.0695,-0.44542 -15.2812,-0.40625 l -0.062,0 c -4.2117,0.0392 -11.1008,0.15545 -15.3125,0.25 l -17.75,0.40625 c -4.2117,0.0959 -11.0736,-0.005 -15.2812,-0.21875 l -11.5626,-0.59375 c -4.2062,-0.21477 -11.1035,-0.52136 -15.3124,-0.6875 l -17.5,-0.6875 c -4.209,-0.16614 -11.0777,-0.53019 -15.2813,-0.8125 l -8.8437,-0.59375 c -4.2023,-0.28231 -11.071,-0.47514 -15.2813,-0.40625 L 3007,700.65625 c -4.2103,0.0689 -11.0804,-0.13088 -15.2812,-0.4375 l -4,-0.3125 c -4.2023,-0.30798 -11.0559,-0.23142 -15.25,0.15625 l -10.5626,0.96875 c -4.1941,0.38767 -11.0681,0.73379 -15.2812,0.75 l -20,0.0937 c -4.2131,0.0162 -11.1022,0.0943 -15.3125,0.1875 l -41.9063,0.90625 c -4.2103,0.0932 -11.1007,0.1875 -15.3124,0.1875 l -64.5,0 c -4.2104,0 -11.1049,-0.17644 -15.3126,-0.375 l -13.4687,-0.625 c -4.2063,-0.19856 -11.0694,-0.78147 -15.25,-1.28125 l -5.8125,-0.6875 c -4.1833,-0.49978 -10.2061,-0.90895 -13.375,-0.90625 -3.1676,0.003 -9.1001,0.55687 -13.1875,1.21875 -4.0874,0.66188 -10.8589,0.95765 -15.0625,0.6875 l -24.6562,-1.5625 c -4.2036,-0.27015 -7.9505,-0.56422 -8.3126,-0.625 z m 2001.4063,16.71875 c -2.5075,0.004 -4.9115,0.11835 -6.625,0.375 -3.4283,0.51329 -8.1961,1.40683 -10.5937,1.96875 -2.399,0.56192 -7.8196,1.08466 -12.0313,1.15625 l -34.1563,0.5625 c -4.2103,0.0702 -11.1156,-0.15285 -15.3124,-0.5 l -1.5313,-0.125 c -4.1982,-0.34715 -10.6862,-0.83017 -14.4063,-1.0625 -3.72,-0.23098 -10.1959,-0.33492 -14.4062,-0.21875 l -4.2812,0.125 c -4.2104,0.11617 -11.1036,0.31728 -15.3126,0.4375 l -6.8124,0.1875 c -4.2104,0.12022 -9.4162,0.18038 -11.5626,0.125 -2.1463,-0.054 -7.3521,-0.18823 -11.5624,-0.3125 l -23.7188,-0.71875 c -4.209,-0.12562 -11.1022,-0.17209 -15.3125,-0.0937 L 4449.2812,718 c -4.2117,0.0783 -8.4198,0.1304 -9.3437,0.125 -0.9226,-0.007 -5.1307,-0.0135 -9.3437,0 l -27.5313,0.0937 c -4.2144,0.0135 -9.7665,0.009 -12.3437,-0.0312 -2.5773,-0.0419 -8.1375,0.0869 -12.3438,0.3125 l -9.5312,0.53125 c -4.2063,0.22558 -11.0831,0.66636 -15.2813,1 l -1.3437,0.125 c -4.1996,0.33364 -11.0476,0.11748 -15.2188,-0.46875 l -13.2812,-1.875 c -4.1712,-0.58488 -11.0397,-1.16103 -15.25,-1.28125 l -0.1876,0 C 4304.0709,716.41103 4297.1968,716.62989 4293,717 l -10.1562,0.875 c -4.1955,0.37146 -10.7219,2.20114 -14.5,4.0625 L 4256.0312,728 c -3.7781,1.86001 -7.5209,6.77019 -8.3124,10.90625 l -2.0626,10.78125 c -0.7942,4.13606 -1.6332,10.9513 -1.875,15.15625 l -0.7187,12.09375 c -0.2431,4.20495 -0.4963,11.1008 -0.5625,15.3125 l -0.062,3.78125 c -0.069,4.2117 -0.351,11.08171 -0.6563,15.28125 l -1.4062,19.125 c -0.3053,4.19954 -0.5284,10.2142 -0.5,13.375 0.027,3.1608 1.182,8.98938 2.5625,12.96875 l 4.9063,14.125 c 1.3818,3.97937 4.9071,8.90054 7.8437,10.9375 2.9366,2.03696 5.4712,3.7201 5.6563,3.71875 0.185,-10e-4 3.7869,-0.009 8,0 l 28.75,0.0625 c 4.213,0.009 8.7084,0.13248 9.9687,0.25 1.2603,0.11752 5.7258,0.18885 9.9375,0.1875 l 4.625,0 c 4.2103,-10e-4 10.6698,1.65306 14.375,3.65625 l 8.875,4.78125 c 3.7038,2.00454 7.8257,6.91067 9.1562,10.90625 l 3.0313,9.09375 c 1.3292,3.99558 2.4761,9.8392 2.5625,13 0.088,3.1608 0.1684,9.1932 0.1562,13.40625 l -0.031,1 c -0.012,4.2117 0.2298,11.079 0.5,15.28125 l 0.25,4.03125 c 0.2702,4.20225 0.2962,11.0763 0.062,15.28125 l -0.4063,7.40625 c -0.235,4.20495 -0.562,8.69768 -0.7187,9.96875 -0.1553,1.26972 -0.5043,5.73525 -0.7813,9.9375 l -1.0937,16.7813 c -0.2756,4.2022 -0.7079,11.1075 -0.9375,15.3124 l -0.1875,3.4688 c -0.2296,4.2063 -0.3569,9.2536 -0.2813,11.25 0.076,1.9951 0.4492,7.0858 0.8126,11.2812 l 0.5624,6.5626 c 0.3648,4.1968 0.6644,11.0695 0.6563,15.2812 l 0,9.875 c -0.01,4.2131 -0.1215,11.1022 -0.2187,15.3125 l -0.25,10.8437 c -0.099,4.2104 -0.653,11.049 -1.25,15.2188 l -3.4688,24.125 c -0.597,4.1698 -1.1101,11.0369 -1.125,15.25 l -0.2188,63.4062 c -0.015,4.2118 -0.2435,7.6808 -0.5312,7.6876 -0.2891,0.01 -0.7297,3.4513 -0.9688,7.6562 L 4350,1264.5625 c -0.2391,4.2049 -1.806,10.8189 -3.4688,14.6875 l -8.2812,19.3125 c -1.6628,3.8686 -3.7318,7.5991 -4.5625,8.2813 -0.8307,0.6821 -4.95,1.4443 -9.1563,1.6874 l -13.4687,0.7813 c -4.2049,0.2431 -10.0596,0.484 -13.0313,0.5313 -2.9716,0.049 -8.5318,-0.3072 -12.3437,-0.7813 -3.8119,-0.4755 -10.3807,-0.8846 -14.5937,-0.9063 l -0.9376,0 c -4.213,-0.023 -10.6519,1.6672 -14.3124,3.75 l -7.3438,4.1563 c -3.6606,2.0829 -8.2628,6.2677 -10.2188,9.2813 -1.9559,3.0149 -3.7842,6.9085 -4.0624,8.6874 -0.2783,1.7817 -0.5849,6.696 -0.6876,10.9063 l -0.5,20.7187 c -0.104,4.2104 -0.1053,11.1022 0,15.3126 l 0.1876,8.3437 c 0.1026,4.2103 0.2871,11.1022 0.375,15.3125 l 0.031,2.1875 c 0.086,4.2117 -0.3707,10.853 -1.0312,14.75 -0.6592,3.897 -1.9374,8.4815 -2.8438,10.1875 -0.9064,1.7074 -1.0994,6.5285 -0.4375,10.6875 l 1.8125,11.5313 c 0.6619,4.1603 3.5972,10.0722 6.5,13.125 l 6.6875,7.0624 c 2.9015,3.0541 8.7162,5.9075 12.9063,6.3438 l 0.3437,0.031 c 4.1887,0.435 11.0709,0.7497 15.2813,0.6876 l 4.3437,-0.094 c 4.2103,-0.062 10.9435,-0.046 14.9687,0.031 4.024,0.077 10.7612,-0.01 14.9688,-0.1874 l 5.1562,-0.2188 c 4.209,-0.1797 11.0777,-0.545 15.2813,-0.8125 l 17.7187,-1.125 c 4.205,-0.2675 8.1642,-0.715 8.8126,-1 0.6497,-0.2864 4.6361,-0.3481 8.8437,-0.1563 l 12.8437,0.5626 c 4.2077,0.1918 11.1022,0.416 15.3126,0.4687 l 7.8124,0.094 c 4.2104,0.053 10.0334,-0.563 12.9376,-1.3437 2.9055,-0.7807 8.7215,-1.0108 12.9062,-0.5313 l 1.2188,0.125 c 4.1833,0.4796 11.0109,0.4453 15.1874,-0.094 l 0.75,-0.094 c 4.178,-0.539 11.011,-1.4325 15.1876,-1.9688 l 7.0624,-0.9062 c 4.178,-0.535 10.8357,-0.758 14.7813,-0.5 3.9469,0.2606 10.6035,0.6191 14.8125,0.7812 l 15.9688,0.5938 c 4.2103,0.1607 10.2045,0.018 13.3437,-0.3438 3.1392,-0.362 9.1633,-0.5851 13.375,-0.5 l 1.75,0.031 c 4.2103,0.087 9.7694,1.1007 12.375,2.2813 2.607,1.1806 8.07,3.0828 12.125,4.2187 l 7.375,2.0626 c 4.055,1.1359 10.465,1.5532 14.2187,0.9062 3.7538,-0.6443 10.1312,-2.1208 14.1876,-3.25 l 14.5,-4.0312 c 4.0577,-1.1293 10.8236,-2.1954 15.0312,-2.375 l 6.0625,-0.25 c 4.2076,-0.1797 9.0837,-0.6614 10.8437,-1.0626 1.7615,-0.3998 5.5646,-3.1941 8.4688,-6.1874 2.9028,-2.9947 5.4673,-8.8875 5.6875,-13.0938 l 0.625,-12.125 c 0.2188,-4.2063 0.5553,-11.0723 0.7187,-15.2812 l 0.7813,-20.3126 c 0.1634,-4.2103 0.3237,-8.1037 0.375,-8.6562 0.051,-0.5498 1.1435,-4.3048 2.4375,-8.3125 l 3,-9.1875 c 1.294,-4.0091 2.3902,-10.0222 2.4375,-13.3438 0.049,-3.3215 -0.8763,-9.3552 -2.0313,-13.4062 l -2.2812,-8 c -1.1522,-4.051 -4.36,-9.9792 -7.125,-13.1562 l -10.1562,-11.6563 c -2.7651,-3.177 -8.4568,-6.0699 -12.6563,-6.4063 l -19.0937,-1.5312 c -4.1982,-0.3363 -10.9848,-0.6909 -15.0938,-0.8125 -4.109,-0.1202 -10.8927,-0.695 -15.0625,-1.2813 l -0.4375,-0.062 c -4.1698,-0.5876 -10.5811,-2.8128 -14.2188,-4.9376 l -4.5,-2.6562 c -3.6376,-2.1248 -7,-4.8194 -7.4687,-6 -0.4674,-1.1806 -1.1802,-5.5885 -1.5625,-9.7812 l -2.5625,-27.9688 c -0.3823,-4.1941 -0.931,-11.0478 -1.2187,-15.25 l -0.125,-1.9688 c -0.2864,-4.2022 0.246,-10.8489 1.1874,-14.75 0.9429,-3.9023 2.7328,-8.6978 3.9688,-10.6874 1.236,-1.9897 3.5884,-6.8041 5.2188,-10.6876 l 4.0937,-9.7812 c 1.6304,-3.8835 6.0084,-8.6268 9.75,-10.5625 l 2.0313,-1.0625 c 3.7402,-1.9343 10.1845,-2.8402 14.3124,-2 l 1.7813,0.375 c 4.128,0.8388 8.3114,1.9173 9.2813,2.4062 0.9698,0.4904 5.1658,0.448 9.3437,-0.094 l 7.5313,-0.9687 c 4.1765,-0.5417 11.0423,-0.8687 15.25,-0.7188 l 1.25,0.031 c 4.2076,0.1513 11.0637,0.8411 15.2187,1.5313 l 1.6563,0.2813 c 4.1563,0.6902 10.9195,1.9917 15.0312,2.9062 l 5.1562,1.1562 c 4.1104,0.9159 10.6656,2.9646 14.5626,4.5626 l 3.75,1.5312 c 3.8969,1.5966 10.3618,3.9695 14.375,5.25 l 1.4374,0.4375 c 4.0132,1.2805 9.9183,3.3142 13.125,4.5313 3.2068,1.2143 7.9828,4.9147 10.5938,8.2187 l 1.4375,1.875 c 2.6124,3.304 5.5053,8.3443 6.4063,11.2187 0.9009,2.8731 3.0125,8.4154 4.6874,12.2813 l 2.9688,6.8437 c 1.6723,3.8646 3.9124,10.3609 4.9688,14.4376 l 1.1562,4.5624 c 1.0577,4.078 2.4097,9.4783 3,12.0313 0.5889,2.5516 0.6792,8.0667 0.1875,12.25 l -2.8437,24.1875 c -0.4931,4.182 -0.9269,11.0695 -0.9688,15.2812 l -0.1562,15.1563 c -0.042,4.2117 -0.5373,11.0761 -1.0938,15.25 l -0.2188,1.7813 c -0.5565,4.1738 -0.6646,10.9974 -0.25,15.1874 l 2.2813,23.125 c 0.4147,4.1901 1.2469,10.5181 1.875,14.0626 0.6308,3.5457 2.9038,9.4262 5.0313,13.0624 l 9.7812,16.75 c 2.1275,3.6363 4.6386,7.4709 5.5625,8.5313 0.9226,1.0617 4.5328,3.8426 8.0313,6.1875 l 25.625,17.1875 c 3.4984,2.3463 9.7869,4.2826 14,4.2813 l 6.9687,-0.031 c 4.2103,0 11.1008,0 15.3125,-0.031 l 0.9688,0 c 4.2117,-0.03 11.1021,-0.139 15.3124,-0.2187 l 7.25,-0.125 c 4.2118,-0.078 10.5644,0.2529 14.125,0.75 3.5593,0.4984 9.8025,1.7738 13.875,2.8125 4.074,1.0387 10.7756,1.2262 14.9063,0.4062 l 10.1875,-2.0312 c 4.132,-0.8186 9.5034,-1.1101 11.9375,-0.6562 2.4354,0.4552 7.7835,0.7673 11.875,0.7187 4.0928,-0.047 10.8506,-0.4867 15.0313,-1 l 6.1562,-0.7813 c 4.1793,-0.5132 10.8862,-2.0282 14.875,-3.375 l 3.7812,-1.2812 c 3.9916,-1.3467 8.2778,-5.7301 9.5313,-9.75 l 0.5,-1.5938 c 1.2535,-4.0225 2.6358,-10.7501 3.0937,-14.9374 l 1.5313,-13.9063 c 0.4566,-4.186 0.4388,-11.0341 -0.031,-15.2187 l -1.0312,-9.1563 c -0.4701,-4.186 -1.0859,-11.0478 -1.375,-15.25 l -0.2188,-3.375 c -0.289,-4.2022 -0.1056,-11.0694 0.4063,-15.25 l 1.4063,-11.625 c 0.5119,-4.1806 0.8225,-10.4828 0.6874,-14.0313 -0.1337,-3.5484 -1.178,-9.0866 -2.3437,-12.2812 -1.1644,-3.1932 -4.806,-7.9597 -8.0937,-10.5938 l -13.9063,-11.125 c -3.2878,-2.6326 -9.1667,-5.7924 -13.0313,-7 -3.8659,-1.2089 -8.341,-5.3651 -9.9687,-9.25 l -4.9687,-11.8124 c -1.6277,-3.8849 -3.2906,-9.1441 -3.7188,-11.6876 -0.4268,-2.5448 -1.6858,-7.0061 -2.7812,-9.9062 -1.0969,-2.9001 -1.7484,-8.704 -1.4688,-12.9062 l 1.3438,-20.125 c 0.2796,-4.2023 0.199,-10.0184 -0.1563,-12.9063 -0.3566,-2.8893 -1.4817,-8.5783 -2.5313,-12.6563 l -3.8124,-14.7812 c -1.0496,-4.078 -2.6604,-9.1812 -3.5938,-11.3438 -0.932,-2.1625 -3.5116,-6.8498 -5.7188,-10.4374 l -17.4374,-28.375 c -2.2072,-3.5863 -7.2007,-7.8849 -11.0626,-9.5626 l -3.6562,-1.625 c -3.8619,-1.679 -10.1391,-4.5229 -13.9375,-6.3437 l -8.375,-4.0313 c -3.7984,-1.8194 -7.3496,-4.6564 -7.875,-6.3124 -0.5227,-1.6588 -0.062,-6.272 1,-10.25 1.0617,-3.9781 4.3476,-9.6956 7.3125,-12.6876 l 6.4062,-6.4687 c 2.9636,-2.992 8.2311,-7.3603 11.7188,-9.7187 l 4.2812,-2.875 c 3.4904,-2.3585 8.2516,-5.9851 10.5938,-8.0626 2.3409,-2.0774 6.5369,-6.3594 9.3438,-9.5 l 1.8437,-2.0624 c 2.8069,-3.1406 7.4982,-7.7129 10.4375,-10.1876 2.9393,-2.4746 7.6524,-6.8167 10.4688,-9.625 2.8163,-2.8082 6.3046,-6.4485 7.75,-8.0937 1.4466,-1.6439 3.5088,-6.3269 4.5624,-10.4063 l 5.6876,-22.06245 c 1.0536,-4.07933 2.4262,-10.83693 3.0624,-15 L 4961.7188,964 c 0.6335,-4.16307 1.393,-9.00904 1.6874,-10.78125 0.2945,-1.77086 0.2425,-6.67951 -0.125,-10.875 l -1.1562,-13.1875 c -0.3674,-4.19549 -0.4386,-11.04911 -0.1562,-15.25 l 0.094,-1.34375 c 0.2823,-4.20089 0.3328,-11.0763 0.094,-15.28125 l -0.4687,-8.0625 c -0.2391,-4.20495 -1.0082,-11.03658 -1.7187,-15.1875 L 4959.0938,869 c -0.7106,-4.15092 -2.7606,-10.66093 -4.5626,-14.46875 l -20,-42.28125 c -1.8032,-3.80647 -5.1396,-9.82518 -7.4062,-13.375 l -11.6562,-18.21875 c -2.2666,-3.54982 -4.7519,-7.11065 -5.5313,-7.90625 -0.778,-0.79425 -4.0473,-3.67094 -7.25,-6.40625 l -8.125,-6.9375 c -3.2054,-2.73396 -8.8739,-6.51941 -12.625,-8.4375 l -4.75,-2.4375 c -3.7511,-1.91809 -10.0899,-4.63185 -14.0625,-6.03125 L 4852,738.5625 c -3.9726,-1.3994 -10.5482,-3.48648 -14.5938,-4.65625 l -18.25,-5.28125 c -4.0455,-1.16977 -10.7813,-2.50409 -14.9687,-2.96875 l -4.0313,-0.4375 c -4.186,-0.46466 -10.997,-1.53212 -15.125,-2.375 L 4762,718.125 c -4.1266,-0.84288 -10.9445,-1.4601 -15.1562,-1.375 l -50.0313,1.03125 c -4.2103,0.0865 -11.068,-0.28011 -15.25,-0.78125 l -7.8125,-0.9375 c -2.091,-0.25057 -4.68,-0.34763 -7.1875,-0.34375 z M 3103.3125,867.25 c 2.9302,0.0397 5.8124,0.31944 7.5313,0.75 2.7488,0.68889 6.1769,4.48245 7.625,8.4375 l 9.1874,25.0625 c 1.4481,3.95505 4.9366,9.73833 7.7813,12.84375 l 0.5,0.53125 c 2.8447,3.10542 6.5124,7.45468 8.1563,9.6875 1.6438,2.23417 3.6488,7.43049 4.4687,11.5625 l 6.7813,34.09375 c 0.8199,4.13201 2.0188,10.93473 2.6874,15.09375 l 1.7813,10.96875 c 0.6686,4.15905 1.4719,9.20475 1.7813,11.21875 0.3093,2.014 0.3449,7.1089 0.094,11.3125 l -1.7813,29.9687 c -0.2539,4.2036 -0.2676,11.0764 -0.031,15.2813 l 0.6562,11.5937 c 0.2364,4.205 0.4377,11.1008 0.4688,15.3126 l 0.2188,26.9374 c 0.031,4.2118 -0.1769,11.109 -0.4376,15.3126 l -1.0937,17.5 c -0.2607,4.2049 -0.8548,11.068 -1.3437,15.25 l -3.8438,32.875 c -0.4876,4.1833 -1.8916,10.9 -3.0938,14.9374 L 3144,1238.6875 c -1.2022,4.0375 -4.3278,10.0384 -6.9375,13.3437 l -22.625,28.6563 c -2.6097,3.3053 -8.0345,7.0194 -12.0625,8.25 l -10.75,3.2813 c -4.028,1.2305 -10.6954,2.9888 -14.8125,3.875 l -11.2187,2.4062 c -4.1172,0.8861 -9.1972,1.9412 -11.3126,2.3438 -2.1166,0.4025 -7.3045,1.0552 -11.5,1.4374 l -12.5312,1.125 c -4.1955,0.3823 -9.9664,0.3044 -12.8125,-0.1562 -2.8461,-0.4593 -8.6062,-0.9671 -12.8125,-1.1562 l -3.5312,-0.1563 c -4.2063,-0.1905 -10.8806,-1.5383 -14.8438,-2.9687 l -20.1562,-7.25 c -3.9619,-1.4292 -7.8719,-5.9998 -8.7188,-10.125 l -0.3125,-1.375 c -0.8456,-4.1253 -1.3259,-10.9201 -1.0625,-15.125 l 0.6562,-10 c 0.2635,-4.2036 0.6823,-11.0764 0.9376,-15.2813 l 1.5937,-26.2813 c 0.258,-4.2035 0.1047,-11.0626 -0.3437,-15.25 l -2.4688,-23.0624 c -0.4498,-4.1874 -0.5935,-11.0492 -0.3125,-15.25 l 0.062,-0.625 c 0.281,-4.2009 0.6396,-11.1036 0.8125,-15.3126 L 2958.625,1103 c 0.1715,-4.209 0.314,-11.1008 0.3438,-15.3125 l 0.25,-36.75 c 0.03,-4.2117 -0.2044,-11.0831 -0.5313,-15.2813 l -1.5625,-19.9374 c -0.3269,-4.1996 -0.5486,-10.0924 -0.5,-13.0938 0.05,-3.00141 0.068,-8.91195 0.031,-13.125 l -0.125,-13.125 c -0.035,-4.2117 0.2399,-11.08441 0.5938,-15.28125 l 1.9062,-22.71875 c 0.3553,-4.19684 1.1887,-10.69722 1.8438,-14.4375 0.6551,-3.73893 1.4941,-10.21211 1.875,-14.40625 l 1.4375,-15.90625 c 0.3796,-4.19549 3.4601,-9.55744 6.8437,-11.9375 3.381,-2.37736 9.3874,-5.49758 13.3438,-6.9375 l 9.5938,-3.5 c 3.9577,-1.44127 10.6089,-2.84539 14.8124,-3.125 l 11.6876,-0.78125 c 4.2035,-0.27961 10.154,0.50459 13.25,1.75 3.0959,1.24676 9.0695,2.3524 13.2812,2.4375 l 11,0.21875 c 4.2103,0.0838 8.8222,-0.44998 10.25,-1.1875 1.4251,-0.73752 5.8385,-1.49416 9.8125,-1.65625 3.9726,-0.16344 10.6795,-0.58513 14.875,-0.96875 l 5.2813,-0.5 c 1.5722,-0.14386 3.3356,-0.21132 5.0937,-0.1875 z m 711.2187,3.46875 5.5313,0.15625 c 4.2103,0.10941 10.3604,1.32881 13.6563,2.71875 3.2985,1.38994 7.7614,3.23601 9.9374,4.09375 2.1748,0.85909 7.2737,2.55322 11.3126,3.75 l 7,2.0625 c 4.0401,1.19678 8.6562,2.63504 10.2812,3.1875 1.6223,0.55246 5.4376,3.38808 8.4688,6.3125 l 20.5624,19.875 c 3.0285,2.92442 6.9383,8.33554 8.6876,12.03125 1.7492,3.69436 3.4078,10.1415 3.6874,14.34375 l 0.625,9.625 c 0.2797,4.2036 0.7874,9.95679 1.125,12.78125 0.3391,2.82446 0.9316,8.58711 1.3126,12.78125 l 1.7187,18.875 c 0.3809,4.19279 0.9133,10.1101 1.1875,13.125 0.2715,3.0149 0.2756,8.9214 0,13.125 l -0.2812,4.2187 c -0.2743,4.2023 -0.5835,9.9171 -0.6876,12.6876 -0.1026,2.7704 -0.4229,8.4553 -0.7187,12.6562 l -0.4063,5.9688 c -0.2944,4.2022 -0.1753,11.0639 0.2813,15.25 l 0.5,4.7187 c 0.4566,4.1874 0.9369,8.9524 1.0625,10.5625 0.1256,1.6088 0.1571,6.3522 0.062,10.5625 l -0.437,20.3437 c -0.093,4.2104 -0.2793,11.1008 -0.4062,15.3126 l -1.0938,35.875 c -0.127,4.2103 -0.2612,10.2591 -0.3125,13.4374 -0.05,3.1811 -0.3099,8.9206 -0.5625,12.75 -0.2526,3.8308 -0.5413,9.87 -0.625,13.4063 -0.084,3.5363 -0.7023,9.8111 -1.375,13.9687 l -2.6875,16.75 c -0.674,4.1577 -2.5517,10.7429 -4.1875,14.625 l -0.9688,2.2813 c -1.6357,3.8821 -5.2964,9.5985 -8.125,12.7187 l -9.75,10.7813 c -2.8285,3.1216 -8.0657,7.5268 -11.625,9.7813 l -19.125,12.125 c -3.5592,2.2557 -9.8708,4.6247 -14.0312,5.2812 l -2.375,0.375 c -4.1617,0.6578 -11.0111,1.3258 -15.2188,1.5 l -13.5937,0.5938 c -4.209,0.1756 -8.1038,0.3152 -8.6563,0.3124 -0.5511,0 -4.3733,-0.7101 -8.5,-1.5624 l -12.4687,-2.5626 c -4.1239,-0.8523 -10.3576,-2.7257 -13.875,-4.1562 -3.5174,-1.4318 -9.1939,-4.4439 -12.5937,-6.6875 -3.3999,-2.245 -8.1707,-6.8883 -10.625,-10.3125 L 3735.5,1268.1875 c -2.453,-3.4229 -5.5144,-9.4923 -6.8125,-13.5 l -2.5,-7.7187 c -1.2981,-4.0064 -3.0757,-9.9758 -3.9375,-13.25 -0.8604,-3.2757 -2.281,-9.3177 -3.1562,-13.4376 l -4.6563,-21.9374 c -0.8766,-4.1199 -2.0631,-10.9199 -2.625,-15.0938 l -2.9063,-21.6562 c -0.5619,-4.1739 -0.3731,-10.9863 0.4063,-15.125 l 1.6563,-8.7813 c 0.7793,-4.1388 1.8688,-9.8439 2.4374,-12.6563 0.5701,-2.8136 0.8929,-8.5423 0.6876,-12.75 l -1.6563,-33.4687 c -0.204,-4.2076 -0.4737,-11.0723 -0.625,-15.2813 l -0.6563,-18.375 c -0.1499,-4.2089 0.262,-11.0556 0.9063,-15.2187 l 0.125,-1 c 0.6443,-4.1617 1.416,-9.9068 1.6875,-12.7813 0.2742,-2.8757 0.8135,-8.6835 1.2188,-12.875 l 1.2187,-12.6562 c 0.4052,-4.19279 0.7583,-9.25915 0.7813,-11.28125 0.023,-2.02075 0.5347,-7.11142 1.125,-11.28125 l 2.625,-18.625 c 0.5875,-4.16983 2.2558,-10.8017 3.7187,-14.75 l 4.5937,-12.40625 c 1.4629,-3.94965 5.0278,-9.6743 7.9063,-12.75 l 13.625,-14.59375 c 2.8785,-3.07705 8.5522,-6.56402 12.5937,-7.75 l 21.9376,-6.4375 c 4.0415,-1.18598 10.3612,-3.83957 14.0312,-5.90625 l 0.9688,-0.5625 c 3.6686,-2.06803 10.1021,-3.67191 14.3124,-3.5625 z m 826.6876,10.34375 c 3.4903,0.0338 9.7636,0.50868 13.9374,1.0625 l 13.0938,1.75 c 4.1752,0.55382 11.0026,1.57615 15.1562,2.28125 l 20.0626,3.40625 c 4.1522,0.7051 10.8101,2.18983 14.8124,3.28125 4.001,1.09007 9.9048,3.65072 13.125,5.71875 3.2216,2.06668 6.6565,7.11781 7.625,11.21875 l 7.0313,29.75 c 0.9685,4.09959 0.8318,10.78334 -0.2813,14.84375 l -8.25,30.0625 c -1.1143,4.06177 -4.5986,9.67401 -7.75,12.46875 l -1.1874,1.03125 c -3.1514,2.7934 -8.5953,6.9988 -12.0938,9.3437 l -8.0625,5.4376 c -3.4985,2.3449 -8.6727,4.744 -11.4687,5.3437 -2.7948,0.5984 -8.4784,1.533 -12.6563,2.0625 l -17.0937,2.1562 c -4.178,0.5296 -11.0451,0.7717 -15.25,0.5313 l -12.0626,-0.6875 c -4.2035,-0.2418 -11.0844,-0.7344 -15.2812,-1.0938 l -18.9062,-1.625 c -4.1955,-0.3593 -10.3197,-2.7653 -13.625,-5.375 l -23.25,-18.37495 c -3.3054,-2.61104 -6.3913,-7.13808 -6.8438,-10.0625 -0.4539,-2.92577 -0.5634,-8.76921 -0.25,-12.96875 l 1.6875,-22.53125 c 0.3134,-4.19954 -0.07,-10.32083 -0.8437,-13.59375 -0.7754,-3.27292 -1.8936,-6.98721 -2.5,-8.28125 -0.6038,-1.29404 -0.5915,-5.77173 0.031,-9.9375 L 4562.156,904.75 c 0.6214,-4.16577 2.239,-8.65985 3.5938,-9.96875 1.3548,-1.30755 5.4768,-4.04463 9.1562,-6.09375 l 3.0626,-1.71875 c 3.6794,-2.05047 9.4463,-3.38884 12.8124,-2.96875 3.3675,0.41739 6.9872,1.22203 8.0313,1.78125 1.0441,0.56057 5.2839,0.4551 9.4375,-0.25 l 19.0625,-3.25 c 4.1523,-0.7051 10.4159,-1.25387 13.9063,-1.21875 z"
         transform="matrix(0.74031854,0,0,-0.74031854,-2340.6561,754.24116)"
         id="path3346" />
    </g>
  </g>
</svg>
