<?xml version="1.0" encoding="UTF-8" standalone="no"?>
<svg
   xmlns:dc="http://purl.org/dc/elements/1.1/"
   xmlns:cc="http://creativecommons.org/ns#"
   xmlns:rdf="http://www.w3.org/1999/02/22-rdf-syntax-ns#"
   xmlns:svg="http://www.w3.org/2000/svg"
   xmlns="http://www.w3.org/2000/svg"
   viewBox="0 0 167.49554 79.460548"
   height="79.460548"
   width="167.49554"
   xml:space="preserve"
   version="1.1"
   id="svg4155"><metadata
     id="metadata4161"><rdf:RDF><cc:Work
         rdf:about=""><dc:format>image/svg+xml</dc:format><dc:type
           rdf:resource="http://purl.org/dc/dcmitype/StillImage" /><dc:title></dc:title></cc:Work></rdf:RDF></metadata><defs
     id="defs4159" /><g
     transform="matrix(1.25,0,0,-1.25,0,79.460549)"
     id="g4163"><g
       id="g4165"><path
         id="path4167"
         style="fill:#ffb60a;fill-opacity:1;fill-rule:evenodd;stroke:none"
         d="m 80.199,47.565 c 0.008,0.121 0.008,0.269 0,0.328 -0.011,0.058 -0.035,0.207 -0.054,0.328 l -0.051,0.32 c -0.02,0.121 -0.055,0.32 -0.078,0.442 l -0.2,0.996 c -0.023,0.121 -0.082,0.273 -0.128,0.336 -0.051,0.066 -0.157,0.195 -0.239,0.285 l -0.015,0.015 c -0.082,0.09 -0.184,0.258 -0.227,0.375 l -0.269,0.735 c -0.043,0.113 -0.141,0.226 -0.223,0.246 -0.082,0.019 -0.246,0.027 -0.367,0.015 L 78.191,51.971 C 78.07,51.959 77.875,51.947 77.758,51.943 77.641,51.94 77.512,51.916 77.469,51.893 77.43,51.873 77.293,51.858 77.172,51.861 l -0.32,0.004 c -0.125,0.004 -0.301,0.035 -0.391,0.071 -0.09,0.039 -0.266,0.062 -0.387,0.05 l -0.34,-0.019 c -0.125,-0.008 -0.32,-0.051 -0.433,-0.094 L 75.02,51.772 c -0.118,-0.043 -0.293,-0.133 -0.391,-0.204 -0.098,-0.07 -0.188,-0.226 -0.199,-0.347 l -0.043,-0.465 c -0.012,-0.121 -0.035,-0.313 -0.055,-0.422 -0.02,-0.109 -0.043,-0.297 -0.055,-0.422 l -0.054,-0.664 c -0.012,-0.121 -0.02,-0.324 -0.016,-0.445 l 0.004,-0.383 c 0,-0.125 0,-0.297 -0.004,-0.383 0,-0.09 0.008,-0.262 0.016,-0.383 l 0.047,-0.582 c 0.007,-0.125 0.015,-0.324 0.015,-0.449 l -0.008,-1.074 c 0,-0.121 -0.004,-0.324 -0.011,-0.445 l -0.047,-1.2 C 74.211,43.779 74.203,43.58 74.195,43.455 L 74.191,43.44 c -0.007,-0.125 -0.003,-0.325 0.012,-0.45 l 0.07,-0.672 c 0.012,-0.121 0.02,-0.324 0.012,-0.445 L 74.238,41.104 C 74.23,40.983 74.219,40.783 74.211,40.658 l -0.02,-0.293 c -0.007,-0.121 0.004,-0.32 0.032,-0.441 l 0.007,-0.039 c 0.024,-0.121 0.141,-0.254 0.254,-0.297 l 0.59,-0.211 c 0.117,-0.043 0.313,-0.082 0.434,-0.086 l 0.101,-0.004 c 0.125,-0.008 0.293,-0.023 0.375,-0.035 0.086,-0.016 0.254,-0.016 0.375,-0.004 l 0.368,0.031 c 0.121,0.012 0.273,0.032 0.335,0.043 0.063,0.012 0.211,0.043 0.333,0.067 l 0.328,0.07 c 0.117,0.027 0.312,0.078 0.429,0.113 l 0.317,0.098 c 0.117,0.035 0.273,0.145 0.351,0.242 l 0.66,0.836 c 0.079,0.098 0.168,0.274 0.204,0.391 l 0.218,0.726 c 0.036,0.118 0.075,0.317 0.09,0.438 l 0.11,0.961 c 0.015,0.121 0.035,0.32 0.039,0.445 l 0.035,0.512 c 0.008,0.121 0.012,0.324 0.012,0.445 l -0.008,0.789 c 0,0.121 -0.008,0.324 -0.012,0.445 l -0.02,0.34 c -0.007,0.121 -0.007,0.325 0,0.446 l 0.051,0.879 z M 67.723,42.658 c -0.012,0 -0.008,0.102 0.004,0.223 l 0.066,0.738 c 0.012,0.125 0.008,0.321 -0.008,0.434 -0.012,0.117 -0.015,0.312 -0.004,0.433 l 0.012,0.125 c 0.012,0.122 0.031,0.313 0.047,0.426 0.012,0.11 0.023,0.25 0.023,0.309 0,0.058 0,0.207 -0.004,0.328 l 0,0.09 c -0.004,0.121 -0.007,0.265 -0.011,0.312 -0.004,0.051 -0.012,0.192 -0.016,0.317 l -0.008,0.172 c -0.008,0.121 -0.023,0.285 -0.035,0.359 -0.016,0.078 -0.023,0.238 -0.019,0.363 l 0.011,0.383 c 0.004,0.125 0.02,0.305 0.039,0.398 0.016,0.098 0.039,0.262 0.051,0.36 0.012,0.101 0.024,0.273 0.024,0.383 0,0.109 0,0.297 0,0.422 l 0,0.027 c 0,0.125 0,0.301 0,0.394 0,0.094 -0.008,0.258 -0.02,0.371 -0.008,0.114 -0.008,0.305 -0.004,0.426 l 0.016,0.239 c 0.004,0.121 0,0.316 -0.012,0.433 -0.012,0.117 -0.063,0.305 -0.105,0.422 l -0.067,0.152 c -0.043,0.118 -0.168,0.243 -0.277,0.278 -0.106,0.039 -0.293,0.058 -0.414,0.043 l -0.188,-0.024 c -0.121,-0.019 -0.238,-0.031 -0.258,-0.027 -0.023,0 -0.14,0.016 -0.261,0.031 l -0.114,0.016 c -0.121,0.015 -0.285,0.023 -0.367,0.015 -0.078,-0.004 -0.242,-0.019 -0.367,-0.031 l -0.215,-0.019 c -0.121,-0.008 -0.289,-0.024 -0.375,-0.036 -0.086,-0.007 -0.226,0.055 -0.32,0.137 l -0.266,0.235 c -0.093,0.082 -0.16,0.25 -0.152,0.371 l 0.07,0.949 c 0.008,0.125 0.016,0.305 0.02,0.398 0,0.098 -0.004,0.266 -0.012,0.371 -0.008,0.106 -0.027,0.293 -0.039,0.414 l -0.074,0.622 c -0.012,0.121 0.023,0.308 0.086,0.418 l 0.441,0.808 c 0.063,0.106 0.211,0.199 0.332,0.207 l 0.496,0.027 c 0.125,0.004 0.235,0.008 0.242,0.008 0.012,-0.004 0.121,-0.011 0.243,-0.019 l 0.722,-0.047 c 0.121,-0.008 0.321,0.004 0.442,0.023 0.117,0.02 0.293,0.035 0.382,0.035 0.094,0 0.27,-0.011 0.391,-0.027 l 0.172,-0.019 c 0.121,-0.016 0.32,-0.032 0.445,-0.039 l 0.395,-0.02 c 0.121,-0.004 0.324,-0.008 0.445,-0.008 l 1.883,0 c 0.125,0 0.324,0 0.449,0.004 l 1.223,0.027 c 0.125,0.004 0.328,0.004 0.449,0.004 l 0.586,0.004 c 0.121,0 0.324,0.012 0.445,0.02 l 0.309,0.031 c 0.121,0.012 0.324,0.012 0.445,0.004 l 0.117,-0.008 c 0.121,-0.012 0.325,-0.015 0.446,-0.015 l 0.508,0.011 c 0.121,0 0.324,-0.004 0.445,-0.011 l 0.258,-0.02 c 0.125,-0.008 0.324,-0.02 0.449,-0.023 l 0.508,-0.02 c 0.125,-0.004 0.324,-0.016 0.449,-0.02 l 0.336,-0.019 c 0.125,-0.004 0.324,-0.008 0.449,-0.004 l 0.516,0.012 c 0.125,0.004 0.328,0.004 0.449,0.008 0.125,0 0.328,-0.004 0.449,-0.012 l 0.043,-0.004 c 0.121,-0.008 0.32,-0.027 0.445,-0.047 l 0.375,-0.062 c 0.121,-0.02 0.321,-0.047 0.446,-0.063 l 0.07,-0.012 c 0.125,-0.015 0.32,-0.054 0.437,-0.093 l 0.915,-0.274 c 0.117,-0.035 0.234,-0.07 0.261,-0.078 0.024,-0.008 0.129,-0.07 0.231,-0.137 l 0.316,-0.195 c 0.106,-0.066 0.223,-0.145 0.262,-0.172 0.039,-0.023 0.144,-0.113 0.238,-0.195 l 0.668,-0.578 c 0.094,-0.082 0.215,-0.235 0.274,-0.344 l 0.519,-0.961 c 0.059,-0.105 0.133,-0.293 0.168,-0.41 l 0.309,-1.063 c 0.035,-0.117 0.078,-0.312 0.093,-0.433 l 0.122,-0.84 c 0.015,-0.121 0.031,-0.277 0.035,-0.348 0,-0.07 0.011,-0.23 0.027,-0.351 l 0.078,-0.692 c 0.012,-0.125 0.039,-0.324 0.055,-0.445 l 0.004,-0.055 c 0.019,-0.125 0.035,-0.324 0.043,-0.445 l 0.054,-1.059 c 0.004,-0.121 0.008,-0.324 0,-0.445 l -0.011,-0.297 c -0.004,-0.121 -0.004,-0.324 0,-0.445 L 86.98,46.08 c 0.008,-0.125 0.004,-0.324 -0.011,-0.445 l -0.028,-0.27 c -0.011,-0.121 -0.035,-0.32 -0.05,-0.445 l -0.02,-0.148 C 86.855,44.65 86.836,44.447 86.824,44.326 L 86.742,43.299 C 86.734,43.174 86.727,42.975 86.723,42.85 l 0,-0.145 c 0,-0.121 -0.02,-0.32 -0.039,-0.441 L 86.5,41.123 c -0.02,-0.121 -0.059,-0.32 -0.09,-0.437 l -0.074,-0.332 c -0.031,-0.118 -0.082,-0.313 -0.117,-0.43 L 85.91,38.858 C 85.875,38.74 85.805,38.553 85.754,38.44 L 85.621,38.15 C 85.566,38.037 85.477,37.861 85.414,37.756 L 85.043,37.123 C 84.98,37.018 84.906,36.897 84.879,36.85 84.852,36.803 84.742,36.713 84.637,36.65 l -0.051,-0.035 c -0.106,-0.066 -0.27,-0.183 -0.363,-0.261 l -0.094,-0.075 c -0.094,-0.078 -0.231,-0.207 -0.301,-0.289 -0.07,-0.078 -0.199,-0.195 -0.293,-0.261 -0.09,-0.067 -0.258,-0.164 -0.367,-0.215 l -0.07,-0.031 c -0.11,-0.051 -0.293,-0.137 -0.403,-0.192 L 82.562,35.225 C 82.453,35.17 82.336,35.104 82.301,35.08 82.266,35.053 82.152,34.986 82.043,34.928 l -0.148,-0.082 c -0.11,-0.063 -0.274,-0.121 -0.368,-0.137 -0.089,-0.016 -0.265,-0.039 -0.39,-0.047 l -0.078,-0.004 c -0.121,-0.008 -0.321,-0.031 -0.442,-0.05 l -0.855,-0.129 c -0.121,-0.02 -0.289,-0.043 -0.375,-0.055 -0.082,-0.012 -0.25,-0.008 -0.371,0.012 l -0.188,0.031 c -0.121,0.016 -0.312,0.031 -0.422,0.023 -0.109,-0.004 -0.277,-0.027 -0.375,-0.05 -0.097,-0.028 -0.273,-0.051 -0.398,-0.059 L 77.422,34.365 C 77.301,34.358 77.098,34.35 76.977,34.35 l -0.356,0 c -0.121,0 -0.324,0.004 -0.445,0.008 l -0.188,0.003 c -0.121,0.004 -0.324,0.004 -0.445,0.008 l -0.977,0 c -0.121,0 -0.324,0.012 -0.445,0.028 l -0.172,0.019 c -0.121,0.012 -0.32,0.004 -0.441,-0.019 l -0.051,-0.008 c -0.121,-0.024 -0.32,-0.039 -0.441,-0.035 l -0.168,0.007 c -0.125,0.004 -0.325,0.004 -0.45,0 L 72.023,34.346 C 71.902,34.338 71.699,34.33 71.578,34.322 l -0.695,-0.035 c -0.125,-0.008 -0.324,-0.012 -0.449,-0.008 l -0.598,0.008 c -0.125,0 -0.324,0.008 -0.449,0.012 l -0.434,0.016 c -0.121,0.003 -0.324,0.003 -0.445,-0.004 l -0.258,-0.02 c -0.121,-0.008 -0.305,-0.004 -0.406,0.004 -0.102,0.012 -0.278,0.016 -0.387,0.012 -0.113,-0.004 -0.305,-0.016 -0.426,-0.028 l -0.176,-0.011 c -0.121,-0.012 -0.32,-0.012 -0.445,-0.004 l -0.519,0.035 c -0.125,0.012 -0.325,0 -0.446,-0.02 l -0.187,-0.031 c -0.121,-0.019 -0.317,-0.012 -0.438,0.016 l -0.117,0.031 c -0.117,0.027 -0.308,0.094 -0.418,0.145 l -0.015,0.007 c -0.11,0.051 -0.258,0.176 -0.329,0.278 l -0.175,0.246 c -0.071,0.101 -0.114,0.285 -0.098,0.406 l 0.066,0.531 c 0.016,0.121 0.043,0.321 0.055,0.446 l 0.063,0.535 c 0.011,0.121 0.019,0.324 0.007,0.445 l -0.089,1.27 c -0.008,0.121 0.05,0.296 0.132,0.386 l 0.129,0.145 c 0.086,0.09 0.25,0.18 0.371,0.199 0.118,0.024 0.317,0.031 0.442,0.024 0.121,-0.008 0.32,-0.008 0.445,0.003 l 0.988,0.086 c 0.121,0.008 0.317,0.012 0.43,0.004 0.113,-0.008 0.258,-0.015 0.32,-0.015 0.063,0 0.18,0.078 0.254,0.175 l 0.184,0.231 c 0.078,0.098 0.148,0.273 0.156,0.398 l 0.074,1.039 c 0.008,0.121 0.024,0.325 0.028,0.446 0.007,0.121 0.015,0.32 0.015,0.445 l 0,0.262 c 0,0.125 -0.008,0.226 -0.015,0.226" /><path
         id="path4169"
         style="fill:#ffb60a;fill-opacity:1;fill-rule:evenodd;stroke:none"
         d="m 121.109,48.912 c -0.007,-0.121 -0.004,-0.293 0.008,-0.379 0.012,-0.086 0.102,-0.218 0.199,-0.293 l 0.68,-0.539 c 0.098,-0.074 0.277,-0.144 0.399,-0.156 l 0.554,-0.047 c 0.121,-0.012 0.321,-0.023 0.446,-0.031 l 0.351,-0.02 c 0.125,-0.007 0.324,0 0.445,0.016 l 0.5,0.062 c 0.121,0.016 0.289,0.043 0.371,0.059 0.083,0.02 0.231,0.09 0.333,0.156 l 0.238,0.16 c 0.101,0.067 0.262,0.192 0.351,0.274 l 0.036,0.027 c 0.093,0.082 0.195,0.246 0.226,0.367 l 0.242,0.879 c 0.032,0.118 0.035,0.313 0.008,0.434 l -0.207,0.867 c -0.027,0.121 -0.129,0.266 -0.223,0.328 -0.093,0.059 -0.265,0.137 -0.382,0.168 -0.118,0.031 -0.313,0.074 -0.434,0.094 l -0.586,0.102 c -0.121,0.019 -0.32,0.05 -0.441,0.066 l -0.383,0.051 c -0.121,0.015 -0.305,0.031 -0.41,0.031 -0.102,0 -0.282,-0.016 -0.403,-0.035 l -0.558,-0.094 c -0.121,-0.023 -0.246,-0.027 -0.278,-0.008 -0.031,0.016 -0.136,0.039 -0.234,0.051 -0.098,0.012 -0.266,-0.027 -0.375,-0.086 l -0.09,-0.051 c -0.105,-0.058 -0.226,-0.14 -0.265,-0.179 -0.039,-0.039 -0.086,-0.168 -0.106,-0.289 l -0.059,-0.395 c -0.019,-0.125 -0.019,-0.254 0,-0.293 0.016,-0.035 0.051,-0.144 0.075,-0.242 0.019,-0.094 0.031,-0.274 0.023,-0.395 l -0.051,-0.66 z m -6.14,-7.972 c 0.008,0 0.015,0.101 0.015,0.226 l 0.008,1.852 c 0,0.121 0.016,0.324 0.031,0.445 l 0.102,0.703 c 0.02,0.125 0.035,0.324 0.039,0.445 l 0.008,0.317 c 0,0.125 0.004,0.324 0.004,0.449 l 0,0.289 c 0,0.121 -0.008,0.324 -0.02,0.445 l -0.015,0.192 c -0.012,0.125 -0.02,0.273 -0.024,0.328 0,0.059 0,0.207 0.008,0.332 l 0.008,0.102 c 0.004,0.121 0.015,0.324 0.023,0.445 l 0.035,0.492 c 0.008,0.121 0.016,0.254 0.024,0.289 0.004,0.039 0.012,0.168 0.019,0.293 l 0.012,0.215 c 0.008,0.121 0.004,0.324 -0.004,0.445 l -0.008,0.117 c -0.007,0.125 -0.011,0.325 -0.011,0.45 l 0,0.027 c 0,0.125 0,0.301 -0.004,0.391 -0.004,0.093 -0.035,0.265 -0.074,0.382 l -0.09,0.266 c -0.039,0.117 -0.16,0.258 -0.266,0.316 l -0.262,0.141 c -0.105,0.059 -0.297,0.106 -0.418,0.106 l -0.136,0 c -0.121,0 -0.254,0.003 -0.289,0.007 -0.039,0.004 -0.168,0.008 -0.293,0.008 l -0.84,0 c -0.121,0 -0.227,0 -0.235,0 -0.004,0 -0.078,0.051 -0.164,0.11 -0.086,0.058 -0.187,0.203 -0.23,0.32 l -0.141,0.41 c -0.043,0.117 -0.074,0.289 -0.078,0.383 0,0.09 0.008,0.265 0.016,0.39 l 0.043,0.559 c 0.008,0.121 0.015,0.32 0.019,0.445 l 0,0.11 c 0.004,0.125 0.008,0.324 0.016,0.449 l 0.023,0.352 c 0.004,0.125 0.032,0.324 0.055,0.445 l 0.059,0.312 c 0.023,0.121 0.132,0.266 0.242,0.321 l 0.359,0.175 c 0.113,0.055 0.301,0.11 0.426,0.122 l 0.297,0.023 c 0.121,0.012 0.324,0.019 0.445,0.016 l 0.008,0 c 0.121,-0.004 0.32,-0.024 0.445,-0.039 l 0.387,-0.055 c 0.121,-0.016 0.32,-0.024 0.445,-0.012 l 0.039,0 c 0.121,0.012 0.325,0.024 0.446,0.031 l 0.277,0.016 c 0.125,0.004 0.285,0.012 0.363,0.008 0.075,0 0.235,0 0.36,0 l 0.804,0.004 c 0.125,0 0.246,0 0.274,0 0.027,0 0.148,0 0.273,0.004 l 0.574,0.007 c 0.122,0.004 0.325,0.004 0.446,0 l 0.695,-0.023 c 0.121,0 0.273,-0.008 0.336,-0.008 0.063,0 0.215,0 0.34,0.004 l 0.199,0.004 c 0.121,0.004 0.324,0.012 0.445,0.016 l 0.125,0 c 0.125,0.004 0.313,0.004 0.422,-0.004 0.11,-0.008 0.297,-0.02 0.422,-0.032 l 0.043,-0.003 c 0.125,-0.012 0.324,-0.016 0.449,-0.016 l 0.996,0.019 c 0.125,0 0.282,0.016 0.352,0.032 0.07,0.015 0.211,0.043 0.309,0.058 0.101,0.016 0.285,0.016 0.406,0 l 0.226,-0.027 c 0.125,-0.016 0.325,-0.023 0.446,-0.023 l 1.465,0.031 c 0.121,0.004 0.32,-0.016 0.441,-0.039 l 0.672,-0.141 c 0.121,-0.023 0.32,-0.055 0.441,-0.066 l 0.121,-0.016 c 0.121,-0.012 0.317,-0.051 0.438,-0.086 l 0.531,-0.152 c 0.117,-0.035 0.309,-0.098 0.426,-0.137 l 0.328,-0.117 c 0.113,-0.039 0.301,-0.117 0.41,-0.176 l 0.137,-0.07 c 0.109,-0.055 0.277,-0.168 0.371,-0.246 l 0.234,-0.203 c 0.094,-0.079 0.192,-0.165 0.215,-0.188 0.02,-0.023 0.094,-0.129 0.16,-0.23 l 0.34,-0.532 c 0.067,-0.105 0.164,-0.281 0.219,-0.39 l 0.582,-1.239 c 0.055,-0.109 0.113,-0.3 0.133,-0.421 l 0.027,-0.145 c 0.02,-0.121 0.043,-0.324 0.051,-0.445 l 0.012,-0.235 c 0.007,-0.125 0.007,-0.324 0,-0.449 l -0.004,-0.039 c -0.008,-0.121 -0.008,-0.324 0.004,-0.445 l 0.035,-0.387 c 0.008,-0.121 0.011,-0.262 0.004,-0.316 -0.008,-0.051 -0.032,-0.192 -0.051,-0.313 l -0.059,-0.398 c -0.019,-0.121 -0.058,-0.321 -0.09,-0.438 l -0.168,-0.644 c -0.031,-0.121 -0.089,-0.258 -0.132,-0.305 -0.043,-0.051 -0.145,-0.156 -0.227,-0.238 -0.082,-0.082 -0.219,-0.207 -0.305,-0.282 -0.086,-0.07 -0.222,-0.207 -0.304,-0.296 l -0.055,-0.059 c -0.082,-0.094 -0.207,-0.219 -0.273,-0.277 -0.071,-0.063 -0.207,-0.168 -0.309,-0.239 l -0.125,-0.082 c -0.102,-0.07 -0.258,-0.199 -0.344,-0.285 l -0.187,-0.187 c -0.086,-0.09 -0.184,-0.258 -0.215,-0.371 -0.031,-0.118 -0.043,-0.254 -0.027,-0.301 0.015,-0.047 0.117,-0.133 0.23,-0.184 l 0.242,-0.117 c 0.113,-0.055 0.297,-0.137 0.41,-0.188 l 0.106,-0.046 c 0.113,-0.047 0.258,-0.176 0.324,-0.278 l 0.508,-0.832 c 0.066,-0.101 0.141,-0.242 0.168,-0.304 0.027,-0.063 0.074,-0.211 0.105,-0.332 l 0.11,-0.43 c 0.031,-0.121 0.066,-0.285 0.074,-0.371 0.012,-0.086 0.016,-0.254 0.004,-0.375 l -0.039,-0.59 c -0.008,-0.121 0.011,-0.293 0.047,-0.375 0.031,-0.086 0.066,-0.219 0.078,-0.293 0.011,-0.074 0.062,-0.227 0.109,-0.34 l 0.145,-0.344 c 0.047,-0.113 0.179,-0.238 0.293,-0.273 0.113,-0.035 0.285,-0.125 0.379,-0.203 l 0.406,-0.324 c 0.097,-0.079 0.203,-0.219 0.238,-0.309 0.035,-0.094 0.063,-0.258 0.066,-0.359 0.004,-0.106 -0.003,-0.289 -0.019,-0.411 l -0.039,-0.339 c -0.016,-0.125 -0.02,-0.325 -0.012,-0.446 l 0.004,-0.097 c 0.012,-0.125 0.027,-0.325 0.043,-0.446 l 0.027,-0.269 C 134,35.768 134,35.565 133.988,35.443 l -0.047,-0.406 c -0.011,-0.121 -0.054,-0.32 -0.089,-0.437 l -0.016,-0.047 c -0.035,-0.117 -0.16,-0.246 -0.277,-0.285 l -0.11,-0.035 c -0.117,-0.04 -0.312,-0.086 -0.437,-0.098 l -0.18,-0.024 c -0.121,-0.015 -0.32,-0.027 -0.437,-0.031 -0.122,0 -0.278,0.008 -0.348,0.024 -0.07,0.011 -0.227,0.004 -0.348,-0.02 l -0.297,-0.059 c -0.121,-0.023 -0.316,-0.019 -0.437,0.012 -0.117,0.028 -0.301,0.067 -0.406,0.082 -0.102,0.012 -0.289,0.024 -0.411,0.02 l -0.214,-0.004 c -0.122,0 -0.325,-0.004 -0.446,-0.004 l -0.027,0 c -0.125,0 -0.324,-0.004 -0.449,-0.004 l -0.203,0 c -0.121,0 -0.309,0.059 -0.411,0.125 l -0.746,0.504 c -0.105,0.066 -0.211,0.148 -0.238,0.18 -0.027,0.031 -0.098,0.144 -0.16,0.25 l -0.285,0.488 c -0.063,0.105 -0.129,0.277 -0.149,0.383 -0.019,0.101 -0.043,0.289 -0.054,0.41 l -0.067,0.676 c -0.011,0.121 -0.008,0.324 0.008,0.445 l 0.008,0.051 c 0.015,0.121 0.027,0.324 0.031,0.445 l 0.004,0.445 c 0,0.121 0.012,0.321 0.027,0.446 l 0.082,0.707 c 0.016,0.121 0.012,0.281 -0.004,0.355 -0.015,0.074 -0.058,0.235 -0.085,0.352 l -0.036,0.133 c -0.031,0.121 -0.097,0.312 -0.144,0.421 l -0.09,0.204 c -0.047,0.113 -0.109,0.273 -0.137,0.355 -0.023,0.086 -0.109,0.234 -0.183,0.328 l -0.043,0.055 c -0.078,0.098 -0.219,0.207 -0.313,0.242 -0.094,0.035 -0.265,0.094 -0.383,0.133 l -0.039,0.012 c -0.117,0.039 -0.308,0.105 -0.422,0.152 l -0.109,0.047 c -0.113,0.047 -0.305,0.105 -0.426,0.133 l -0.152,0.035 c -0.117,0.023 -0.316,0.062 -0.438,0.082 l -0.046,0.008 c -0.125,0.023 -0.325,0.043 -0.446,0.046 l -0.039,0 c -0.121,0.004 -0.32,-0.003 -0.445,-0.019 l -0.219,-0.027 c -0.121,-0.016 -0.246,-0.02 -0.273,-0.004 -0.028,0.011 -0.149,0.047 -0.27,0.07 l -0.055,0.012 c -0.117,0.023 -0.308,-0.004 -0.417,-0.059 l -0.059,-0.031 c -0.109,-0.059 -0.238,-0.195 -0.285,-0.309 l -0.121,-0.285 c -0.047,-0.113 -0.114,-0.254 -0.149,-0.312 -0.039,-0.059 -0.09,-0.2 -0.117,-0.313 -0.027,-0.117 -0.043,-0.308 -0.035,-0.433 l 0.004,-0.055 c 0.008,-0.125 0.023,-0.324 0.035,-0.449 l 0.074,-0.817 c 0.012,-0.121 0.031,-0.25 0.047,-0.285 0.012,-0.035 0.109,-0.113 0.219,-0.176 l 0.133,-0.078 c 0.105,-0.058 0.293,-0.125 0.414,-0.14 l 0.011,-0.004 c 0.122,-0.016 0.321,-0.036 0.442,-0.039 0.117,0 0.316,-0.012 0.441,-0.024 l 0.555,-0.043 c 0.125,-0.012 0.289,-0.094 0.371,-0.187 l 0.297,-0.34 c 0.082,-0.094 0.176,-0.266 0.207,-0.387 l 0.07,-0.234 c 0.031,-0.117 0.059,-0.293 0.059,-0.391 -0.004,-0.098 -0.035,-0.273 -0.074,-0.391 l -0.086,-0.265 c -0.039,-0.117 -0.071,-0.227 -0.071,-0.242 -0.004,-0.02 -0.007,-0.133 -0.011,-0.254 l -0.024,-0.594 c -0.004,-0.125 -0.015,-0.324 -0.019,-0.449 l -0.02,-0.352 c -0.008,-0.125 -0.082,-0.297 -0.164,-0.383 -0.086,-0.089 -0.199,-0.168 -0.25,-0.179 -0.051,-0.012 -0.195,-0.028 -0.316,-0.032 l -0.176,-0.007 c -0.125,-0.008 -0.32,-0.039 -0.442,-0.071 l -0.421,-0.117 c -0.122,-0.035 -0.305,-0.078 -0.414,-0.094 -0.114,-0.019 -0.297,-0.007 -0.418,0.024 l -0.215,0.062 c -0.117,0.032 -0.278,0.086 -0.352,0.121 -0.078,0.036 -0.242,0.067 -0.363,0.067 l -0.051,0.004 c -0.125,0 -0.301,-0.004 -0.391,-0.016 -0.093,-0.012 -0.269,-0.015 -0.39,-0.012 l -0.469,0.02 c -0.121,0.004 -0.316,0.016 -0.43,0.023 -0.117,0.004 -0.312,0 -0.433,-0.015 l -0.207,-0.028 c -0.121,-0.015 -0.321,-0.043 -0.442,-0.058 l -0.023,0 c -0.121,-0.016 -0.32,-0.02 -0.445,-0.004 l -0.036,0.004 c -0.121,0.012 -0.289,0.008 -0.375,-0.016 -0.085,-0.023 -0.253,-0.043 -0.378,-0.039 l -0.227,0.004 c -0.125,0 -0.324,0.004 -0.449,0.012 l -0.375,0.015 c -0.125,0.008 -0.239,0.004 -0.258,-0.004 -0.02,-0.007 -0.137,-0.019 -0.258,-0.027 l -0.519,-0.035 c -0.121,-0.008 -0.325,-0.02 -0.446,-0.023 l -0.148,-0.008 c -0.125,-0.004 -0.32,-0.008 -0.438,-0.004 -0.121,0.004 -0.316,0.004 -0.437,0 l -0.129,0 c -0.125,-0.004 -0.324,0.008 -0.445,0.019 l -0.012,0 c -0.121,0.012 -0.293,0.098 -0.375,0.184 l -0.195,0.207 c -0.086,0.09 -0.172,0.262 -0.192,0.383 l -0.054,0.34 c -0.02,0.121 -0.012,0.261 0.015,0.312 0.024,0.047 0.063,0.184 0.082,0.297 0.02,0.113 0.031,0.309 0.031,0.43 l -0.003,0.066 c 0,0.121 -0.004,0.324 -0.008,0.445 l -0.008,0.247 c -0.004,0.121 -0.004,0.324 0,0.445 l 0.016,0.605 c 0.003,0.121 0.011,0.266 0.019,0.317 0.008,0.054 0.063,0.168 0.121,0.258 0.055,0.085 0.192,0.207 0.297,0.269 l 0.215,0.121 c 0.105,0.063 0.293,0.11 0.418,0.11 l 0.027,0 c 0.121,0 0.317,-0.012 0.426,-0.028 0.113,-0.012 0.273,-0.023 0.359,-0.019 0.09,0 0.262,0.007 0.383,0.015 l 0.395,0.02 c 0.121,0.008 0.242,0.031 0.265,0.051 0.024,0.019 0.086,0.128 0.133,0.242 l 0.242,0.562 c 0.051,0.114 0.094,0.309 0.102,0.43 l 0.019,0.336 c 0.008,0.121 0.02,0.223 0.028,0.223" /><path
         id="path4171"
         style="fill:#ffb60a;fill-opacity:1;fill-rule:evenodd;stroke:none"
         d="m 96.273,42.756 c 0.02,-0.121 0.051,-0.32 0.079,-0.438 l 0.136,-0.64 c 0.024,-0.121 0.067,-0.301 0.094,-0.395 0.023,-0.097 0.074,-0.269 0.113,-0.386 L 96.77,40.67 c 0.035,-0.117 0.125,-0.293 0.199,-0.395 l 0.312,-0.437 c 0.071,-0.098 0.211,-0.234 0.309,-0.301 0.101,-0.066 0.265,-0.152 0.367,-0.195 0.105,-0.039 0.285,-0.094 0.406,-0.121 l 0.364,-0.074 c 0.121,-0.024 0.234,-0.047 0.25,-0.047 0.015,0 0.128,0.004 0.253,0.011 l 0.399,0.016 c 0.121,0.004 0.32,0.023 0.441,0.043 l 0.071,0.012 c 0.121,0.019 0.304,0.09 0.41,0.156 l 0.558,0.352 c 0.106,0.066 0.258,0.195 0.34,0.285 l 0.285,0.316 c 0.082,0.09 0.192,0.258 0.239,0.371 L 102,40.729 c 0.047,0.113 0.102,0.308 0.121,0.429 l 0.082,0.489 c 0.02,0.121 0.035,0.304 0.039,0.41 0,0.101 0.012,0.277 0.016,0.39 0.008,0.11 0.015,0.278 0.019,0.371 0,0.094 0.004,0.27 0.008,0.395 l 0.031,1.047 c 0.004,0.121 0.008,0.324 0.012,0.449 l 0.012,0.594 c 0.004,0.121 0.004,0.262 0,0.308 -0.004,0.047 -0.016,0.184 -0.031,0.309 l -0.016,0.137 c -0.012,0.121 -0.016,0.324 -0.008,0.445 l 0.012,0.176 c 0.008,0.121 0.019,0.289 0.023,0.367 0,0.082 0.012,0.25 0.02,0.371 l 0.008,0.125 c 0.007,0.121 0.007,0.297 0,0.383 -0.008,0.09 -0.024,0.262 -0.036,0.383 l -0.05,0.554 c -0.012,0.122 -0.028,0.289 -0.039,0.372 -0.008,0.082 -0.024,0.25 -0.032,0.375 l -0.019,0.281 c -0.008,0.121 -0.055,0.308 -0.106,0.418 -0.05,0.109 -0.168,0.265 -0.254,0.351 l -0.601,0.582 c -0.09,0.082 -0.199,0.168 -0.246,0.184 -0.051,0.016 -0.184,0.059 -0.301,0.094 l -0.207,0.058 c -0.117,0.035 -0.266,0.086 -0.328,0.11 -0.067,0.027 -0.195,0.078 -0.293,0.121 -0.094,0.039 -0.274,0.074 -0.398,0.078 l -0.161,0.004 c -0.125,0.004 -0.312,-0.043 -0.418,-0.102 l -0.031,-0.019 c -0.105,-0.059 -0.289,-0.137 -0.41,-0.172 L 97.777,51.408 C 97.66,51.373 97.496,51.272 97.41,51.182 l -0.398,-0.426 c -0.082,-0.09 -0.188,-0.258 -0.231,-0.371 l -0.133,-0.363 c -0.043,-0.118 -0.093,-0.309 -0.109,-0.434 l -0.078,-0.543 c -0.016,-0.121 -0.031,-0.27 -0.031,-0.328 0,-0.059 -0.012,-0.207 -0.024,-0.332 l -0.035,-0.367 c -0.012,-0.125 -0.027,-0.293 -0.035,-0.379 -0.008,-0.082 -0.031,-0.25 -0.051,-0.371 l -0.004,-0.032 c -0.019,-0.121 -0.031,-0.32 -0.027,-0.441 l 0.019,-0.539 c 0.004,-0.121 0.016,-0.324 0.02,-0.445 L 96.34,44.83 c 0.008,-0.121 0,-0.289 -0.02,-0.371 -0.015,-0.082 -0.047,-0.25 -0.07,-0.371 l -0.047,-0.254 c -0.023,-0.121 -0.031,-0.32 -0.012,-0.445 l 0.082,-0.633 z m 1.77,14.656 c 0.117,0.035 0.309,0.055 0.434,0.043 l 0.816,-0.086 c 0.125,-0.015 0.324,-0.015 0.445,-0.004 l 0.059,0.004 c 0.121,0.012 0.32,0.02 0.441,0.016 0.121,-0.004 0.321,-0.02 0.442,-0.035 l 0.5,-0.059 c 0.121,-0.016 0.316,-0.055 0.437,-0.086 l 0.844,-0.215 c 0.117,-0.031 0.316,-0.074 0.437,-0.093 l 0.137,-0.024 c 0.121,-0.019 0.317,-0.07 0.434,-0.109 l 0.191,-0.071 c 0.117,-0.039 0.305,-0.117 0.414,-0.171 l 0.078,-0.036 c 0.11,-0.054 0.266,-0.117 0.348,-0.136 0.082,-0.024 0.238,-0.086 0.348,-0.137 l 0.32,-0.156 c 0.113,-0.051 0.234,-0.117 0.273,-0.149 0.039,-0.027 0.141,-0.121 0.223,-0.211 l 0.781,-0.808 c 0.086,-0.086 0.227,-0.231 0.313,-0.317 l 0.25,-0.25 c 0.086,-0.086 0.226,-0.226 0.312,-0.316 l 0.059,-0.059 c 0.086,-0.086 0.219,-0.234 0.297,-0.332 l 0.039,-0.05 c 0.074,-0.094 0.176,-0.27 0.223,-0.383 l 0.261,-0.649 c 0.047,-0.113 0.113,-0.304 0.149,-0.422 l 0.113,-0.394 c 0.035,-0.117 0.098,-0.277 0.144,-0.352 0.047,-0.074 0.114,-0.234 0.153,-0.347 l 0.082,-0.25 c 0.035,-0.118 0.066,-0.313 0.066,-0.438 l 0,-0.086 c 0.004,-0.125 0.008,-0.324 0.012,-0.449 l 0.023,-0.453 c 0.004,-0.125 0.024,-0.324 0.043,-0.445 l 0.055,-0.321 c 0.02,-0.121 0.043,-0.273 0.051,-0.336 0.008,-0.062 0.012,-0.215 0.012,-0.34 l 0.003,-2.023 c 0,-0.121 0.02,-0.289 0.04,-0.371 0.019,-0.078 0.046,-0.246 0.058,-0.367 l 0.012,-0.141 c 0.012,-0.125 0.019,-0.246 0.015,-0.269 0,-0.028 0.004,-0.149 0.016,-0.27 l 0.039,-0.461 c 0.012,-0.125 0.008,-0.324 -0.008,-0.445 l -0.035,-0.246 c -0.015,-0.121 -0.043,-0.321 -0.062,-0.442 l -0.118,-0.8 c -0.015,-0.122 -0.023,-0.325 -0.015,-0.446 l 0,-0.039 c 0.008,-0.121 0.008,-0.281 0,-0.355 -0.012,-0.075 -0.027,-0.176 -0.039,-0.227 -0.012,-0.055 -0.035,-0.195 -0.051,-0.316 l -0.094,-0.645 c -0.015,-0.121 -0.047,-0.32 -0.062,-0.441 l -0.024,-0.149 c -0.019,-0.125 -0.062,-0.32 -0.097,-0.437 l -0.149,-0.481 c -0.035,-0.121 -0.105,-0.254 -0.156,-0.296 -0.047,-0.047 -0.145,-0.168 -0.219,-0.266 l -0.152,-0.219 c -0.07,-0.101 -0.168,-0.262 -0.215,-0.359 -0.047,-0.098 -0.125,-0.254 -0.172,-0.344 -0.051,-0.094 -0.152,-0.25 -0.226,-0.348 l -0.532,-0.695 c -0.074,-0.098 -0.148,-0.187 -0.164,-0.203 -0.015,-0.012 -0.109,-0.086 -0.203,-0.164 l -0.515,-0.414 c -0.094,-0.078 -0.192,-0.156 -0.219,-0.176 -0.024,-0.02 -0.121,-0.094 -0.223,-0.168 l -0.41,-0.312 c -0.098,-0.075 -0.273,-0.172 -0.387,-0.219 l -0.98,-0.387 c -0.117,-0.043 -0.305,-0.117 -0.418,-0.16 l -0.278,-0.106 c -0.117,-0.043 -0.246,-0.078 -0.289,-0.078 -0.043,0.004 -0.168,-0.015 -0.273,-0.035 -0.109,-0.023 -0.285,-0.043 -0.395,-0.047 -0.105,-0.004 -0.296,-0.011 -0.417,-0.019 l -0.051,0 c -0.121,-0.008 -0.325,-0.012 -0.446,-0.012 l -0.074,0 c -0.121,0 -0.289,0.008 -0.375,0.02 -0.082,0.007 -0.25,0.011 -0.375,0 l -0.277,-0.02 c -0.121,-0.008 -0.324,-0.019 -0.445,-0.023 l -0.434,-0.012 c -0.121,-0.004 -0.293,0.004 -0.375,0.012 -0.086,0.011 -0.227,0.023 -0.316,0.027 -0.086,0.004 -0.258,0.012 -0.383,0.016 l -0.075,0.003 c -0.124,0.008 -0.324,0.012 -0.449,0.012 l -0.422,0 c -0.125,0 -0.269,0.012 -0.328,0.02 -0.054,0.011 -0.199,0.043 -0.32,0.074 l -0.891,0.215 c -0.121,0.031 -0.312,0.09 -0.425,0.137 l -0.063,0.023 c -0.113,0.043 -0.305,0.113 -0.422,0.152 l -0.062,0.02 c -0.114,0.039 -0.301,0.117 -0.41,0.176 l -0.364,0.183 c -0.109,0.059 -0.289,0.149 -0.394,0.207 l -0.817,0.426 c -0.109,0.059 -0.207,0.109 -0.218,0.109 -0.008,0.004 -0.106,0.051 -0.219,0.106 l -0.242,0.117 c -0.11,0.055 -0.254,0.184 -0.317,0.289 l -0.273,0.434 c -0.063,0.105 -0.176,0.269 -0.25,0.371 l -0.035,0.043 c -0.075,0.097 -0.18,0.219 -0.239,0.269 -0.054,0.051 -0.16,0.172 -0.234,0.266 l -0.027,0.031 c -0.075,0.098 -0.188,0.258 -0.25,0.36 -0.063,0.101 -0.141,0.277 -0.176,0.394 l -0.235,0.762 c -0.039,0.117 -0.089,0.312 -0.121,0.429 l -0.117,0.481 c -0.031,0.121 -0.074,0.316 -0.094,0.437 l -0.035,0.188 c -0.023,0.121 -0.035,0.25 -0.031,0.285 0.004,0.035 -0.016,0.164 -0.043,0.285 l -0.008,0.032 c -0.031,0.121 -0.066,0.277 -0.086,0.351 -0.019,0.074 -0.043,0.234 -0.05,0.359 l -0.04,0.645 c -0.007,0.125 -0.015,0.316 -0.019,0.43 0,0.113 -0.004,0.308 -0.008,0.429 l 0,0.067 c 0,0.125 0.008,0.324 0.02,0.449 l 0.007,0.059 c 0.012,0.121 0.032,0.32 0.043,0.445 l 0.008,0.086 c 0.016,0.121 0.02,0.32 0.016,0.445 l -0.012,0.203 c -0.004,0.121 -0.015,0.317 -0.023,0.434 -0.008,0.117 0.004,0.312 0.019,0.433 l 0.059,0.399 c 0.019,0.121 0.039,0.32 0.043,0.445 l 0.008,0.156 c 0.007,0.125 0.023,0.305 0.035,0.407 0.015,0.097 0.027,0.265 0.035,0.371 0.004,0.105 0,0.222 -0.004,0.258 -0.008,0.035 -0.004,0.168 0.012,0.289 l 0.144,1.328 c 0.016,0.121 0.039,0.324 0.059,0.445 l 0.137,0.934 c 0.019,0.121 0.062,0.316 0.097,0.437 l 0.028,0.086 c 0.035,0.117 0.089,0.309 0.125,0.43 l 0.234,0.82 c 0.035,0.117 0.109,0.301 0.172,0.41 l 0.14,0.25 c 0.059,0.106 0.157,0.282 0.215,0.391 l 0.051,0.09 c 0.063,0.109 0.125,0.226 0.141,0.265 0.015,0.039 0.082,0.157 0.144,0.262 l 0.028,0.043 c 0.062,0.106 0.164,0.25 0.226,0.316 0.059,0.071 0.168,0.176 0.235,0.239 0.07,0.062 0.179,0.152 0.242,0.199 0.066,0.047 0.203,0.137 0.304,0.203 l 0.356,0.231 c 0.101,0.066 0.269,0.179 0.371,0.246 l 0.457,0.312 c 0.102,0.067 0.273,0.172 0.383,0.227 l 0.215,0.113 c 0.109,0.059 0.293,0.137 0.41,0.18 l 1.051,0.363 c 0.113,0.039 0.308,0.098 0.425,0.133 l 0.196,0.051 c 0.117,0.031 0.316,0.07 0.437,0.089 l 0.531,0.079 c 0.122,0.015 0.321,0.058 0.438,0.089 l 0.031,0.008 c 0.121,0.031 0.313,0.086 0.426,0.125" /><path
         id="path4173"
         style="fill:#ffb60a;fill-opacity:1;fill-rule:evenodd;stroke:none"
         d="m 36.043,36.803 c -0.023,0.121 -0.035,0.32 -0.027,0.441 l 0,0.059 c 0.007,0.125 0.015,0.308 0.015,0.414 0.004,0.101 -0.015,0.285 -0.043,0.406 l -0.058,0.285 c -0.028,0.121 -0.075,0.317 -0.11,0.434 l -0.047,0.16 c -0.035,0.117 -0.082,0.262 -0.105,0.324 -0.023,0.063 -0.133,0.153 -0.246,0.203 l -0.234,0.106 c -0.114,0.051 -0.305,0.094 -0.43,0.094 l -0.067,0.004 c -0.121,0 -0.324,0.003 -0.445,0.003 l -0.148,-0.003 c -0.125,0 -0.325,-0.008 -0.446,-0.016 l -0.058,-0.004 c -0.125,-0.008 -0.324,-0.004 -0.446,0.012 l -0.21,0.023 c -0.122,0.012 -0.297,0.09 -0.391,0.168 l -0.516,0.438 c -0.093,0.078 -0.168,0.246 -0.16,0.367 l 0.024,0.578 c 0.003,0.125 0.046,0.316 0.089,0.434 l 0,0.003 c 0.047,0.114 0.098,0.305 0.118,0.43 l 0.003,0.039 c 0.02,0.121 0.051,0.32 0.075,0.442 l 0.031,0.148 c 0.023,0.121 0.047,0.289 0.051,0.371 0.004,0.082 -0.016,0.234 -0.043,0.344 -0.028,0.105 -0.078,0.265 -0.114,0.355 -0.035,0.094 -0.089,0.227 -0.117,0.305 -0.031,0.074 -0.058,0.238 -0.066,0.359 l -0.016,0.243 c -0.008,0.121 -0.008,0.273 -0.004,0.336 0.004,0.062 0.012,0.187 0.016,0.273 0.004,0.086 0.012,0.254 0.012,0.379 l 0,0.008 c 0.004,0.121 0.015,0.289 0.023,0.367 0.008,0.078 0.008,0.246 0,0.367 l -0.015,0.238 c -0.004,0.121 -0.032,0.321 -0.051,0.442 l -0.004,0.011 c -0.024,0.122 -0.051,0.321 -0.063,0.446 l -0.05,0.472 c -0.012,0.125 -0.036,0.325 -0.051,0.446 l -0.039,0.289 c -0.016,0.121 -0.043,0.289 -0.067,0.367 -0.019,0.082 -0.027,0.25 -0.015,0.371 l 0.054,0.555 c 0.012,0.125 0.036,0.324 0.047,0.445 l 0.051,0.461 c 0.012,0.125 0.02,0.309 0.016,0.41 0,0.102 0.046,0.266 0.113,0.367 0.066,0.098 0.219,0.172 0.34,0.161 l 0.293,-0.032 c 0.121,-0.011 0.32,-0.019 0.445,-0.011 l 0.086,0.003 c 0.125,0.004 0.324,0.024 0.445,0.043 l 0.274,0.051 c 0.125,0.02 0.32,0.02 0.441,0 l 0.031,-0.004 c 0.121,-0.019 0.313,0.004 0.422,0.051 0.114,0.047 0.274,0.137 0.356,0.199 0.086,0.063 0.195,0.203 0.242,0.317 l 0.117,0.254 c 0.051,0.113 0.078,0.304 0.063,0.425 l -0.075,0.571 c -0.015,0.121 -0.043,0.32 -0.054,0.441 l -0.071,0.574 c -0.015,0.121 -0.023,0.325 -0.023,0.446 l 0.019,1.351 c 0.004,0.121 -0.054,0.305 -0.125,0.406 l -0.078,0.11 c -0.07,0.097 -0.203,0.191 -0.293,0.207 -0.089,0.012 -0.238,0.012 -0.328,-0.004 -0.094,-0.012 -0.265,-0.02 -0.39,-0.016 l -0.625,0.032 c -0.121,0.003 -0.293,-0.004 -0.375,-0.016 -0.086,-0.016 -0.2,-0.027 -0.254,-0.027 -0.059,0 -0.2,0.011 -0.321,0.019 -0.117,0.012 -0.316,0.027 -0.437,0.039 l -0.262,0.024 c -0.125,0.011 -0.324,0.004 -0.445,-0.016 l -0.211,-0.031 c -0.121,-0.02 -0.281,-0.028 -0.356,-0.02 -0.074,0.008 -0.238,0.02 -0.359,0.024 l -0.516,0.031 c -0.125,0.008 -0.324,0.016 -0.449,0.016 l -0.437,0.003 c -0.125,0 -0.324,-0.007 -0.449,-0.023 l -0.157,-0.016 c -0.121,-0.015 -0.261,-0.023 -0.312,-0.023 -0.051,0.004 -0.196,0 -0.317,0 l -0.039,0 c -0.125,0 -0.312,-0.043 -0.422,-0.094 -0.105,-0.047 -0.246,-0.074 -0.308,-0.058 -0.067,0.015 -0.219,0.039 -0.34,0.054 l -0.086,0.012 c -0.121,0.016 -0.254,0.023 -0.297,0.012 -0.039,-0.008 -0.062,-0.016 -0.051,-0.016 0.016,0.004 0.032,0.004 0.036,0 0.007,0 0.054,-0.023 0.101,-0.047 0.051,-0.019 0.027,-0.023 -0.055,0 -0.078,0.02 -0.132,0.039 -0.121,0.043 0.008,0 -0.082,-0.004 -0.207,-0.015 L 25.844,57.26 c -0.125,-0.012 -0.282,-0.07 -0.352,-0.133 -0.074,-0.062 -0.23,-0.113 -0.355,-0.113 l -0.114,0 c -0.121,0 -0.324,0.008 -0.445,0.019 l -1.25,0.11 c -0.121,0.007 -0.305,-0.039 -0.41,-0.106 L 22.32,56.647 C 22.215,56.576 22.082,56.436 22.023,56.326 L 21.871,56.053 C 21.809,55.947 21.707,55.772 21.645,55.666 L 20.871,54.4 C 20.809,54.295 20.727,54.115 20.688,53.998 L 20.676,53.967 C 20.637,53.85 20.578,53.69 20.539,53.611 20.504,53.533 20.426,53.377 20.371,53.272 l -0.105,-0.196 c -0.059,-0.109 -0.153,-0.289 -0.207,-0.398 l -0.305,-0.574 c -0.059,-0.11 -0.137,-0.293 -0.176,-0.411 L 19.391,51.15 C 19.352,51.033 19.273,50.854 19.219,50.752 19.164,50.65 19.074,50.479 19.02,50.365 l -0.469,-0.929 c -0.055,-0.11 -0.145,-0.289 -0.196,-0.403 l -0.007,-0.011 c -0.051,-0.114 -0.188,-0.235 -0.305,-0.27 l -0.004,0 c -0.117,-0.035 -0.277,-0.012 -0.359,0.059 -0.082,0.066 -0.172,0.156 -0.196,0.199 -0.027,0.043 -0.086,0.168 -0.132,0.285 l -0.184,0.441 c -0.047,0.118 -0.129,0.297 -0.188,0.407 l -0.246,0.488 c -0.058,0.109 -0.129,0.266 -0.16,0.344 -0.031,0.078 -0.097,0.234 -0.148,0.347 l -0.141,0.332 c -0.047,0.114 -0.121,0.301 -0.156,0.418 l -0.203,0.602 c -0.035,0.117 -0.09,0.301 -0.114,0.406 -0.027,0.106 -0.078,0.285 -0.117,0.403 l -0.136,0.421 c -0.036,0.118 -0.102,0.274 -0.149,0.344 -0.043,0.07 -0.133,0.215 -0.203,0.317 l -0.004,0.007 c -0.07,0.102 -0.156,0.282 -0.195,0.399 l -0.25,0.746 c -0.039,0.117 -0.074,0.223 -0.074,0.234 -0.004,0.008 -0.067,0.098 -0.145,0.196 l -0.418,0.539 c -0.078,0.097 -0.238,0.179 -0.363,0.179 l -1.25,0.035 c -0.121,0.004 -0.324,0.024 -0.446,0.043 l -0.73,0.129 c -0.121,0.02 -0.32,0.024 -0.441,0.008 l -0.024,-0.004 c -0.121,-0.015 -0.305,-0.015 -0.41,0.004 -0.102,0.016 -0.285,0.016 -0.406,0 L 9.93,57.065 c -0.121,-0.02 -0.219,-0.02 -0.219,-0.004 0,0.015 -0.102,0.027 -0.227,0.023 L 8.828,57.072 C 8.707,57.068 8.555,57.068 8.492,57.068 c -0.062,0 -0.215,0.008 -0.34,0.012 L 7.461,57.1 c -0.125,0.004 -0.324,0.004 -0.449,0 L 6.438,57.092 c -0.122,-0.004 -0.247,-0.004 -0.27,-0.004 -0.027,0 -0.152,0 -0.273,0 L 5.09,57.084 c -0.125,0 -0.285,0 -0.363,0 -0.075,0.004 -0.235,0 -0.36,-0.008 L 4.09,57.061 C 3.965,57.053 3.766,57.041 3.641,57.029 l -0.039,0 C 3.48,57.018 3.281,57.025 3.16,57.041 l -0.39,0.055 c -0.122,0.015 -0.321,0.035 -0.446,0.039 l -0.004,0 C 2.195,57.139 1.996,57.131 1.871,57.119 L 1.574,57.096 C 1.453,57.084 1.262,57.029 1.152,56.975 L 0.793,56.799 C 0.684,56.744 0.574,56.6 0.551,56.479 L 0.488,56.166 C 0.465,56.045 0.441,55.846 0.434,55.721 L 0.414,55.369 C 0.406,55.244 0.398,55.045 0.398,54.92 L 0.395,54.811 c 0,-0.125 -0.012,-0.325 -0.02,-0.446 L 0.336,53.807 C 0.328,53.682 0.32,53.506 0.32,53.416 c 0,-0.094 0.035,-0.266 0.075,-0.383 l 0.144,-0.41 c 0.039,-0.117 0.145,-0.262 0.231,-0.32 0.085,-0.059 0.16,-0.11 0.164,-0.11 0.004,0 0.109,0 0.234,0 l 0.84,0 c 0.121,0 0.254,-0.003 0.289,-0.007 0.039,-0.004 0.168,-0.008 0.293,-0.008 l 0.133,0.004 c 0.125,0 0.312,-0.051 0.422,-0.11 l 0.257,-0.14 c 0.11,-0.059 0.231,-0.199 0.27,-0.317 L 3.758,51.35 c 0.039,-0.117 0.074,-0.289 0.078,-0.379 0,-0.094 0.004,-0.27 0.004,-0.395 l 0,-0.027 c 0,-0.125 0.004,-0.324 0.012,-0.449 L 3.859,49.983 C 3.867,49.861 3.867,49.662 3.863,49.537 L 3.852,49.322 C 3.844,49.197 3.832,49.068 3.828,49.029 3.824,48.994 3.812,48.861 3.805,48.74 L 3.773,48.248 C 3.766,48.127 3.754,47.924 3.746,47.803 L 3.742,47.701 C 3.734,47.576 3.73,47.428 3.734,47.369 c 0,-0.054 0.012,-0.203 0.024,-0.328 L 3.773,46.85 c 0.012,-0.121 0.02,-0.325 0.02,-0.446 l 0,-0.289 c 0,-0.121 -0.004,-0.324 -0.008,-0.449 L 3.777,45.35 c 0,-0.121 -0.019,-0.321 -0.035,-0.446 L 3.641,44.201 C 3.625,44.08 3.609,43.877 3.609,43.756 L 3.602,41.904 c 0,-0.125 -0.008,-0.226 -0.016,-0.226 -0.008,0 -0.02,-0.102 -0.027,-0.223 L 3.539,41.119 C 3.531,40.998 3.484,40.803 3.438,40.693 L 3.195,40.127 C 3.145,40.014 3.086,39.904 3.062,39.885 3.039,39.865 2.918,39.842 2.793,39.834 L 2.402,39.815 C 2.277,39.807 2.105,39.799 2.02,39.799 1.934,39.795 1.77,39.807 1.66,39.818 1.547,39.834 1.355,39.846 1.234,39.846 l -0.027,0 c -0.125,0 -0.312,-0.047 -0.418,-0.11 L 0.574,39.615 C 0.465,39.553 0.332,39.432 0.273,39.346 0.219,39.256 0.164,39.143 0.156,39.092 0.148,39.037 0.137,38.897 0.137,38.772 L 0.121,38.166 c -0.004,-0.121 -0.004,-0.324 0,-0.445 L 0.125,37.475 C 0.129,37.354 0.133,37.15 0.137,37.029 l 0,-0.066 C 0.141,36.842 0.125,36.647 0.109,36.533 0.09,36.42 0.051,36.283 0.023,36.236 -0.004,36.186 -0.008,36.045 0.012,35.924 l 0.054,-0.34 c 0.02,-0.121 0.102,-0.293 0.188,-0.383 l 0.195,-0.203 c 0.086,-0.09 0.254,-0.176 0.379,-0.187 l 0.008,0 c 0.125,-0.012 0.324,-0.024 0.449,-0.02 l 0.125,0 c 0.125,0.004 0.32,0.004 0.438,0 0.117,-0.004 0.316,0 0.437,0.004 l 0.153,0.008 c 0.121,0.004 0.324,0.015 0.445,0.023 l 0.515,0.035 c 0.125,0.008 0.243,0.02 0.258,0.028 0.02,0.008 0.137,0.011 0.258,0.004 l 0.379,-0.016 c 0.121,-0.004 0.324,-0.012 0.445,-0.012 l 0.231,-0.004 c 0.121,0 0.293,0.016 0.379,0.039 0.082,0.024 0.254,0.028 0.375,0.016 l 0.035,-0.004 c 0.121,-0.015 0.32,-0.012 0.445,0.004 l 0.02,0 c 0.125,0.016 0.324,0.043 0.445,0.059 l 0.207,0.027 c 0.121,0.016 0.316,0.023 0.43,0.016 0.117,-0.008 0.312,-0.02 0.433,-0.024 l 0.469,-0.019 c 0.121,-0.004 0.297,0 0.387,0.011 0.094,0.012 0.269,0.016 0.39,0.016 l 0.051,-0.004 c 0.125,0 0.289,-0.031 0.363,-0.066 0.079,-0.035 0.235,-0.09 0.356,-0.121 l 0.215,-0.063 c 0.117,-0.031 0.304,-0.043 0.414,-0.023 0.109,0.015 0.297,0.058 0.414,0.093 l 0.426,0.118 c 0.117,0.031 0.316,0.062 0.437,0.07 l 0.18,0.008 c 0.121,0.004 0.265,0.019 0.316,0.031 0.051,0.012 0.164,0.09 0.246,0.18 0.086,0.086 0.16,0.258 0.168,0.383 l 0.016,0.351 c 0.008,0.125 0.016,0.324 0.023,0.449 l 0.024,0.594 c 0.004,0.121 0.008,0.238 0.008,0.254 0.004,0.016 0.035,0.125 0.074,0.242 l 0.086,0.266 c 0.039,0.117 0.07,0.293 0.07,0.39 0.004,0.098 -0.023,0.274 -0.059,0.391 l -0.066,0.234 c -0.035,0.121 -0.129,0.293 -0.207,0.387 l -0.297,0.34 c -0.082,0.094 -0.25,0.176 -0.371,0.187 l -0.559,0.043 c -0.121,0.012 -0.32,0.024 -0.441,0.028 -0.117,0 -0.316,0.019 -0.437,0.035 l -0.016,0.004 c -0.121,0.015 -0.309,0.082 -0.414,0.14 l -0.133,0.079 c -0.105,0.062 -0.203,0.14 -0.219,0.175 -0.011,0.036 -0.031,0.164 -0.043,0.286 L 9.535,41.299 C 9.523,41.424 9.508,41.623 9.5,41.748 l -0.004,0.055 c -0.012,0.125 0.004,0.316 0.035,0.433 0.028,0.114 0.051,0.305 0.051,0.43 l 0.059,6.52 c 0,0.125 0.019,0.261 0.047,0.304 0.023,0.043 0.117,0.078 0.207,0.078 0.089,0 0.191,-0.066 0.226,-0.152 0.035,-0.082 0.098,-0.23 0.137,-0.332 0.043,-0.098 0.097,-0.254 0.125,-0.348 0.027,-0.093 0.07,-0.25 0.094,-0.343 0.019,-0.094 0.074,-0.262 0.117,-0.379 l 0.133,-0.336 c 0.043,-0.113 0.113,-0.258 0.152,-0.32 0.039,-0.063 0.117,-0.204 0.168,-0.317 l 0.062,-0.137 c 0.055,-0.109 0.114,-0.234 0.137,-0.277 0.024,-0.043 0.082,-0.172 0.129,-0.285 l 0.031,-0.067 c 0.047,-0.113 0.11,-0.246 0.129,-0.296 0.024,-0.055 0.067,-0.184 0.094,-0.289 0.031,-0.106 0.086,-0.286 0.125,-0.403 l 0.031,-0.105 c 0.039,-0.117 0.117,-0.293 0.172,-0.391 0.055,-0.098 0.129,-0.273 0.168,-0.391 l 0.219,-0.675 c 0.039,-0.117 0.074,-0.211 0.082,-0.207 0.008,0.004 0.054,-0.086 0.101,-0.203 l 0.094,-0.219 c 0.047,-0.117 0.117,-0.301 0.16,-0.41 0.039,-0.114 0.106,-0.301 0.145,-0.414 l 0.324,-0.95 c 0.043,-0.117 0.129,-0.297 0.195,-0.398 l 0.219,-0.34 c 0.066,-0.101 0.133,-0.289 0.148,-0.41 l 0.04,-0.309 c 0.015,-0.121 0.07,-0.312 0.117,-0.425 l 0.461,-1.071 c 0.047,-0.113 0.117,-0.301 0.156,-0.418 l 0.387,-1.16 c 0.039,-0.117 0.097,-0.312 0.125,-0.43 l 0.211,-0.836 c 0.027,-0.117 0.089,-0.289 0.132,-0.375 0.043,-0.085 0.18,-0.171 0.301,-0.187 l 0.211,-0.027 c 0.125,-0.012 0.32,-0.047 0.442,-0.071 l 0.953,-0.195 c 0.121,-0.023 0.226,-0.031 0.23,-0.02 0.008,0.012 0.02,0.02 0.027,0.02 0.004,0 0.079,0.035 0.165,0.086 0.082,0.047 0.218,0.105 0.3,0.129 0.078,0.019 0.203,0.043 0.278,0.047 0.074,0.004 0.211,0.074 0.3,0.152 l 0.032,0.027 c 0.093,0.079 0.199,0.243 0.238,0.36 l 0.445,1.422 c 0.039,0.117 0.09,0.312 0.114,0.433 l 0.058,0.282 c 0.027,0.121 0.055,0.226 0.063,0.234 0.011,0.008 0.05,0.109 0.093,0.226 l 0.375,1.043 c 0.043,0.118 0.098,0.223 0.125,0.235 0.028,0.015 0.071,0.121 0.098,0.242 l 0.039,0.172 c 0.027,0.121 0.047,0.277 0.043,0.344 -0.008,0.07 0.047,0.211 0.113,0.316 l 0.055,0.082 c 0.066,0.102 0.129,0.199 0.141,0.219 0.011,0.019 0.047,0.129 0.078,0.25 l 0.051,0.176 c 0.035,0.117 0.101,0.304 0.148,0.418 l 0.004,0.011 c 0.051,0.114 0.117,0.289 0.152,0.391 0.032,0.101 0.11,0.273 0.164,0.383 l 0.078,0.148 c 0.059,0.11 0.133,0.277 0.168,0.375 0.036,0.094 0.094,0.235 0.125,0.313 0.036,0.078 0.106,0.226 0.153,0.336 0.051,0.109 0.125,0.269 0.168,0.359 0.043,0.09 0.113,0.227 0.16,0.305 0.047,0.078 0.125,0.203 0.176,0.273 0.047,0.074 0.133,0.227 0.187,0.336 l 0.133,0.273 c 0.055,0.11 0.113,0.258 0.133,0.325 0.015,0.066 0.07,0.215 0.117,0.328 l 0.043,0.105 c 0.047,0.117 0.098,0.242 0.113,0.285 0.016,0.043 0.071,0.172 0.117,0.286 l 0.016,0.035 c 0.051,0.113 0.109,0.246 0.129,0.293 0.023,0.047 0.082,0.156 0.137,0.242 0.05,0.086 0.144,0.246 0.207,0.351 l 0.031,0.059 c 0.062,0.109 0.137,0.277 0.172,0.379 0.031,0.102 0.105,0.273 0.168,0.379 l 0.308,0.543 c 0.059,0.109 0.102,0.199 0.098,0.203 -0.008,0.004 0.012,0.066 0.047,0.141 0.031,0.07 0.105,0.168 0.156,0.211 0.055,0.046 0.199,0.074 0.324,0.062 l 0.028,-0.004 c 0.121,-0.012 0.226,-0.121 0.23,-0.246 l 0.008,-0.266 c 0.004,-0.121 0,-0.293 -0.004,-0.379 -0.008,-0.082 -0.023,-0.222 -0.035,-0.304 -0.016,-0.086 -0.027,-0.254 -0.031,-0.375 l -0.028,-1.524 c 0,-0.121 0.004,-0.324 0.016,-0.445 l 0.066,-0.832 c 0.012,-0.125 0.004,-0.324 -0.015,-0.445 l -0.012,-0.067 c -0.019,-0.121 -0.043,-0.32 -0.051,-0.441 l -0.008,-0.086 c -0.011,-0.121 -0.019,-0.273 -0.015,-0.34 0,-0.062 0,-0.215 -0.008,-0.34 l 0,-0.074 c -0.008,-0.125 -0.016,-0.324 -0.027,-0.449 l -0.008,-0.121 c -0.008,-0.125 -0.012,-0.313 -0.012,-0.418 0.004,-0.106 0.016,-0.293 0.024,-0.418 l 0.007,-0.051 c 0.008,-0.121 -0.004,-0.32 -0.027,-0.441 L 24.898,40.494 C 24.879,40.377 24.82,40.213 24.773,40.135 24.727,40.053 24.59,39.971 24.469,39.943 l -0.594,-0.125 c -0.121,-0.027 -0.289,-0.039 -0.379,-0.031 -0.09,0.008 -0.25,0.028 -0.355,0.043 -0.106,0.02 -0.293,0.024 -0.414,0.012 l -0.016,0 C 22.59,39.83 22.395,39.783 22.285,39.733 l -0.066,-0.032 c -0.114,-0.047 -0.266,-0.172 -0.336,-0.269 l -0.16,-0.227 c -0.071,-0.101 -0.129,-0.281 -0.129,-0.406 l 0.004,-0.422 c 0,-0.125 0.004,-0.324 0.007,-0.449 l 0.016,-0.891 c 0,-0.125 -0.008,-0.324 -0.019,-0.449 L 21.59,36.479 c -0.016,-0.125 -0.028,-0.262 -0.031,-0.313 -0.004,-0.047 -0.008,-0.187 -0.008,-0.308 l 0,-0.348 c 0,-0.121 0.058,-0.305 0.129,-0.406 l 0.172,-0.243 c 0.07,-0.097 0.207,-0.195 0.304,-0.211 0.098,-0.015 0.278,-0.027 0.399,-0.027 l 0.347,-0.004 c 0.125,0 0.325,0.004 0.45,0.008 l 0.168,0.008 c 0.125,0.004 0.324,0 0.445,-0.012 l 0.898,-0.074 c 0.125,-0.012 0.325,-0.008 0.446,0.004 l 0.269,0.023 c 0.121,0.012 0.324,0.02 0.445,0.016 l 0.735,-0.02 c 0.125,-0.004 0.324,0 0.445,0.008 l 0.16,0.008 c 0.121,0.008 0.325,0.012 0.446,0.012 l 0.933,0 c 0.125,0 0.324,-0.012 0.446,-0.024 l 0.23,-0.023 c 0.121,-0.016 0.324,-0.031 0.445,-0.043 l 0.442,-0.035 c 0.125,-0.008 0.324,-0.02 0.449,-0.024 l 0.129,-0.004 c 0.121,-0.004 0.301,-0.007 0.394,-0.015 0.094,-0.004 0.274,0.008 0.395,0.023 l 0.281,0.039 c 0.125,0.016 0.324,0.047 0.445,0.067 l 0.567,0.093 c 0.121,0.02 0.32,0.024 0.441,0.004 0.121,-0.015 0.321,-0.031 0.446,-0.031 l 0.328,-0.012 c 0.121,-0.004 0.297,0.008 0.386,0.024 0.09,0.019 0.262,0.043 0.387,0.054 l 0.457,0.055 c 0.125,0.012 0.258,0.117 0.305,0.231 l 0.375,0.964 c 0.043,0.118 0.062,0.309 0.039,0.43 l -0.086,0.43 z" /><path
         id="path4175"
         style="fill:#ffb60a;fill-opacity:1;fill-rule:evenodd;stroke:none"
         d="m 44.578,60.01 c 0.012,-0.024 0.102,-0.102 0.199,-0.176 l 0.25,-0.184 c 0.098,-0.074 0.278,-0.128 0.403,-0.125 l 0.398,0.016 c 0.125,0.008 0.324,0.008 0.449,0.008 l 0.125,-0.004 c 0.125,0 0.325,0.016 0.446,0.035 l 0.25,0.039 c 0.121,0.024 0.32,0.02 0.441,0 l 0.223,-0.039 c 0.121,-0.023 0.32,-0.039 0.441,-0.043 l 0.348,0 c 0.121,0 0.324,0 0.445,0.004 l 0.637,0.008 c 0.125,0 0.324,0.012 0.449,0.023 l 0.43,0.043 c 0.121,0.012 0.242,0.02 0.269,0.016 0.028,0 0.149,0.008 0.27,0.019 l 0.883,0.086 c 0.125,0.012 0.324,0.024 0.449,0.024 l 0.472,0 c 0.125,0 0.223,-0.016 0.223,-0.043 0,-0.024 0.098,-0.047 0.223,-0.051 l 0.308,-0.016 c 0.125,-0.007 0.325,-0.019 0.45,-0.031 l 0.418,-0.031 c 0.121,-0.008 0.32,-0.008 0.445,0.008 l 0.219,0.023 c 0.121,0.012 0.308,0.074 0.414,0.141 l 0.035,0.019 c 0.101,0.067 0.207,0.215 0.234,0.336 l 0.051,0.258 c 0.023,0.121 0.047,0.32 0.047,0.445 l 0.008,0.586 c 0.004,0.125 0,0.254 -0.004,0.286 -0.004,0.035 -0.008,0.164 -0.008,0.285 l -0.004,0.406 c 0,0.121 -0.012,0.324 -0.023,0.445 l -0.008,0.059 c -0.012,0.121 -0.074,0.277 -0.141,0.344 -0.066,0.07 -0.211,0.164 -0.324,0.207 l -0.094,0.035 c -0.113,0.047 -0.308,0.082 -0.429,0.086 l -0.301,0.004 c -0.121,0 -0.324,0 -0.449,0.004 l -0.614,0.003 c -0.125,0 -0.226,-0.011 -0.226,-0.027 0,-0.016 -0.102,-0.031 -0.227,-0.031 l -0.113,0 c -0.125,-0.004 -0.258,-0.02 -0.305,-0.039 -0.043,-0.02 -0.168,-0.082 -0.277,-0.137 -0.11,-0.059 -0.297,-0.117 -0.418,-0.137 l -0.297,-0.039 c -0.121,-0.015 -0.313,-0.066 -0.426,-0.117 l -0.711,-0.297 c -0.113,-0.047 -0.207,-0.078 -0.211,-0.062 -0.004,0.011 -0.101,0 -0.222,-0.032 l -1.082,-0.273 c -0.121,-0.031 -0.321,-0.055 -0.442,-0.055 l -0.547,0 c -0.125,0 -0.312,-0.047 -0.422,-0.101 -0.109,-0.055 -0.277,-0.129 -0.371,-0.168 -0.097,-0.035 -0.277,-0.063 -0.398,-0.055 l -0.035,0 c -0.121,0.008 -0.324,0.008 -0.446,0.004 L 45.711,61.979 C 45.59,61.971 45.406,61.936 45.309,61.897 45.207,61.861 45.055,61.756 44.969,61.67 l -0.168,-0.164 c -0.086,-0.086 -0.199,-0.25 -0.25,-0.363 L 44.438,60.9 c -0.055,-0.113 -0.063,-0.3 -0.024,-0.417 l 0.07,-0.219 c 0.039,-0.114 0.082,-0.231 0.094,-0.254 M 60.34,37.045 c -0.008,0.121 -0.016,0.324 -0.016,0.445 l 0.004,0.188 c 0,0.121 0,0.324 -0.004,0.445 l 0,0.07 c 0,0.125 -0.012,0.325 -0.027,0.446 l -0.063,0.558 c -0.015,0.121 -0.011,0.309 0.008,0.418 0.02,0.11 0.039,0.301 0.047,0.422 l 0.023,0.594 c 0.004,0.125 0.016,0.324 0.024,0.449 l 0.023,0.313 c 0.008,0.121 0.028,0.32 0.039,0.445 l 0.047,0.418 c 0.016,0.121 0.012,0.32 -0.007,0.441 l -0.036,0.227 c -0.019,0.121 -0.097,0.297 -0.179,0.391 l -0.063,0.074 c -0.082,0.094 -0.246,0.183 -0.367,0.203 l -0.539,0.074 c -0.121,0.02 -0.32,0.035 -0.445,0.035 l -1.008,0.012 c -0.121,0 -0.262,0 -0.309,-0.004 -0.047,-0.004 -0.187,-0.008 -0.312,-0.008 l -0.75,-0.004 c -0.121,0 -0.325,-0.007 -0.446,-0.019 L 55.727,43.662 C 55.602,43.65 55.422,43.592 55.328,43.525 55.23,43.459 55.105,43.318 55.043,43.213 L 54.98,43.096 c -0.058,-0.11 -0.109,-0.297 -0.113,-0.418 l -0.004,-0.301 c -0.004,-0.125 -0.004,-0.324 -0.008,-0.449 l -0.007,-0.613 c 0,-0.125 -0.02,-0.325 -0.043,-0.446 L 54.68,40.174 C 54.66,40.053 54.555,39.9 54.445,39.842 l -0.32,-0.184 c -0.109,-0.062 -0.297,-0.101 -0.418,-0.086 l -0.23,0.024 c -0.125,0.012 -0.325,0.027 -0.45,0.031 l -0.726,0.02 c -0.125,0.003 -0.324,0.007 -0.449,0.007 L 50.914,39.65 c -0.121,0 -0.324,-0.003 -0.445,-0.011 l -0.707,-0.043 c -0.121,-0.004 -0.321,0.015 -0.438,0.047 l -0.101,0.027 c -0.118,0.035 -0.25,0.156 -0.289,0.27 l -0.145,0.402 c -0.039,0.113 -0.074,0.308 -0.074,0.433 l 0,0.071 c 0,0.121 -0.008,0.32 -0.016,0.445 -0.011,0.121 -0.008,0.324 0.004,0.445 l 0.078,0.848 c 0.012,0.125 0.11,0.274 0.215,0.336 l 0.324,0.188 c 0.106,0.062 0.293,0.113 0.418,0.113 l 0.258,0 c 0.121,0.004 0.27,0.008 0.328,0.012 0.059,0.003 0.203,0.027 0.324,0.05 l 0.43,0.075 c 0.121,0.023 0.297,0.031 0.387,0.015 0.094,-0.012 0.269,-0.023 0.39,-0.027 l 0.254,-0.004 c 0.125,-0.004 0.301,-0.004 0.391,0 0.09,0.004 0.199,-0.012 0.242,-0.035 0.043,-0.02 0.172,-0.008 0.293,0.027 l 0.035,0.012 c 0.118,0.035 0.266,0.117 0.328,0.176 0.063,0.062 0.161,0.203 0.215,0.312 l 0.164,0.313 c 0.055,0.109 0.098,0.3 0.094,0.421 l -0.004,0.059 c -0.004,0.121 -0.008,0.305 -0.004,0.406 0.004,0.102 0.004,0.282 0,0.407 l -0.008,0.199 c -0.007,0.125 -0.011,0.269 -0.011,0.324 -0.004,0.055 0.008,0.199 0.019,0.32 l 0.024,0.231 c 0.015,0.125 0.043,0.32 0.066,0.437 0.02,0.117 0.02,0.313 -0.008,0.434 l -0.054,0.258 c -0.024,0.121 -0.125,0.285 -0.219,0.363 l -0.09,0.074 c -0.098,0.074 -0.277,0.141 -0.398,0.141 l -0.602,0 c -0.125,0 -0.324,0.004 -0.449,0.012 l -0.055,0.003 c -0.125,0.008 -0.289,0.016 -0.363,0.016 -0.078,0.004 -0.242,0.004 -0.367,0.004 l -0.403,-0.004 c -0.121,0 -0.324,0.008 -0.445,0.02 l -0.004,0 c -0.121,0.011 -0.254,0.031 -0.293,0.043 -0.043,0.011 -0.176,0.031 -0.297,0.046 L 49.539,48.4 c -0.121,0.012 -0.281,0.059 -0.351,0.102 -0.071,0.043 -0.165,0.176 -0.204,0.293 l -0.117,0.336 c -0.039,0.117 -0.078,0.254 -0.086,0.305 -0.011,0.05 -0.019,0.195 -0.023,0.316 l -0.012,0.781 c 0,0.121 0.012,0.321 0.027,0.446 l 0.055,0.367 c 0.016,0.121 0.082,0.308 0.141,0.414 l 0.015,0.027 c 0.063,0.11 0.184,0.238 0.27,0.289 0.086,0.051 0.258,0.098 0.379,0.11 l 0.019,0 c 0.125,0.007 0.325,0.011 0.45,0.007 l 0.195,-0.011 c 0.121,-0.004 0.324,-0.008 0.449,-0.012 l 0.066,-0.004 c 0.122,0 0.325,-0.008 0.446,-0.016 l 0.269,-0.015 c 0.125,-0.008 0.325,-0.02 0.446,-0.024 0.125,-0.003 0.324,0.004 0.445,0.02 l 0.301,0.043 c 0.121,0.016 0.324,0.039 0.445,0.055 l 0.035,0.004 c 0.125,0.015 0.324,0.015 0.446,0.007 l 0.097,-0.007 c 0.125,-0.012 0.317,-0.047 0.43,-0.079 0.113,-0.031 0.281,-0.125 0.375,-0.207 l 0.16,-0.144 c 0.09,-0.082 0.168,-0.25 0.168,-0.371 l 0,-0.246 c 0.004,-0.125 0.012,-0.325 0.02,-0.45 l 0.039,-0.445 c 0.007,-0.121 0.015,-0.32 0.019,-0.445 l 0.004,-0.426 c 0,-0.121 0.031,-0.316 0.07,-0.434 l 0.18,-0.535 c 0.039,-0.117 0.152,-0.269 0.25,-0.343 l 0.09,-0.063 c 0.098,-0.07 0.265,-0.113 0.367,-0.098 0.102,0.016 0.285,0.039 0.406,0.047 l 0.016,0 c 0.125,0.008 0.324,0.016 0.449,0.016 l 0.133,0 c 0.121,0 0.324,0.008 0.445,0.015 l 0.254,0.012 c 0.121,0.008 0.324,0 0.445,-0.015 l 0.665,-0.082 c 0.125,-0.016 0.324,-0.02 0.445,-0.008 l 0.484,0.039 c 0.125,0.008 0.266,0.039 0.317,0.062 0.05,0.028 0.129,0.141 0.175,0.254 l 0.079,0.188 c 0.046,0.113 0.085,0.308 0.089,0.429 l 0.036,1.262 c 0.003,0.125 0,0.324 -0.008,0.449 l -0.008,0.176 c -0.008,0.121 -0.012,0.324 -0.012,0.445 l 0,0.168 c -0.004,0.125 -0.004,0.317 -0.004,0.426 -0.004,0.11 0.008,0.297 0.028,0.418 l 0.019,0.149 c 0.016,0.121 0.028,0.324 0.028,0.445 l 0.003,0.879 c 0,0.121 0,0.226 0,0.23 0,0.008 0,0.114 0,0.235 l 0,1.019 c 0,0.125 0,0.324 0,0.449 l 0,0.739 c -0.003,0.125 -0.066,0.3 -0.144,0.398 l -0.102,0.125 c -0.074,0.098 -0.238,0.176 -0.363,0.172 L 59.41,57.084 c -0.121,-0.004 -0.324,0.008 -0.445,0.024 l -0.195,0.023 c -0.122,0.016 -0.325,0.039 -0.446,0.055 l -0.136,0.015 c -0.122,0.012 -0.321,0.024 -0.446,0.02 l -0.586,-0.008 c -0.121,-0.004 -0.324,-0.012 -0.445,-0.02 l -0.02,0 C 56.57,57.186 56.367,57.174 56.246,57.166 L 56.191,57.162 C 56.066,57.154 55.898,57.143 55.816,57.139 55.738,57.135 55.57,57.131 55.445,57.131 l -0.25,0 c -0.121,0 -0.324,-0.004 -0.445,-0.004 l -0.242,0 c -0.125,0 -0.317,-0.012 -0.434,-0.027 -0.113,-0.016 -0.304,-0.004 -0.422,0.027 l -0.343,0.094 c -0.118,0.035 -0.309,0.054 -0.426,0.047 -0.117,-0.004 -0.309,-0.032 -0.43,-0.059 l -0.039,-0.008 c -0.121,-0.027 -0.32,-0.043 -0.441,-0.039 l -0.184,0.008 c -0.121,0.008 -0.262,0.016 -0.309,0.02 -0.046,0.007 -0.156,0.015 -0.242,0.015 -0.086,0.004 -0.258,0.012 -0.379,0.02 l -0.418,0.019 C 50.32,57.252 50.117,57.252 49.996,57.24 L 49.82,57.229 c -0.125,-0.012 -0.285,-0.036 -0.363,-0.051 -0.074,-0.02 -0.238,-0.031 -0.359,-0.024 l -1.078,0.051 c -0.122,0.008 -0.325,0.016 -0.446,0.024 l -0.594,0.027 c -0.121,0.008 -0.324,0.016 -0.445,0.016 l -0.973,0.015 c -0.121,0.004 -0.324,-0.004 -0.445,-0.012 l -0.523,-0.039 c -0.121,-0.007 -0.305,-0.015 -0.403,-0.015 -0.097,0 -0.277,0.027 -0.394,0.058 l -0.672,0.176 c -0.117,0.031 -0.246,0.051 -0.281,0.047 -0.039,-0.008 -0.164,-0.039 -0.285,-0.074 l -0.27,-0.074 c -0.117,-0.032 -0.316,-0.047 -0.437,-0.032 l -0.192,0.024 c -0.121,0.015 -0.32,0.043 -0.437,0.066 -0.118,0.02 -0.313,0.028 -0.438,0.016 l -0.621,-0.055 c -0.121,-0.012 -0.223,-0.015 -0.223,-0.008 0,0.004 -0.089,0.012 -0.199,0.008 -0.109,0 -0.297,-0.023 -0.414,-0.047 l -0.09,-0.019 C 39.117,57.279 38.969,57.186 38.902,57.1 38.836,57.01 38.77,56.838 38.754,56.717 L 38.656,56.018 C 38.641,55.893 38.625,55.693 38.617,55.572 L 38.605,55.225 C 38.602,55.104 38.594,54.9 38.586,54.779 l -0.004,-0.105 c -0.004,-0.121 0,-0.313 0.008,-0.426 0.012,-0.109 0.015,-0.301 0.012,-0.426 L 38.59,53.389 c -0.004,-0.121 0.019,-0.317 0.058,-0.434 l 0.036,-0.113 c 0.035,-0.117 0.14,-0.277 0.234,-0.359 l 0.113,-0.094 c 0.094,-0.082 0.25,-0.156 0.344,-0.172 0.094,-0.012 0.27,-0.004 0.391,0.023 l 0.097,0.024 c 0.121,0.027 0.27,0.043 0.332,0.039 0.063,-0.008 0.207,-0.043 0.321,-0.082 0.117,-0.039 0.312,-0.071 0.433,-0.071 l 0.121,0 c 0.121,0 0.285,0 0.364,0 0.082,0 0.23,-0.05 0.336,-0.113 l 0.246,-0.148 c 0.105,-0.063 0.218,-0.211 0.25,-0.332 l 0.054,-0.215 c 0.032,-0.121 0.055,-0.32 0.051,-0.442 l -0.004,-0.089 c -0.004,-0.125 -0.015,-0.325 -0.023,-0.446 l -0.016,-0.203 c -0.012,-0.121 -0.012,-0.32 -0.004,-0.445 l 0.028,-0.434 c 0.007,-0.125 0.003,-0.324 -0.012,-0.445 l -0.028,-0.27 c -0.015,-0.121 -0.019,-0.265 -0.011,-0.324 0.008,-0.054 0.011,-0.203 0.004,-0.324 l -0.012,-0.379 c -0.004,-0.125 -0.004,-0.324 0,-0.449 l 0.019,-0.336 c 0.004,-0.121 0,-0.309 -0.011,-0.414 -0.012,-0.106 -0.028,-0.293 -0.035,-0.418 l -0.008,-0.121 c -0.012,-0.121 -0.012,-0.32 -0.008,-0.445 l 0.008,-0.172 c 0.008,-0.121 0.015,-0.325 0.015,-0.446 l 0.02,-0.765 c 0,-0.125 0,-0.325 0,-0.45 l -0.02,-1.156 c -0.003,-0.121 -0.027,-0.32 -0.05,-0.441 L 42.18,41.725 C 42.156,41.604 42.129,41.408 42.125,41.283 L 42.09,40.455 c -0.008,-0.125 -0.012,-0.226 -0.016,-0.234 0,-0.004 -0.09,-0.055 -0.199,-0.117 L 41.246,39.756 C 41.137,39.697 40.949,39.65 40.824,39.65 l -0.066,0.004 c -0.125,0 -0.25,0.004 -0.285,0.004 -0.032,0 -0.161,0 -0.282,-0.004 l -0.109,0 c -0.121,-0.004 -0.316,-0.007 -0.434,-0.011 -0.113,-0.004 -0.285,-0.004 -0.375,-0.004 -0.089,0.004 -0.265,-0.008 -0.386,-0.028 l -0.012,0 C 38.754,39.592 38.578,39.51 38.484,39.432 L 38.43,39.381 c -0.09,-0.082 -0.16,-0.25 -0.149,-0.371 l 0.02,-0.313 c 0.008,-0.125 0.031,-0.324 0.051,-0.445 l 0.062,-0.375 c 0.02,-0.121 0.027,-0.324 0.02,-0.445 l 0,-0.02 c -0.008,-0.121 -0.012,-0.324 -0.008,-0.445 l 0.019,-0.57 c 0.004,-0.125 0,-0.325 -0.007,-0.45 l -0.004,-0.078 c -0.008,-0.121 -0.004,-0.324 0.007,-0.445 l 0.032,-0.309 c 0.011,-0.121 0.035,-0.257 0.047,-0.3 0.011,-0.047 0.117,-0.122 0.234,-0.165 l 0.391,-0.156 c 0.117,-0.043 0.308,-0.078 0.433,-0.07 l 0.399,0.016 c 0.121,0.003 0.324,0.015 0.445,0.019 l 0.195,0.012 c 0.125,0.008 0.324,0.012 0.449,0.012 l 1.016,0 c 0.125,0 0.313,-0.016 0.422,-0.032 0.109,-0.015 0.297,-0.027 0.422,-0.027 l 0.89,0 c 0.122,0 0.325,0.004 0.446,0.008 l 0.09,0.004 c 0.125,0.004 0.324,0.007 0.449,0.004 l 0.418,-0.008 c 0.125,0 0.324,0 0.449,0.004 l 0.266,0.007 c 0.121,0 0.324,0.016 0.445,0.028 l 0.144,0.015 c 0.122,0.012 0.313,0.028 0.418,0.036 0.11,0.003 0.301,0.019 0.422,0.027 l 0.16,0.008 c 0.125,0.011 0.325,0.008 0.45,-0.008 l 0.285,-0.027 c 0.121,-0.012 0.312,-0.008 0.422,0.007 0.109,0.02 0.293,0.043 0.41,0.051 0.117,0.012 0.281,0.012 0.363,0 0.086,-0.012 0.25,-0.027 0.367,-0.039 0.118,-0.016 0.313,-0.027 0.43,-0.035 0.117,-0.008 0.312,-0.004 0.434,0.004 l 0.132,0.008 c 0.125,0.011 0.325,0.015 0.45,0.011 l 0.355,-0.011 c 0.125,-0.004 0.317,-0.016 0.43,-0.028 0.109,-0.007 0.301,-0.023 0.426,-0.031 l 0.015,0 c 0.121,-0.008 0.313,-0.004 0.422,0.008 0.113,0.012 0.297,0.023 0.41,0.031 0.117,0.004 0.309,-0.012 0.422,-0.039 0.117,-0.023 0.313,-0.035 0.438,-0.019 l 0.746,0.093 c 0.121,0.016 0.324,0.02 0.445,0.012 l 0.543,-0.039 c 0.125,-0.008 0.324,-0.023 0.449,-0.035 l 0.215,-0.02 c 0.125,-0.008 0.324,-0.019 0.449,-0.019 l 0.531,-0.012 c 0.126,0 0.309,-0.004 0.411,-0.004 0.101,-0.004 0.289,0 0.41,0.004 l 0.234,0.008 c 0.121,0.004 0.324,0.015 0.445,0.027 l 0.708,0.063 c 0.121,0.011 0.25,0.039 0.285,0.062 0.035,0.024 0.097,0.137 0.133,0.254 l 0.183,0.547 c 0.035,0.117 0.063,0.312 0.055,0.437 l -0.012,0.176 c -0.008,0.121 -0.023,0.324 -0.031,0.446 l -0.043,0.605 z" /><path
         id="path4177"
         style="fill:#000000;fill-opacity:1;fill-rule:nonzero;stroke:none"
         d="m 30.293,18.42 c 0,-0.336 0.129,-0.594 0.387,-0.77 0.207,-0.179 0.449,-0.3 0.722,-0.363 l 0.34,-0.097 0,-0.192 c -1.98,0.258 -4.023,0.258 -6.129,0 l 0,0.192 0.336,0.097 c 0.274,0.047 0.516,0.168 0.727,0.363 0.258,0.176 0.386,0.391 0.386,0.649 l 0,13.656 c 0,0.738 -0.195,1.34 -0.582,1.809 -0.351,0.433 -0.851,0.738 -1.496,0.914 l 0,0.144 c 1.129,0.164 2.141,0.364 3.043,0.606 0.739,0.16 1.446,0.441 2.121,0.844 l 0.145,0 0,-17.852" /><path
         id="path4179"
         style="fill:#000000;fill-opacity:1;fill-rule:nonzero;stroke:none"
         d="m 31.629,23.006 c 0,1.766 0.605,3.254 1.809,4.461 1.207,1.223 2.695,1.832 4.464,1.832 1.496,0 2.743,-0.578 3.739,-1.734 0.996,-1.145 1.496,-2.348 1.496,-3.622 l -3.235,0 c 0,0.743 -0.015,1.336 -0.047,1.786 -0.031,0.453 -0.113,0.949 -0.242,1.496 -0.113,0.562 -0.312,0.98 -0.601,1.254 -0.289,0.273 -0.66,0.41 -1.11,0.41 -1.207,0 -2.058,-0.66 -2.558,-1.977 -0.496,-1.304 -0.516,-2.719 -0.047,-4.246 0.515,-1.641 1.406,-2.719 2.676,-3.23 0.468,-0.196 0.972,-0.293 1.519,-0.293 1.496,0 2.621,0.597 3.379,1.785 l 0.242,-0.024 c 0,-0.046 -0.051,-0.183 -0.144,-0.41 -0.098,-0.207 -0.274,-0.504 -0.531,-0.89 -0.243,-0.371 -0.547,-0.743 -0.918,-1.11 -0.372,-0.355 -0.875,-0.699 -1.52,-1.039 -0.645,-0.336 -1.352,-0.578 -2.121,-0.722 -1.785,0 -3.274,0.593 -4.465,1.785 -1.187,1.191 -1.785,2.683 -1.785,4.488 m 11.508,0.937 -8.684,0 -0.195,0.438 8.804,0 0.075,-0.438" /><path
         id="path4181"
         style="fill:#000000;fill-opacity:1;fill-rule:nonzero;stroke:none"
         d="m 46.441,27.537 c 0,-0.351 0.121,-0.672 0.36,-0.965 0.242,-0.273 0.558,-0.511 0.941,-0.722 0.387,-0.192 0.813,-0.395 1.281,-0.602 0.465,-0.211 0.93,-0.441 1.399,-0.699 0.465,-0.258 0.89,-0.555 1.277,-0.895 0.387,-0.32 0.699,-0.738 0.942,-1.254 0.242,-0.515 0.363,-1.101 0.363,-1.761 0,-1.043 -0.445,-1.953 -1.328,-2.723 -0.887,-0.773 -1.914,-1.16 -3.09,-1.16 -0.641,0 -1.309,0.09 -2,0.266 -0.676,0.191 -1.191,0.378 -1.543,0.554 l -0.555,0.289 0.071,4.344 0.195,0 c 0.254,-1.125 0.844,-2.246 1.758,-3.355 0.933,-1.11 1.793,-1.664 2.582,-1.664 0.433,0 0.773,0.121 1.011,0.363 0.243,0.242 0.372,0.488 0.387,0.746 l 0.051,0.363 c 0,0.516 -0.164,0.973 -0.484,1.375 -0.321,0.403 -0.723,0.723 -1.207,0.965 -0.465,0.258 -0.981,0.531 -1.543,0.82 -0.563,0.289 -1.086,0.571 -1.567,0.844 -0.469,0.289 -0.859,0.668 -1.183,1.133 -0.321,0.469 -0.481,1 -0.481,1.594 0,0.949 0.442,1.832 1.324,2.652 0.887,0.836 1.946,1.254 3.184,1.254 0.66,0 1.238,-0.086 1.738,-0.266 0.516,-0.175 0.86,-0.343 1.039,-0.504 l 0.266,-0.265 0.359,-3.449 -0.191,0 c -0.723,1.347 -1.434,2.347 -2.125,2.988 -0.692,0.66 -1.309,0.992 -1.856,0.992 -0.386,0 -0.691,-0.105 -0.918,-0.316 -0.222,-0.207 -0.359,-0.418 -0.41,-0.625 l -0.047,-0.317" /><path
         id="path4183"
         style="fill:#000000;fill-opacity:1;fill-rule:nonzero;stroke:none"
         d="m 63.152,17.818 c -0.015,-0.05 -0.043,-0.121 -0.074,-0.218 -0.031,-0.094 -0.098,-0.274 -0.191,-0.532 -0.098,-0.253 -0.196,-0.48 -0.289,-0.675 -0.098,-0.192 -0.227,-0.36 -0.387,-0.504 -0.145,-0.16 -0.297,-0.242 -0.457,-0.242 -0.418,0 -0.684,0.211 -0.797,0.628 0,0.032 -0.008,0.071 -0.023,0.118 -0.02,0.035 -0.059,0.105 -0.122,0.218 -0.066,0.098 -0.144,0.192 -0.242,0.289 -0.082,0.083 -0.211,0.153 -0.386,0.219 -0.176,0.063 -0.379,0.094 -0.602,0.094 -0.402,0 -0.766,-0.129 -1.086,-0.383 -0.32,-0.258 -0.484,-0.644 -0.484,-1.16 0,-0.641 0.195,-1.133 0.582,-1.469 0.402,-0.355 0.851,-0.531 1.347,-0.531 1.239,0 2.317,1.027 3.235,3.086 0,0.016 0.015,0.059 0.047,0.121 0.031,0.063 0.089,0.176 0.168,0.336 0.082,0.164 0.156,0.309 0.218,0.437 l -0.457,0.168 m 0.024,-1.062 3.929,7.937 c 0.051,0.114 0.122,0.258 0.219,0.434 0.114,0.191 0.328,0.531 0.653,1.012 0.32,0.484 0.64,0.902 0.964,1.254 0.336,0.371 0.747,0.711 1.231,1.015 0.48,0.305 0.949,0.457 1.398,0.457 -0.015,0.082 -0.023,0.145 -0.023,0.196 -1.965,-0.274 -4.004,-0.274 -6.129,0 l 0,-0.196 c 0.082,-0.015 0.176,-0.039 0.289,-0.07 0.129,-0.02 0.332,-0.113 0.605,-0.293 0.274,-0.16 0.481,-0.367 0.626,-0.625 0.16,-0.258 0.226,-0.652 0.195,-1.184 -0.016,-0.511 -0.188,-1.117 -0.508,-1.808 l -1.762,-3.738 -2.484,6.511 c -0.242,0.629 -0.145,0.992 0.289,1.086 l 0.363,0.121 0,0.196 c -1.98,-0.258 -4.019,-0.258 -6.129,0 l 0,-0.196 0.364,-0.121 c 0.5,-0.113 0.859,-0.441 1.086,-0.988 l 4.628,-11 0.196,0 m 0,0 0,0 m -0.196,0 0,0" /><path
         id="path4185"
         style="fill:#000000;fill-opacity:1;fill-rule:nonzero;stroke:none"
         d="m 68.664,23.006 c 0,1.766 0.602,3.254 1.809,4.461 1.207,1.223 2.695,1.832 4.465,1.832 1.492,0 2.738,-0.578 3.738,-1.734 0.996,-1.145 1.496,-2.348 1.496,-3.622 l -3.234,0 c 0,0.743 -0.016,1.336 -0.047,1.786 -0.036,0.453 -0.114,0.949 -0.243,1.496 -0.113,0.562 -0.312,0.98 -0.601,1.254 -0.293,0.273 -0.66,0.41 -1.109,0.41 -1.208,0 -2.059,-0.66 -2.559,-1.977 -0.5,-1.304 -0.516,-2.719 -0.047,-4.246 0.512,-1.641 1.406,-2.719 2.676,-3.23 0.465,-0.196 0.972,-0.293 1.519,-0.293 1.496,0 2.621,0.597 3.379,1.785 l 0.239,-0.024 c 0,-0.046 -0.047,-0.183 -0.145,-0.41 -0.094,-0.207 -0.273,-0.504 -0.531,-0.89 -0.239,-0.371 -0.543,-0.743 -0.914,-1.11 -0.371,-0.355 -0.879,-0.699 -1.52,-1.039 -0.644,-0.336 -1.351,-0.578 -2.125,-0.722 -1.785,0 -3.269,0.593 -4.461,1.785 -1.191,1.191 -1.785,2.683 -1.785,4.488 m 11.508,0.937 -8.688,0 -0.191,0.438 8.805,0 0.074,-0.438" /><path
         id="path4187"
         style="fill:#000000;fill-opacity:1;fill-rule:nonzero;stroke:none"
         d="m 92.148,29.061 0,-9.434 c 0,-0.32 0.137,-0.637 0.411,-0.941 0.273,-0.274 0.515,-0.45 0.726,-0.532 0.238,-0.093 0.36,-0.121 0.36,-0.07 0.015,-0.031 0.027,-0.066 0.027,-0.098 0,-0.031 -0.012,-0.054 -0.027,-0.07 L 93.621,17.865 C 93.105,17.916 92.312,17.818 91.234,17.576 90.203,17.334 89.473,17.111 89.039,16.9 l -0.168,0.098 0.024,7.742 c 0,0.743 -0.196,1.344 -0.579,1.809 -0.371,0.434 -0.878,0.742 -1.519,0.918 l 0,0.144 c 1.141,0.161 2.16,0.364 3.062,0.602 0.723,0.164 1.422,0.445 2.098,0.848 l 0.191,0 m -7.476,0 0,-7.578 c 0,-0.852 0.082,-1.536 0.242,-2.047 0.176,-0.5 0.402,-0.821 0.676,-0.965 0.289,-0.129 0.594,-0.188 0.914,-0.172 0.34,0.035 0.668,0.144 0.992,0.34 0.336,0.207 0.641,0.41 0.914,0.601 0.289,0.211 0.516,0.395 0.676,0.555 0.176,0.176 0.266,0.266 0.266,0.266 l 0,-0.868 c -1.125,-0.871 -2.145,-1.503 -3.063,-1.906 -0.918,-0.402 -1.672,-0.586 -2.269,-0.554 -0.579,0.031 -1.067,0.207 -1.469,0.531 -0.403,0.336 -0.692,0.761 -0.871,1.277 -0.16,0.516 -0.239,1.094 -0.239,1.738 l -0.027,4.461 c 0,0.758 -0.191,1.36 -0.578,1.809 -0.367,0.434 -0.875,0.742 -1.52,0.918 l 0,0.144 c 1.145,0.161 2.164,0.364 3.063,0.602 0.726,0.164 1.426,0.445 2.101,0.848 l 0.192,0" /><path
         id="path4189"
         style="fill:#000000;fill-opacity:1;fill-rule:nonzero;stroke:none"
         d="m 98.051,20.834 c -0.387,-0.644 -0.637,-1.207 -0.75,-1.691 -0.094,-0.481 -0.086,-0.844 0.027,-1.082 0.11,-0.227 0.258,-0.411 0.434,-0.555 0.176,-0.148 0.343,-0.234 0.504,-0.266 l 0.242,-0.05 0,-0.192 c -2.121,0.242 -4.164,0.242 -6.125,0 l 0,0.192 c 0.449,0 0.922,0.128 1.422,0.386 0.515,0.258 0.972,0.563 1.375,0.918 0.418,0.352 0.797,0.707 1.132,1.059 0.356,0.355 0.629,0.66 0.821,0.918 l 0.289,0.363 3.476,4.438 c 0.383,0.546 0.618,1.046 0.7,1.496 0.093,0.465 0.07,0.828 -0.075,1.086 -0.128,0.257 -0.296,0.472 -0.507,0.648 -0.192,0.18 -0.375,0.301 -0.555,0.363 l -0.262,0.075 0,0.191 c 2.121,-0.273 4.164,-0.273 6.125,0 l 0.024,-0.191 c -0.418,0 -0.875,-0.129 -1.375,-0.387 -0.481,-0.242 -0.922,-0.547 -1.325,-0.918 -0.386,-0.352 -0.75,-0.715 -1.086,-1.086 -0.339,-0.352 -0.605,-0.66 -0.796,-0.914 L 101.5,25.272 98.051,20.834 m 6.996,-2.414 c 0.433,-0.66 0.828,-1.035 1.18,-1.133 l 0.363,-0.097 0,-0.192 c -2.121,0.242 -4.164,0.242 -6.129,0 l 0,0.192 0.363,0.097 c 0.242,0.063 0.395,0.199 0.457,0.41 0.067,0.207 0.008,0.442 -0.168,0.7 l -7.019,9.457 c -0.449,0.593 -0.813,0.921 -1.086,0.988 l -0.36,0.121 0,0.191 c 2.106,-0.257 4.149,-0.257 6.125,0 l 0,-0.191 -0.359,-0.121 c -0.613,-0.145 -0.711,-0.508 -0.293,-1.086 l 6.926,-9.336" /><path
         id="path4191"
         style="fill:#000000;fill-opacity:1;fill-rule:nonzero;stroke:none"
         d="m 37.32,12.041 c -0.242,0.078 -0.523,0.121 -0.847,0.121 -0.321,0 -0.61,-0.043 -0.868,-0.121 C 35.363,11.975 35.156,11.846 34.98,11.654 34.816,11.463 34.672,11.275 34.543,11.1 34.414,10.94 34.312,10.682 34.23,10.326 34.168,9.99 34.109,9.717 34.062,9.506 34.016,9.299 33.98,8.951 33.965,8.471 33.949,8.006 33.941,7.666 33.941,7.459 l 0,-2.246 c 0,-0.191 0.008,-0.539 0.024,-1.035 0.015,-0.485 0.051,-0.828 0.097,-1.039 0.047,-0.192 0.106,-0.473 0.168,-0.844 0.082,-0.355 0.176,-0.609 0.29,-0.773 0.128,-0.145 0.281,-0.321 0.46,-0.528 0.176,-0.195 0.383,-0.332 0.625,-0.41 0.258,-0.066 0.547,-0.098 0.868,-0.098 0.418,0 0.773,0.063 1.062,0.192 0.305,0.129 0.547,0.347 0.723,0.652 0.195,0.305 0.34,0.594 0.437,0.867 0.11,0.274 0.192,0.676 0.239,1.207 0.05,0.532 0.074,0.957 0.074,1.278 0.015,0.34 0.023,0.828 0.023,1.472 l 0,1.305 c 0,0.223 -0.008,0.57 -0.023,1.035 -0.016,0.465 -0.051,0.805 -0.098,1.012 -0.047,0.211 -0.113,0.492 -0.191,0.848 -0.067,0.351 -0.16,0.609 -0.289,0.769 -0.129,0.16 -0.282,0.34 -0.461,0.531 -0.176,0.192 -0.395,0.321 -0.649,0.387 M 30.035,6.322 c 0,1.77 0.625,3.258 1.879,4.465 1.274,1.188 2.793,1.785 4.559,1.785 1.785,0 3.316,-0.597 4.586,-1.785 C 42.312,9.58 42.945,8.092 42.965,6.322 42.945,4.49 42.312,2.986 41.059,1.815 39.82,0.623 38.293,0.029 36.473,0.029 c -1.801,0 -3.321,0.594 -4.559,1.786 -1.254,1.187 -1.879,2.691 -1.879,4.507" /><path
         id="path4193"
         style="fill:#000000;fill-opacity:1;fill-rule:nonzero;stroke:none"
         d="m 54.73,12.33 0,-9.433 c 0,-0.321 0.137,-0.633 0.411,-0.938 C 55.414,1.686 55.656,1.506 55.863,1.428 56.105,1.33 56.227,1.307 56.227,1.354 56.242,1.322 56.25,1.291 56.25,1.26 56.25,1.225 56.242,1.201 56.227,1.186 L 56.203,1.139 C 55.688,1.186 54.891,1.088 53.812,0.85 52.785,0.608 52.055,0.381 51.617,0.174 l -0.168,0.094 0.024,7.746 c 0,0.738 -0.192,1.34 -0.578,1.808 -0.368,0.434 -0.875,0.739 -1.52,0.914 l 0,0.145 c 1.141,0.164 2.164,0.363 3.063,0.605 0.726,0.161 1.425,0.442 2.101,0.844 l 0.191,0 m -7.476,0 0,-7.574 c 0,-0.852 0.078,-1.535 0.238,-2.051 0.18,-0.5 0.403,-0.82 0.676,-0.965 0.289,-0.129 0.598,-0.183 0.918,-0.168 0.336,0.032 0.668,0.145 0.988,0.336 0.34,0.211 0.645,0.41 0.918,0.606 0.289,0.207 0.516,0.39 0.676,0.554 0.176,0.176 0.266,0.266 0.266,0.266 l 0,-0.871 C 50.809,1.596 49.785,0.959 48.867,0.557 47.953,0.158 47.195,-0.029 46.602,0.002 46.023,0.037 45.531,0.213 45.129,0.533 44.727,0.873 44.438,1.299 44.262,1.815 44.102,2.326 44.02,2.904 44.02,3.549 l -0.024,4.465 c 0,0.754 -0.191,1.355 -0.578,1.808 -0.371,0.434 -0.879,0.739 -1.52,0.914 l 0,0.145 c 1.141,0.164 2.164,0.363 3.063,0.605 0.723,0.161 1.422,0.442 2.098,0.844 l 0.195,0" /><path
         id="path4195"
         style="fill:#000000;fill-opacity:1;fill-rule:nonzero;stroke:none"
         d="m 60.566,0.029 3.93,7.934 c 0.051,0.113 0.121,0.258 0.219,0.434 0.113,0.195 0.328,0.531 0.652,1.015 0.321,0.481 0.641,0.899 0.965,1.254 0.336,0.371 0.746,0.707 1.23,1.012 0.481,0.305 0.946,0.461 1.399,0.461 -0.016,0.078 -0.023,0.144 -0.023,0.191 -1.965,-0.273 -4.008,-0.273 -6.129,0 l 0,-0.191 c 0.082,-0.02 0.175,-0.043 0.289,-0.074 0.129,-0.016 0.332,-0.114 0.601,-0.29 0.274,-0.16 0.485,-0.371 0.629,-0.628 0.16,-0.254 0.227,-0.649 0.192,-1.18 C 64.504,9.451 64.336,8.85 64.016,8.158 L 62.254,4.416 59.77,10.932 c -0.243,0.625 -0.145,0.988 0.289,1.086 l 0.363,0.121 0,0.191 c -1.981,-0.258 -4.024,-0.258 -6.129,0 l 0,-0.191 0.363,-0.121 c 0.496,-0.114 0.86,-0.446 1.086,-0.989 l 4.629,-11 0.195,0 m 0,0 -0.195,0 0.195,0 m 0,0 1.907,3.86 -0.219,0.527 -1.953,-4.195 0.07,-0.192 0.195,0" /><path
         id="path4197"
         style="fill:#000000;fill-opacity:1;fill-rule:nonzero;stroke:none"
         d="m 65.727,6.275 c 0,1.77 0.605,3.258 1.812,4.461 1.203,1.223 2.691,1.836 4.461,1.836 1.496,0 2.742,-0.578 3.738,-1.738 0.996,-1.141 1.496,-2.348 1.496,-3.617 l -3.23,0 c 0,0.738 -0.02,1.336 -0.051,1.785 -0.031,0.449 -0.113,0.949 -0.242,1.496 -0.109,0.563 -0.313,0.981 -0.602,1.254 -0.289,0.273 -0.66,0.41 -1.109,0.41 -1.207,0 -2.059,-0.66 -2.559,-1.98 C 68.945,8.881 68.93,7.467 69.395,5.94 69.91,4.299 70.801,3.221 72.07,2.705 c 0.469,-0.191 0.977,-0.289 1.524,-0.289 1.492,0 2.621,0.594 3.375,1.785 L 77.211,4.178 C 77.211,4.127 77.16,3.99 77.066,3.768 76.969,3.557 76.793,3.26 76.535,2.873 76.293,2.506 75.988,2.135 75.617,1.764 75.25,1.412 74.742,1.065 74.098,0.729 73.457,0.389 72.746,0.147 71.977,0.002 c -1.786,0 -3.274,0.598 -4.465,1.785 -1.188,1.192 -1.785,2.688 -1.785,4.488 m 11.507,0.942 -8.683,0 -0.196,0.433 8.805,0 0.074,-0.433" /><path
         id="path4199"
         style="fill:#000000;fill-opacity:1;fill-rule:nonzero;stroke:none"
         d="m 81.562,1.693 c 0,-0.339 0.122,-0.597 0.364,-0.773 0.226,-0.176 0.465,-0.297 0.722,-0.363 l 0.364,-0.094 0,-0.195 c -1.981,0.257 -4.02,0.257 -6.129,0 0,0.082 -0.008,0.144 -0.024,0.195 l 0.364,0.094 c 0.273,0.051 0.511,0.172 0.722,0.363 0.274,0.191 0.395,0.41 0.364,0.652 l 0.023,6.414 c 0,0.743 -0.195,1.336 -0.578,1.786 -0.387,0.453 -0.895,0.765 -1.52,0.941 l 0,0.145 c 1.286,0.195 2.305,0.386 3.063,0.578 0.769,0.195 1.469,0.492 2.098,0.894 l 0.167,-0.023 0,-10.614 m 1.376,8.563 c -0.208,0 -0.442,-0.211 -0.7,-0.629 C 81.996,9.225 81.766,8.76 81.539,8.229 81.312,7.697 81.168,7.385 81.105,7.287 l 0.145,1.375 c 0.145,0.211 0.355,0.582 0.629,1.11 0.289,0.546 0.535,1 0.746,1.351 0.207,0.356 0.516,0.684 0.918,0.988 0.418,0.309 0.875,0.461 1.375,0.461 0.547,0 0.973,-0.195 1.277,-0.578 0.321,-0.371 0.481,-0.847 0.481,-1.426 0,-0.531 -0.153,-0.988 -0.457,-1.375 -0.305,-0.386 -0.684,-0.578 -1.133,-0.578 -0.852,0 -1.481,0.465 -1.883,1.399 -0.047,0.16 -0.137,0.242 -0.265,0.242" /><path
         id="path4201"
         style="fill:#000000;fill-opacity:1;fill-rule:nonzero;stroke:none"
         d="m 87.867,3.623 0,7.961 3.207,0 0.024,-7.84 c 0.066,-1.836 0.621,-2.75 1.668,-2.75 0.304,0 0.593,0.063 0.867,0.192 0.289,0.129 0.508,0.25 0.652,0.363 0.145,0.129 0.207,0.199 0.192,0.215 L 94.668,1.619 C 94.637,1.572 94.59,1.506 94.523,1.428 94.477,1.361 94.348,1.24 94.141,1.065 93.945,0.889 93.73,0.729 93.488,0.584 93.246,0.44 92.926,0.311 92.523,0.197 92.121,0.084 91.703,0.029 91.27,0.029 c -0.614,0 -1.145,0.102 -1.594,0.313 -0.449,0.207 -0.789,0.441 -1.012,0.699 -0.226,0.274 -0.402,0.594 -0.531,0.965 -0.129,0.387 -0.211,0.691 -0.242,0.918 -0.016,0.238 -0.024,0.473 -0.024,0.699 m 3.039,12.758 0.242,0 c 0.016,-1.832 0.024,-3.117 0.024,-3.859 l 2.676,0 -0.313,-1.11 -6.996,0 0,0.219 c 0.18,0.129 0.418,0.312 0.727,0.555 0.304,0.257 0.843,0.797 1.613,1.617 0.773,0.836 1.449,1.695 2.027,2.578" /><path
         id="path4203"
         style="fill:#000000;fill-opacity:1;fill-rule:nonzero;stroke:none"
         d="m 96.512,10.811 c 0,-0.356 0.121,-0.676 0.359,-0.965 0.242,-0.274 0.555,-0.516 0.941,-0.723 0.387,-0.195 0.813,-0.394 1.282,-0.605 0.465,-0.207 0.929,-0.442 1.398,-0.7 0.465,-0.257 0.891,-0.554 1.278,-0.89 0.386,-0.324 0.699,-0.742 0.941,-1.254 0.242,-0.516 0.359,-1.102 0.359,-1.762 0,-1.047 -0.441,-1.953 -1.324,-2.726 -0.887,-0.774 -1.914,-1.157 -3.09,-1.157 -0.64,0 -1.308,0.086 -2,0.262 C 95.98,0.486 95.465,0.67 95.113,0.85 l -0.554,0.289 0.07,4.34 0.195,0 c 0.254,-1.125 0.844,-2.243 1.758,-3.352 0.934,-1.109 1.793,-1.664 2.582,-1.664 0.434,0 0.774,0.121 1.012,0.359 0.242,0.243 0.371,0.493 0.386,0.75 l 0.051,0.36 c 0,0.515 -0.164,0.972 -0.484,1.375 -0.32,0.402 -0.723,0.726 -1.207,0.965 -0.465,0.257 -0.981,0.531 -1.543,0.82 -0.563,0.289 -1.086,0.574 -1.567,0.848 -0.468,0.289 -0.863,0.664 -1.183,1.132 -0.32,0.465 -0.481,0.996 -0.481,1.59 0,0.949 0.442,1.836 1.325,2.656 0.886,0.836 1.945,1.254 3.183,1.254 0.66,0 1.239,-0.089 1.739,-0.265 0.515,-0.176 0.859,-0.348 1.039,-0.508 l 0.265,-0.266 0.36,-3.449 -0.192,0 c -0.726,1.352 -1.433,2.348 -2.125,2.992 -0.691,0.66 -1.308,0.989 -1.855,0.989 -0.387,0 -0.692,-0.106 -0.918,-0.313 -0.223,-0.211 -0.36,-0.418 -0.41,-0.629 l -0.047,-0.312" /></g></g></svg>